<svg xmlns="http://www.w3.org/2000/svg" aria-hidden="true" style="position:absolute;width:0;height:0;overflow:hidden"> <defs> 

<symbol id="icon-user" viewBox="0 0 32 32"> <path fill="#f2f4f7" style="fill: var(--color1, #f2f4f7)" d="M16 0c8.837 0 16 7.163 16 16s-7.163 16-16 16c-8.837 0-16-7.163-16-16s7.163-16 16-16z"></path> 
</symbol> 
 <symbol id="icon-heart" viewBox="0 0 37 32">
<path d="M18.286 11.968l-2.043-4.090c-0.507-1.012-1.387-2.469-2.633-3.645-1.225-1.158-2.693-1.947-4.466-1.947-3.831 0-6.857 3.031-6.857 6.674 0 2.769 1.266 4.722 4.27 7.703 0.821 0.806 1.675 1.621 2.538 2.425l0.081 0.075c2.533 2.377 5.682 5.333 9.111 9.289 3.429-3.954 6.578-6.914 9.111-9.289 0.945-0.878 1.798-1.693 2.64-2.519l-0.021 0.020c3.003-2.981 4.27-4.936 4.27-7.703 0-3.643-3.026-6.674-6.857-6.674-1.777 0-3.241 0.789-4.466 1.947-1.246 1.176-2.126 2.633-2.633 3.645l-2.043 4.090zM19.182 30.921c-0.217 0.255-0.538 0.416-0.896 0.416s-0.679-0.161-0.895-0.414l-0.001-0.002c-3.66-4.347-6.971-7.456-9.699-10.014-4.719-4.43-7.691-7.218-7.691-11.947 0-4.949 4.091-8.96 9.143-8.96 3.657 0 6.216 2.4 7.781 4.59 0.594 0.834 1.047 1.637 1.362 2.267 0.396-0.789 0.852-1.547 1.362-2.267 1.565-2.193 4.123-4.59 7.781-4.59 5.051 0 9.143 4.011 9.143 8.96 0 4.728-2.971 7.515-7.691 11.947-2.728 2.56-6.039 5.672-9.699 10.014z"></path>
</symbol><symbol id="icon-star" viewBox="0 0 32 32">
<path fill="#ffc531" style="fill: var(--color1, #ffc531)" d="M15.116 1.676c0.171-0.319 0.503-0.532 0.884-0.532s0.713 0.213 0.881 0.527l0.003 0.005 3.778 7.158c0.144 0.27 0.401 0.464 0.706 0.519l0.006 0.001 7.976 1.38c0.473 0.085 0.827 0.494 0.827 0.985 0 0.27-0.107 0.515-0.281 0.695l0-0-5.64 5.804c-0.176 0.18-0.284 0.426-0.284 0.698 0 0.050 0.004 0.099 0.011 0.147l-0.001-0.005 1.152 8.010c0.006 0.043 0.010 0.092 0.010 0.142 0 0.552-0.448 1-1 1-0.16 0-0.312-0.038-0.446-0.105l0.006 0.003-7.264-3.572c-0.129-0.065-0.281-0.103-0.442-0.103s-0.313 0.038-0.448 0.106l0.006-0.003-7.26 3.572c-0.129 0.065-0.281 0.103-0.442 0.103-0.552 0-1-0.448-1-1 0-0.050 0.004-0.1 0.011-0.149l-0.001 0.005 1.152-8.010c0.006-0.043 0.010-0.092 0.010-0.142 0-0.272-0.108-0.518-0.284-0.698l-5.64-5.804c-0.174-0.18-0.281-0.425-0.281-0.695 0-0.491 0.354-0.9 0.821-0.984l0.006-0.001 7.976-1.38c0.312-0.056 0.57-0.249 0.711-0.515l0.003-0.005 3.778-7.158z"></path>
</symbol><symbol id="icon-map" viewBox="0 0 32 32">
<path d="M31.634 0.226c0.224 0.184 0.366 0.462 0.366 0.772 0 0.001 0 0.001 0 0.002v-0 28c-0 0.483-0.343 0.885-0.798 0.979l-0.006 0.001-10 2c-0.059 0.012-0.127 0.020-0.196 0.020s-0.137-0.007-0.202-0.021l0.006 0.001-9.804-1.96-9.804 1.96c-0.059 0.012-0.127 0.019-0.196 0.019-0.552 0-1-0.447-1-0.999v-28c0-0.483 0.343-0.885 0.798-0.979l0.006-0.001 10-2c0.059-0.012 0.127-0.019 0.196-0.019s0.137 0.007 0.202 0.021l-0.006-0.001 9.804 1.96 9.804-1.96c0.059-0.013 0.127-0.020 0.197-0.020 0.241 0 0.462 0.085 0.634 0.227l-0.002-0.001zM20 3.82l-8-1.6v25.96l8 1.6v-25.96zM22 29.78l8-1.6v-25.96l-8 1.6v25.96zM10 28.18v-25.96l-8 1.6v25.96l8-1.6z"></path>
</symbol><symbol id="icon-maplocation" viewBox="0 0 32 32">
<path d="M31.634 0.226c0.224 0.185 0.366 0.462 0.366 0.773 0 0.001 0 0.001 0 0.002v-0 28c-0.001 0.483-0.343 0.885-0.798 0.978l-0.006 0.001-10 2c-0.059 0.012-0.127 0.019-0.196 0.019s-0.137-0.007-0.202-0.020l0.006 0.001-9.803-1.96-9.803 1.96c-0.059 0.012-0.127 0.020-0.197 0.020-0.552 0-0.999-0.447-1-0.999v-28c0-0 0-0 0-0 0-0.483 0.342-0.885 0.797-0.979l0.006-0.001 10-2c0.059-0.012 0.127-0.019 0.196-0.019s0.137 0.007 0.202 0.021l-0.006-0.001 9.805 1.96 9.805-1.96c0.059-0.012 0.127-0.019 0.196-0.019 0.241 0 0.462 0.085 0.635 0.227l-0.002-0.001zM20 3.819l-8-1.6v25.96l8 1.6v-25.96zM22 29.779l8-1.6v-25.96l-8 1.6v25.96zM10 28.179v-25.96l-8 1.6v25.96l8-1.6z"></path>
</symbol>
<symbol id="icon-icon-ac" viewBox="0 0 16 32">
<path d="M12.5 2c-1.381 0-2.5 1.119-2.5 2.5v0c0 0.276-0.224 0.5-0.5 0.5s-0.5-0.224-0.5-0.5v0c0-1.933 1.567-3.5 3.5-3.5s3.5 1.567 3.5 3.5c0 1.933-1.567 3.5-3.5 3.5v0h-12c-0.276 0-0.5-0.224-0.5-0.5s0.224-0.5 0.5-0.5v0h12c1.381 0 2.5-1.119 2.5-2.5s-1.119-2.5-2.5-2.5v0zM5.5 3c-0.552 0-1 0.448-1 1v0c0 0.276-0.224 0.5-0.5 0.5s-0.5-0.224-0.5-0.5v0c0-1.105 0.895-2 2-2s2 0.895 2 2c0 1.105-0.895 2-2 2v0h-5c-0.276 0-0.5-0.224-0.5-0.5s0.224-0.5 0.5-0.5v0h5c0.552 0 1-0.448 1-1s-0.448-1-1-1v0zM0 9.5c0-0.276 0.224-0.5 0.5-0.5v0h10.042c1.657 0 3 1.343 3 3s-1.343 3-3 3c-1.657 0-3-1.343-3-3v0c0-0.276 0.224-0.5 0.5-0.5s0.5 0.224 0.5 0.5v0c0 1.105 0.895 2 2 2s2-0.895 2-2c0-1.105-0.895-2-2-2v0h-10.042c-0.276 0-0.5-0.224-0.5-0.5v0z"></path>
<path d="M3.545 29h-0.931l2.094-5.818h1.014l2.094 5.818h-0.931l-1.645-4.761h-0.045l-1.648 4.761zM3.701 26.721h3.023v0.738h-3.022v-0.738zM13.175 25.074h-0.886c-0.061-0.357-0.255-0.661-0.528-0.864l-0.004-0.003c-0.134-0.101-0.285-0.176-0.451-0.227-0.154-0.049-0.331-0.077-0.514-0.077-0.004 0-0.008 0-0.012 0h0.001c-0.335 0-0.636 0.084-0.9 0.253-0.264 0.169-0.472 0.416-0.625 0.741-0.152 0.326-0.227 0.724-0.227 1.194 0 0.474 0.076 0.873 0.227 1.199 0.153 0.326 0.363 0.572 0.627 0.738s0.563 0.25 0.895 0.25c0.184 0 0.358-0.025 0.523-0.074 0.172-0.053 0.322-0.129 0.456-0.227l-0.004 0.003c0.276-0.203 0.471-0.502 0.536-0.847l0.001-0.008 0.886 0.003c-0.049 0.296-0.145 0.562-0.282 0.802l0.006-0.012c-0.138 0.242-0.311 0.448-0.516 0.616l-0.004 0.003c-0.21 0.172-0.45 0.306-0.722 0.401-0.256 0.090-0.552 0.142-0.859 0.142-0.009 0-0.019-0-0.028-0h0.001c-0.504 0-0.953-0.119-1.347-0.358-0.393-0.24-0.704-0.584-0.931-1.031-0.225-0.447-0.338-0.98-0.338-1.6s0.114-1.154 0.341-1.599c0.227-0.447 0.538-0.79 0.932-1.029 0.394-0.24 0.842-0.36 1.344-0.36 0.309 0 0.597 0.044 0.864 0.134 0.269 0.087 0.51 0.215 0.725 0.386 0.214 0.169 0.391 0.375 0.531 0.619 0.14 0.242 0.235 0.52 0.284 0.832z"></path>
</symbol>
<symbol id="icon-icon-automatic" viewBox="0 0 39 32">
<path d="M17.5 3.5c0-0.828 0.672-1.5 1.5-1.5v0h1c0.828 0 1.5 0.672 1.5 1.5v0 1c0 0.828-0.672 1.5-1.5 1.5v0 1h5.5c0.276 0 0.5 0.224 0.5 0.5v0 1c0 0.276-0.224 0.5-0.5 0.5s-0.5-0.224-0.5-0.5v0-0.5h-5v0.5c0 0.276-0.224 0.5-0.5 0.5s-0.5-0.224-0.5-0.5v0-0.5h-5v0.5c0 0.276-0.224 0.5-0.5 0.5s-0.5-0.224-0.5-0.5v0-1c0-0.276 0.224-0.5 0.5-0.5v0h5.5v-1c-0.828 0-1.5-0.672-1.5-1.5v0-1zM20 5c0.276 0 0.5-0.224 0.5-0.5v0-1c0-0.276-0.224-0.5-0.5-0.5v0h-1c-0.276 0-0.5 0.224-0.5 0.5v0 1c0 0.276 0.224 0.5 0.5 0.5v0h1zM11.5 11.5c0-0.828 0.672-1.5 1.5-1.5v0h1c0.828 0 1.5 0.672 1.5 1.5v0 1c0 0.828-0.672 1.5-1.5 1.5v0h-1c-0.828 0-1.5-0.672-1.5-1.5v0-1zM13 11c-0.276 0-0.5 0.224-0.5 0.5v0 1c0 0.276 0.224 0.5 0.5 0.5v0h1c0.276 0 0.5-0.224 0.5-0.5v0-1c0-0.276-0.224-0.5-0.5-0.5v0h-1zM17.5 11.5c0-0.828 0.672-1.5 1.5-1.5v0h1c0.828 0 1.5 0.672 1.5 1.5v0 1c0 0.828-0.672 1.5-1.5 1.5v0h-1c-0.828 0-1.5-0.672-1.5-1.5v0-1zM19 11c-0.276 0-0.5 0.224-0.5 0.5v0 1c0 0.276 0.224 0.5 0.5 0.5v0h1c0.276 0 0.5-0.224 0.5-0.5v0-1c0-0.276-0.224-0.5-0.5-0.5v0h-1zM23.5 11.5c0-0.828 0.672-1.5 1.5-1.5v0h1c0.828 0 1.5 0.672 1.5 1.5v0 1c0 0.828-0.672 1.5-1.5 1.5v0h-1c-0.828 0-1.5-0.672-1.5-1.5v0-1zM25 11c-0.276 0-0.5 0.224-0.5 0.5v0 1c0 0.276 0.224 0.5 0.5 0.5v0h1c0.276 0 0.5-0.224 0.5-0.5v0-1c0-0.276-0.224-0.5-0.5-0.5v0h-1z"></path>
<path d="M1.17 29h-0.932l2.094-5.818h1.014l2.095 5.818h-0.933l-1.645-4.761h-0.045l-1.648 4.761zM1.326 26.721h3.022v0.738h-3.022v-0.738zM8.936 27.191v-2.554h0.852v4.363h-0.835v-0.756h-0.046c-0.101 0.233-0.261 0.427-0.483 0.582-0.22 0.154-0.494 0.23-0.821 0.23-0.28 0-0.529-0.061-0.745-0.184-0.214-0.125-0.383-0.309-0.505-0.554-0.122-0.244-0.182-0.546-0.182-0.906v-2.776h0.849v2.673c0 0.297 0.082 0.535 0.247 0.71 0.165 0.177 0.379 0.265 0.642 0.265 0.159 0 0.318-0.040 0.475-0.12 0.159-0.079 0.29-0.2 0.395-0.36 0.106-0.161 0.158-0.366 0.156-0.613zM12.926 24.637v0.681h-2.383v-0.681h2.383zM11.182 23.591h0.85v4.128c0 0.165 0.024 0.289 0.073 0.372 0.043 0.075 0.109 0.134 0.188 0.167l0.003 0.001c0.080 0.029 0.165 0.043 0.258 0.043 0.068 0 0.128-0.005 0.179-0.014 0.051-0.010 0.091-0.017 0.12-0.023l0.153 0.702c-0.058 0.021-0.129 0.041-0.201 0.055l-0.009 0.001c-0.091 0.021-0.205 0.032-0.341 0.035-0.011 0-0.025 0-0.038 0-0.212 0-0.414-0.044-0.596-0.124l0.010 0.004c-0.194-0.084-0.353-0.216-0.466-0.383l-0.002-0.004c-0.12-0.174-0.179-0.393-0.179-0.656v-4.304zM15.617 29.088c-0.409 0-0.766-0.093-1.071-0.281-0.306-0.191-0.549-0.459-0.705-0.776l-0.005-0.011c-0.169-0.337-0.253-0.731-0.253-1.182 0-0.453 0.084-0.849 0.253-1.188 0.161-0.33 0.403-0.598 0.702-0.785l0.008-0.005c0.305-0.187 0.662-0.281 1.071-0.281s0.766 0.094 1.071 0.282c0.305 0.188 0.542 0.451 0.71 0.79 0.169 0.338 0.253 0.735 0.253 1.187 0 0.451-0.084 0.845-0.253 1.182-0.161 0.328-0.404 0.596-0.702 0.782l-0.008 0.005c-0.305 0.188-0.663 0.281-1.072 0.281zM15.62 28.375c0.265 0 0.485-0.070 0.659-0.21s0.303-0.327 0.387-0.56c0.085-0.233 0.128-0.489 0.128-0.77 0-0.278-0.043-0.534-0.128-0.767-0.077-0.227-0.211-0.418-0.385-0.563l-0.002-0.002c-0.174-0.142-0.394-0.213-0.659-0.213-0.267 0-0.489 0.071-0.665 0.213-0.176 0.147-0.31 0.338-0.386 0.556l-0.003 0.009c-0.084 0.233-0.125 0.489-0.125 0.767 0 0.28 0.041 0.537 0.125 0.77 0.085 0.233 0.215 0.42 0.389 0.56 0.176 0.14 0.398 0.21 0.665 0.21zM18.559 29v-4.364h0.815v0.71h0.054c0.091-0.24 0.24-0.428 0.446-0.563 0.206-0.137 0.454-0.204 0.741-0.204 0.292 0 0.536 0.068 0.733 0.205 0.199 0.136 0.346 0.323 0.44 0.562h0.046c0.104-0.233 0.27-0.419 0.497-0.556 0.227-0.14 0.498-0.21 0.813-0.21 0.396 0 0.719 0.123 0.969 0.372 0.252 0.248 0.378 0.622 0.378 1.122v2.926h-0.849v-2.846c0-0.296-0.080-0.51-0.241-0.642-0.15-0.124-0.345-0.199-0.557-0.199-0.007 0-0.014 0-0.020 0l0.001-0c-0.276 0-0.491 0.085-0.645 0.256-0.154 0.169-0.23 0.386-0.23 0.651v2.782h-0.846v-2.901c0-0.237-0.074-0.427-0.221-0.571s-0.34-0.216-0.577-0.216c-0.161 0-0.31 0.043-0.446 0.128-0.134 0.083-0.244 0.2-0.326 0.349-0.077 0.144-0.122 0.315-0.122 0.497 0 0.008 0 0.016 0 0.025l-0-0.001v2.69h-0.85zM26.86 29.096c-0.008 0-0.017 0-0.026 0-0.262 0-0.511-0.057-0.735-0.158l0.011 0.005c-0.22-0.101-0.4-0.255-0.529-0.447l-0.003-0.005c-0.128-0.197-0.193-0.439-0.193-0.724 0-0.246 0.047-0.449 0.142-0.608s0.223-0.285 0.384-0.378c0.156-0.090 0.336-0.163 0.526-0.208l0.014-0.003c0.198-0.047 0.401-0.084 0.608-0.108l0.637-0.074c0.163-0.020 0.281-0.054 0.355-0.099s0.11-0.12 0.11-0.222v-0.020c0-0.248-0.070-0.44-0.21-0.576-0.139-0.137-0.345-0.204-0.619-0.204-0.286 0-0.512 0.064-0.676 0.19-0.163 0.125-0.276 0.265-0.338 0.418l-0.799-0.182c0.095-0.265 0.233-0.479 0.415-0.642 0.183-0.165 0.395-0.284 0.634-0.358 0.238-0.076 0.489-0.113 0.753-0.113 0.174 0 0.359 0.021 0.554 0.063 0.197 0.040 0.381 0.113 0.552 0.221 0.172 0.108 0.314 0.262 0.423 0.463 0.11 0.199 0.165 0.457 0.165 0.776v2.898h-0.83v-0.596h-0.034c-0.055 0.11-0.137 0.218-0.247 0.324s-0.251 0.194-0.423 0.264c-0.172 0.070-0.379 0.105-0.619 0.105zM27.044 28.415c0.235 0 0.435-0.047 0.602-0.14 0.16-0.085 0.29-0.209 0.381-0.359l0.002-0.004c0.089-0.151 0.134-0.314 0.134-0.486v-0.563c-0.030 0.030-0.089 0.059-0.176 0.085-0.085 0.025-0.183 0.047-0.293 0.066-0.11 0.017-0.216 0.034-0.321 0.049-0.104 0.013-0.191 0.025-0.261 0.034-0.165 0.021-0.316 0.056-0.452 0.105-0.134 0.049-0.242 0.12-0.324 0.213-0.079 0.090-0.119 0.212-0.119 0.363 0 0.21 0.078 0.369 0.233 0.477 0.155 0.106 0.353 0.16 0.593 0.16zM32.142 24.637v0.681h-2.384v-0.681h2.383zM30.396 23.591h0.85v4.128c0 0.165 0.024 0.289 0.073 0.372 0.043 0.075 0.109 0.134 0.188 0.167l0.003 0.001c0.080 0.029 0.166 0.043 0.259 0.043 0.069 0 0.128-0.005 0.179-0.014 0.051-0.010 0.091-0.017 0.12-0.023l0.154 0.702c-0.058 0.021-0.129 0.041-0.201 0.055l-0.009 0.001c-0.091 0.021-0.205 0.032-0.341 0.035-0.011 0-0.025 0-0.038 0-0.212 0-0.414-0.044-0.596-0.124l0.010 0.004c-0.194-0.084-0.353-0.216-0.466-0.383l-0.002-0.004c-0.119-0.174-0.179-0.393-0.179-0.656v-4.304zM33.041 29v-4.364h0.849v4.364h-0.85zM33.471 23.963c-0.003 0-0.007 0-0.010 0-0.144 0-0.274-0.056-0.371-0.148l0 0c-0.096-0.088-0.156-0.214-0.156-0.354 0-0.001 0-0.003 0-0.004v0c0-0.14 0.052-0.26 0.156-0.358 0.106-0.1 0.233-0.151 0.381-0.151s0.273 0.050 0.377 0.15c0.098 0.087 0.16 0.213 0.16 0.353 0 0.002 0 0.004-0 0.006v-0c0 0.001 0 0.001 0 0.002 0 0.141-0.061 0.268-0.159 0.355l-0 0c-0.095 0.091-0.224 0.148-0.367 0.148-0.004 0-0.007-0-0.011-0h0.001zM36.831 29.088c-0.422 0-0.786-0.096-1.091-0.287-0.303-0.196-0.542-0.466-0.694-0.787l-0.005-0.012c-0.163-0.339-0.245-0.727-0.245-1.165 0-0.443 0.084-0.834 0.25-1.173 0.159-0.332 0.4-0.603 0.697-0.794l0.008-0.005c0.303-0.192 0.66-0.287 1.071-0.287 0.331 0 0.627 0.061 0.886 0.185 0.26 0.121 0.468 0.291 0.628 0.511 0.161 0.22 0.257 0.477 0.286 0.77h-0.827c-0.045-0.205-0.15-0.381-0.313-0.529-0.161-0.148-0.377-0.221-0.648-0.221-0.006-0-0.014-0-0.022-0-0.225 0-0.433 0.070-0.604 0.19l0.003-0.002c-0.176 0.123-0.313 0.299-0.412 0.529-0.099 0.227-0.148 0.496-0.148 0.806 0 0.319 0.048 0.593 0.145 0.824s0.233 0.41 0.409 0.537c0.178 0.127 0.387 0.19 0.628 0.19 0.161 0 0.306-0.029 0.438-0.087 0.133-0.061 0.243-0.147 0.332-0.259 0.091-0.111 0.155-0.246 0.191-0.403h0.827c-0.029 0.285-0.128 0.543-0.279 0.761l0.003-0.005c-0.157 0.223-0.365 0.401-0.607 0.518l-0.009 0.004c-0.255 0.127-0.556 0.191-0.9 0.191z"></path>
</symbol>
<symbol id="icon-icon-kitchen" viewBox="0 0 30 32">
<path d="M7.25 6c-0.276 0-0.5 0.224-0.5 0.5 0 0.038 0.004 0.075 0.012 0.111l-0.001-0.003 1.652 7.434c0.257 1.128 1.252 1.958 2.44 1.958h5.792c1.188-0 2.183-0.83 2.437-1.941l0.003-0.017 0.131-0.59c0.166 0.033 0.357 0.051 0.552 0.051 1.657 0 3-1.343 3-3 0-1.391-0.947-2.561-2.231-2.9l-0.021-0.005 0.221-0.99c0.008-0.032 0.012-0.070 0.012-0.108 0-0.276-0.224-0.5-0.5-0.5h-13zM19.75 12.5c-0.106 0-0.212-0.008-0.316-0.025l0.867-3.898c0.841 0.249 1.444 1.015 1.444 1.922 0 1.103-0.893 1.998-1.995 2.001h-0zM9.39 13.825l-1.517-6.825h11.754l-1.517 6.825c-0.154 0.677-0.751 1.175-1.464 1.175h-5.792c-0.713-0-1.31-0.498-1.462-1.165l-0.002-0.010z"></path>
<path d="M11.15 0.8l-0.003 0.004-0.014 0.019c-0.072 0.1-0.141 0.203-0.204 0.31-0.053 0.085-0.101 0.175-0.141 0.267-0.026 0.060-0.034 0.092-0.037 0.103v0.004c0.012 0.093 0.045 0.177 0.092 0.25l-0.001-0.002c0.075 0.133 0.178 0.272 0.308 0.445l0.010 0.012c0.118 0.158 0.26 0.347 0.37 0.543 0.112 0.2 0.22 0.455 0.22 0.745 0 0.188-0.065 0.368-0.119 0.494-0.058 0.134-0.125 0.264-0.202 0.388-0.090 0.151-0.174 0.275-0.263 0.396l0.010-0.014-0.018 0.025-0.005 0.008-0.002 0.002c-0.092 0.122-0.237 0.201-0.4 0.201-0.276 0-0.5-0.224-0.5-0.5 0-0.113 0.037-0.217 0.101-0.301l-0.001 0.001 0.003-0.004 0.014-0.019c0.072-0.1 0.141-0.204 0.204-0.31 0.053-0.085 0.101-0.175 0.141-0.267 0.026-0.060 0.034-0.092 0.037-0.103-0.012-0.095-0.043-0.18-0.091-0.254l0.001 0.002c-0.102-0.17-0.204-0.315-0.315-0.453l0.006 0.008-0.010-0.012c-0.135-0.172-0.258-0.354-0.37-0.543-0.131-0.213-0.211-0.469-0.22-0.743l-0-0.002c0-0.188 0.065-0.368 0.119-0.494 0.059-0.138 0.134-0.274 0.202-0.388 0.079-0.131 0.164-0.258 0.253-0.382l0.025-0.035c0.092-0.122 0.237-0.201 0.4-0.201 0.276 0 0.5 0.224 0.5 0.5 0 0.113-0.037 0.217-0.101 0.301l0.001-0.001zM14.15 0.8l-0.003 0.004-0.014 0.019c-0.072 0.1-0.141 0.203-0.204 0.31-0.053 0.085-0.101 0.175-0.141 0.267-0.026 0.060-0.034 0.092-0.037 0.103v0.004c0.012 0.093 0.045 0.177 0.092 0.25l-0.001-0.002c0.075 0.133 0.178 0.272 0.308 0.445l0.010 0.012c0.118 0.158 0.26 0.347 0.37 0.543 0.112 0.2 0.22 0.455 0.22 0.745 0 0.188-0.065 0.368-0.119 0.494-0.058 0.134-0.125 0.264-0.202 0.388-0.090 0.151-0.174 0.275-0.263 0.396l0.010-0.014-0.018 0.025-0.005 0.008-0.002 0.002c-0.092 0.122-0.237 0.201-0.4 0.201-0.276 0-0.5-0.224-0.5-0.5 0-0.113 0.037-0.217 0.101-0.301l-0.001 0.001 0.003-0.004 0.014-0.019c0.072-0.1 0.141-0.204 0.204-0.31 0.053-0.085 0.101-0.175 0.141-0.267 0.026-0.060 0.034-0.092 0.037-0.103-0.012-0.095-0.043-0.18-0.091-0.254l0.001 0.002c-0.102-0.17-0.204-0.315-0.315-0.453l0.006 0.008-0.010-0.012c-0.135-0.172-0.258-0.354-0.37-0.543-0.131-0.213-0.211-0.469-0.22-0.743l-0-0.002c0-0.188 0.065-0.368 0.119-0.494 0.059-0.138 0.134-0.274 0.202-0.388 0.079-0.131 0.164-0.258 0.253-0.382l0.025-0.035c0.092-0.122 0.237-0.201 0.4-0.201 0.276 0 0.5 0.224 0.5 0.5 0 0.113-0.037 0.217-0.101 0.301l0.001-0.001zM17.15 0.8l-0.003 0.004-0.014 0.019c-0.073 0.1-0.141 0.203-0.204 0.31-0.053 0.085-0.101 0.175-0.141 0.267-0.026 0.060-0.034 0.092-0.037 0.103v0.004c0.012 0.093 0.045 0.177 0.092 0.25l-0.001-0.002c0.075 0.133 0.178 0.272 0.308 0.445l0.010 0.012c0.118 0.158 0.26 0.347 0.37 0.543 0.112 0.2 0.22 0.455 0.22 0.745 0 0.188-0.065 0.368-0.119 0.494-0.058 0.134-0.125 0.264-0.202 0.388-0.078 0.131-0.162 0.258-0.252 0.382l-0.019 0.025-0.005 0.008-0.002 0.002c-0.092 0.122-0.237 0.201-0.401 0.201-0.276 0-0.5-0.224-0.5-0.5 0-0.113 0.037-0.217 0.101-0.301l-0.001 0.001 0.003-0.004 0.014-0.019c0.073-0.1 0.141-0.204 0.204-0.31 0.053-0.085 0.101-0.175 0.141-0.267 0.026-0.060 0.034-0.092 0.037-0.103-0.012-0.095-0.044-0.18-0.091-0.254l0.001 0.002c-0.102-0.17-0.204-0.315-0.315-0.453l0.006 0.008-0.010-0.012c-0.135-0.172-0.259-0.354-0.37-0.543-0.131-0.213-0.211-0.469-0.22-0.743l-0-0.002c0-0.188 0.065-0.368 0.119-0.494 0.059-0.138 0.134-0.274 0.202-0.388 0.079-0.131 0.164-0.258 0.253-0.382l0.025-0.035c0.092-0.122 0.237-0.201 0.401-0.201 0.276 0 0.5 0.224 0.5 0.5 0 0.113-0.037 0.217-0.101 0.301l0.001-0.001z"></path>
<path d="M0.841 29v-5.818h0.878v2.778h0.071l2.44-2.778h1.106l-2.346 2.619 2.355 3.199h-1.056l-1.881-2.599-0.688 0.79v1.809h-0.878zM6.319 29v-4.364h0.849v4.364h-0.849zM6.748 23.963c-0.003 0-0.006 0-0.010 0-0.144 0-0.274-0.056-0.371-0.148l0 0c-0.096-0.088-0.157-0.214-0.157-0.355 0-0.001 0-0.002 0-0.004v0c0-0.14 0.052-0.26 0.157-0.358 0.106-0.1 0.233-0.151 0.38-0.151s0.274 0.050 0.378 0.15c0.098 0.087 0.159 0.212 0.159 0.353 0 0.002 0 0.004-0 0.006v-0c0 0.001 0 0.002 0 0.003 0 0.141-0.061 0.268-0.159 0.355l-0 0c-0.095 0.091-0.224 0.148-0.367 0.148-0.004 0-0.008-0-0.012-0h0.001zM10.308 24.637v0.681h-2.383v-0.681h2.384zM8.564 23.591h0.849v4.128c0 0.165 0.025 0.289 0.074 0.372 0.043 0.075 0.109 0.134 0.187 0.167l0.003 0.001c0.080 0.029 0.166 0.043 0.259 0.043 0.068 0 0.128-0.005 0.179-0.014 0.051-0.010 0.091-0.017 0.119-0.023l0.153 0.702c-0.058 0.021-0.129 0.041-0.201 0.055l-0.009 0.001c-0.091 0.021-0.205 0.032-0.341 0.035-0.011 0-0.025 0-0.038 0-0.212 0-0.414-0.044-0.596-0.124l0.010 0.004c-0.194-0.084-0.353-0.216-0.467-0.383l-0.002-0.004c-0.119-0.174-0.178-0.393-0.178-0.656v-4.304zM12.999 29.088c-0.422 0-0.786-0.096-1.091-0.287-0.303-0.196-0.542-0.466-0.694-0.787l-0.005-0.012c-0.162-0.339-0.244-0.727-0.244-1.165 0-0.443 0.083-0.834 0.25-1.173 0.159-0.332 0.4-0.603 0.697-0.794l0.008-0.005c0.303-0.192 0.66-0.287 1.071-0.287 0.332 0 0.627 0.061 0.886 0.185 0.259 0.121 0.469 0.291 0.627 0.511 0.161 0.22 0.257 0.477 0.287 0.77h-0.826c-0.046-0.205-0.15-0.381-0.313-0.529-0.161-0.148-0.377-0.221-0.648-0.221-0.006-0-0.014-0-0.021-0-0.225 0-0.433 0.070-0.604 0.19l0.003-0.002c-0.176 0.123-0.313 0.299-0.412 0.529-0.098 0.227-0.148 0.496-0.148 0.806 0 0.319 0.048 0.593 0.145 0.824s0.232 0.41 0.409 0.537c0.178 0.127 0.387 0.19 0.627 0.19 0.161 0 0.307-0.029 0.438-0.087 0.133-0.061 0.243-0.147 0.332-0.259 0.091-0.111 0.155-0.246 0.19-0.403h0.827c-0.028 0.285-0.127 0.543-0.279 0.761l0.003-0.005c-0.157 0.223-0.365 0.401-0.607 0.518l-0.009 0.004c-0.255 0.127-0.556 0.191-0.9 0.191zM16.509 26.409v2.591h-0.849v-5.818h0.838v2.165h0.054c0.102-0.235 0.259-0.422 0.468-0.56s0.485-0.207 0.824-0.207c0.299 0 0.561 0.061 0.784 0.185 0.226 0.123 0.4 0.306 0.523 0.551 0.125 0.242 0.188 0.545 0.188 0.909v2.776h-0.85v-2.674c0-0.32-0.082-0.568-0.247-0.744-0.165-0.178-0.394-0.267-0.688-0.267-0.006-0-0.013-0-0.019-0-0.19 0-0.369 0.047-0.527 0.131l0.006-0.003c-0.157 0.085-0.281 0.21-0.372 0.375-0.089 0.163-0.134 0.36-0.134 0.591zM22.313 29.088c-0.43 0-0.8-0.092-1.11-0.276-0.309-0.188-0.554-0.454-0.711-0.771l-0.005-0.011c-0.167-0.337-0.25-0.732-0.25-1.184 0-0.447 0.083-0.841 0.25-1.181 0.16-0.331 0.401-0.602 0.697-0.794l0.008-0.005c0.303-0.192 0.657-0.287 1.063-0.287 0.246 0 0.485 0.041 0.716 0.122s0.439 0.209 0.622 0.384c0.183 0.174 0.328 0.401 0.435 0.679 0.106 0.276 0.159 0.613 0.159 1.009v0.302h-3.469v-0.637h2.637c0-0.224-0.046-0.421-0.137-0.594-0.089-0.172-0.22-0.311-0.379-0.409l-0.005-0.003c-0.163-0.101-0.354-0.151-0.574-0.151-0.238 0-0.447 0.058-0.625 0.176-0.174 0.114-0.312 0.267-0.406 0.448l-0.003 0.007c-0.095 0.186-0.142 0.387-0.142 0.605v0.497c0 0.292 0.051 0.54 0.154 0.744 0.104 0.205 0.249 0.361 0.435 0.469 0.185 0.106 0.402 0.159 0.65 0.159 0.161 0 0.308-0.023 0.44-0.069 0.133-0.047 0.247-0.117 0.344-0.21s0.171-0.207 0.222-0.344l0.804 0.145c-0.065 0.237-0.18 0.444-0.347 0.622-0.17 0.178-0.378 0.318-0.611 0.408l-0.012 0.004c-0.248 0.097-0.531 0.145-0.849 0.145zM25.937 26.409v2.591h-0.849v-4.364h0.816v0.71h0.054c0.1-0.231 0.258-0.416 0.471-0.556 0.216-0.14 0.488-0.21 0.816-0.21 0.297 0 0.558 0.062 0.782 0.187 0.224 0.123 0.396 0.307 0.52 0.551 0.122 0.244 0.184 0.547 0.184 0.907v2.776h-0.85v-2.674c0-0.316-0.082-0.564-0.247-0.741-0.165-0.18-0.391-0.27-0.679-0.27-0.197 0-0.372 0.043-0.525 0.128s-0.272 0.21-0.361 0.375c-0.087 0.163-0.131 0.36-0.131 0.591z"></path>
</symbol>
<symbol id="icon-icon-bathroom" viewBox="0 0 38 32">
<path d="M15 14.75c0 0.414-0.336 0.75-0.75 0.75s-0.75-0.336-0.75-0.75v0c0-0.414 0.336-0.75 0.75-0.75s0.75 0.336 0.75 0.75v0zM16.25 12c-0.414 0-0.75 0.336-0.75 0.75s0.336 0.75 0.75 0.75v0c0.414 0 0.75-0.336 0.75-0.75s-0.336-0.75-0.75-0.75v0zM12.25 12c-0.414 0-0.75 0.336-0.75 0.75s0.336 0.75 0.75 0.75v0c0.414 0 0.75-0.336 0.75-0.75s-0.336-0.75-0.75-0.75v0zM14.25 10c-0.414 0-0.75 0.336-0.75 0.75s0.336 0.75 0.75 0.75v0c0.414 0 0.75-0.336 0.75-0.75s-0.336-0.75-0.75-0.75v0zM27 2.5c0 0.276-0.224 0.5-0.5 0.5v0h-1.793l-1.741 1.741-1.354 7.925c-0.082 0.476-0.493 0.834-0.986 0.834-0.276 0-0.526-0.112-0.707-0.293l-6.125-6.125c-0.182-0.181-0.294-0.431-0.294-0.708 0-0.495 0.359-0.905 0.831-0.985l0.006-0.001 7.921-1.354 1.887-1.888c0.090-0.091 0.215-0.147 0.354-0.147 0 0 0 0 0 0h2c0.276 0 0.5 0.224 0.5 0.5v0zM21.888 5.112l-7.388 1.263 6.125 6.125 1.263-7.388zM1.131 29v-5.818h2.13c0.413 0 0.755 0.068 1.026 0.204 0.271 0.134 0.473 0.317 0.608 0.548 0.135 0.23 0.202 0.488 0.202 0.776 0 0.242-0.045 0.447-0.133 0.614-0.089 0.165-0.208 0.297-0.358 0.398-0.147 0.099-0.31 0.171-0.489 0.216v0.057c0.212 0.013 0.405 0.081 0.569 0.19l-0.004-0.003c0.186 0.113 0.34 0.275 0.46 0.485s0.182 0.466 0.182 0.767c0 0.297-0.070 0.565-0.21 0.802-0.138 0.235-0.353 0.421-0.643 0.559-0.29 0.137-0.66 0.204-1.111 0.204h-2.23zM2.009 28.247h1.267c0.421 0 0.721-0.081 0.904-0.244s0.273-0.366 0.273-0.611c0-0.183-0.046-0.352-0.139-0.506-0.097-0.156-0.232-0.281-0.392-0.364l-0.006-0.003c-0.171-0.091-0.373-0.137-0.608-0.137h-1.299v1.863zM2.009 25.699h1.177c0.197 0 0.374-0.038 0.531-0.114 0.155-0.072 0.283-0.181 0.376-0.315l0.002-0.003c0.095-0.138 0.142-0.301 0.142-0.488 0-0.241-0.085-0.442-0.253-0.605s-0.427-0.244-0.776-0.244h-1.2v1.77zM7.527 29.096c-0.008 0-0.017 0-0.026 0-0.262 0-0.511-0.057-0.735-0.158l0.011 0.005c-0.22-0.101-0.4-0.255-0.529-0.447l-0.003-0.005c-0.128-0.197-0.193-0.439-0.193-0.724 0-0.246 0.048-0.449 0.142-0.608s0.223-0.285 0.383-0.378c0.156-0.090 0.336-0.163 0.526-0.208l0.014-0.003c0.199-0.047 0.402-0.084 0.607-0.108l0.636-0.074c0.163-0.020 0.281-0.054 0.355-0.099s0.111-0.12 0.111-0.222v-0.020c0-0.248-0.070-0.44-0.21-0.576-0.139-0.137-0.345-0.204-0.62-0.204-0.285 0-0.511 0.064-0.676 0.19-0.163 0.125-0.276 0.265-0.338 0.418l-0.798-0.182c0.095-0.265 0.233-0.479 0.415-0.642 0.183-0.165 0.395-0.284 0.633-0.358 0.239-0.076 0.489-0.113 0.753-0.113 0.175 0 0.359 0.021 0.554 0.063 0.197 0.040 0.38 0.113 0.551 0.221 0.172 0.108 0.313 0.262 0.424 0.463 0.11 0.199 0.165 0.457 0.165 0.776v2.898h-0.831v-0.596h-0.034c-0.055 0.11-0.137 0.218-0.247 0.324s-0.251 0.194-0.424 0.264c-0.172 0.070-0.378 0.105-0.619 0.105zM7.712 28.415c0.235 0 0.436-0.047 0.603-0.14 0.16-0.085 0.29-0.209 0.381-0.359l0.002-0.004c0.089-0.151 0.133-0.314 0.133-0.486v-0.563c-0.030 0.030-0.089 0.059-0.177 0.085-0.085 0.025-0.182 0.047-0.293 0.066-0.11 0.017-0.217 0.034-0.321 0.049-0.104 0.013-0.191 0.025-0.261 0.034-0.165 0.021-0.315 0.056-0.452 0.105-0.135 0.049-0.242 0.12-0.324 0.213-0.080 0.090-0.119 0.212-0.119 0.363 0 0.21 0.077 0.369 0.233 0.477 0.155 0.106 0.353 0.16 0.593 0.16zM12.809 24.637v0.681h-2.383v-0.681h2.383zM11.064 23.591h0.85v4.128c0 0.165 0.024 0.289 0.073 0.372 0.043 0.075 0.109 0.134 0.187 0.167l0.003 0.001c0.080 0.029 0.166 0.043 0.259 0.043 0.068 0 0.127-0.005 0.179-0.014 0.051-0.010 0.091-0.017 0.119-0.023l0.153 0.702c-0.058 0.021-0.129 0.041-0.201 0.055l-0.009 0.001c-0.091 0.021-0.205 0.032-0.341 0.035-0.011 0-0.025 0-0.038 0-0.212 0-0.414-0.044-0.596-0.124l0.010 0.004c-0.194-0.084-0.353-0.216-0.467-0.383l-0.002-0.004c-0.119-0.174-0.179-0.393-0.179-0.656v-4.304zM14.652 26.409v2.591h-0.85v-5.818h0.838v2.165h0.054c0.102-0.235 0.258-0.422 0.469-0.56s0.485-0.207 0.823-0.207c0.299 0 0.561 0.061 0.784 0.185 0.226 0.123 0.4 0.306 0.523 0.551 0.125 0.242 0.188 0.545 0.188 0.909v2.776h-0.849v-2.674c0-0.32-0.082-0.568-0.247-0.744-0.165-0.178-0.394-0.267-0.688-0.267-0.006-0-0.013-0-0.019-0-0.19 0-0.37 0.047-0.527 0.131l0.006-0.003c-0.157 0.085-0.281 0.21-0.372 0.375-0.089 0.163-0.133 0.36-0.133 0.591zM18.575 29v-4.364h0.821v0.693h0.045c0.080-0.235 0.22-0.419 0.421-0.554 0.203-0.137 0.431-0.204 0.688-0.204 0.128 0.001 0.253 0.008 0.377 0.021l-0.016-0.001v0.813c-0.050-0.013-0.112-0.024-0.174-0.031l-0.007-0.001c-0.079-0.013-0.169-0.020-0.261-0.020h-0c-0.201 0-0.38 0.043-0.537 0.128-0.303 0.163-0.506 0.478-0.506 0.84 0 0.005 0 0.011 0 0.016v-0.001 2.665h-0.85zM23.287 29.088c-0.409 0-0.766-0.093-1.071-0.281-0.306-0.191-0.549-0.459-0.705-0.776l-0.005-0.011c-0.169-0.337-0.253-0.731-0.253-1.182 0-0.453 0.084-0.849 0.253-1.188 0.161-0.33 0.403-0.598 0.702-0.785l0.008-0.005c0.305-0.187 0.662-0.281 1.071-0.281s0.766 0.094 1.071 0.282c0.305 0.188 0.542 0.451 0.71 0.79 0.169 0.338 0.253 0.735 0.253 1.187 0 0.451-0.084 0.845-0.253 1.182-0.161 0.328-0.404 0.596-0.702 0.782l-0.008 0.005c-0.305 0.188-0.663 0.281-1.072 0.281zM23.29 28.375c0.265 0 0.485-0.070 0.659-0.21s0.303-0.327 0.387-0.56c0.085-0.233 0.128-0.489 0.128-0.77 0-0.278-0.043-0.534-0.128-0.767-0.077-0.227-0.211-0.418-0.385-0.563l-0.002-0.002c-0.174-0.142-0.394-0.213-0.659-0.213-0.267 0-0.488 0.071-0.665 0.213-0.176 0.147-0.31 0.338-0.386 0.556l-0.003 0.009c-0.084 0.233-0.125 0.489-0.125 0.767 0 0.28 0.041 0.537 0.125 0.77 0.085 0.233 0.215 0.42 0.389 0.56 0.177 0.14 0.398 0.21 0.665 0.21zM28.067 29.088c-0.409 0-0.766-0.093-1.071-0.281-0.306-0.191-0.549-0.459-0.705-0.776l-0.005-0.011c-0.169-0.337-0.253-0.731-0.253-1.182 0-0.453 0.084-0.849 0.253-1.188 0.161-0.33 0.403-0.598 0.702-0.785l0.008-0.005c0.305-0.187 0.663-0.281 1.072-0.281s0.766 0.094 1.071 0.282c0.305 0.188 0.541 0.451 0.71 0.79s0.253 0.735 0.253 1.187c0 0.451-0.084 0.845-0.253 1.182-0.161 0.328-0.404 0.596-0.702 0.782l-0.008 0.005c-0.305 0.188-0.662 0.281-1.071 0.281zM28.070 28.375c0.265 0 0.485-0.070 0.66-0.21s0.303-0.327 0.386-0.56c0.085-0.233 0.128-0.489 0.128-0.77 0-0.278-0.043-0.534-0.128-0.767-0.077-0.227-0.211-0.418-0.384-0.563l-0.002-0.002c-0.174-0.142-0.394-0.213-0.66-0.213-0.267 0-0.488 0.071-0.665 0.213-0.175 0.147-0.31 0.338-0.386 0.556l-0.003 0.009c-0.084 0.233-0.125 0.489-0.125 0.767 0 0.28 0.041 0.537 0.125 0.77 0.085 0.233 0.215 0.42 0.389 0.56 0.176 0.14 0.398 0.21 0.665 0.21zM31.010 29v-4.364h0.815v0.71h0.054c0.091-0.24 0.24-0.428 0.446-0.563 0.206-0.137 0.453-0.204 0.742-0.204 0.291 0 0.536 0.068 0.733 0.205 0.199 0.136 0.346 0.323 0.44 0.562h0.045c0.105-0.233 0.27-0.419 0.498-0.556 0.227-0.14 0.498-0.21 0.813-0.21 0.395 0 0.718 0.123 0.968 0.372 0.252 0.248 0.378 0.622 0.378 1.122v2.926h-0.849v-2.846c0-0.296-0.080-0.51-0.242-0.642-0.15-0.124-0.345-0.199-0.557-0.199-0.007 0-0.014 0-0.020 0l0.001-0c-0.276 0-0.492 0.085-0.645 0.256-0.154 0.169-0.23 0.386-0.23 0.651v2.782h-0.847v-2.901c0-0.237-0.074-0.427-0.221-0.571s-0.34-0.216-0.577-0.216c-0.161 0-0.31 0.043-0.446 0.128-0.135 0.083-0.243 0.2-0.326 0.349-0.077 0.144-0.123 0.316-0.123 0.498 0 0.008 0 0.016 0 0.024l-0-0.001v2.69h-0.849z"></path>
</symbol>
<symbol id="icon-icon-tv" viewBox="0 0 16 32">
<path d="M0 4c0 0 0-2 2-2h12c0 0 2 0 2 2v6c0 0 0 2-2 2h-4c0 0.667 0.083 1.167 0.25 1.5h0.75c0.133 0 0.26 0.053 0.354 0.146s0.146 0.221 0.146 0.354c0 0.133-0.053 0.26-0.146 0.354s-0.221 0.146-0.354 0.146h-6c-0.133 0-0.26-0.053-0.354-0.146s-0.146-0.221-0.146-0.354c0-0.133 0.053-0.26 0.146-0.354s0.221-0.146 0.354-0.146h0.75c0.167-0.333 0.25-0.833 0.25-1.5h-4c0 0-2 0-2-2v-6zM1.398 3.145c-0.11 0.077-0.197 0.181-0.254 0.302-0.084 0.176-0.133 0.368-0.144 0.563v5.99c0 0.325 0.078 0.502 0.145 0.602 0.070 0.104 0.171 0.189 0.302 0.254 0.169 0.081 0.351 0.129 0.538 0.143l0.025 0.001h11.99c0.325 0 0.502-0.078 0.602-0.145 0.11-0.077 0.197-0.181 0.254-0.302 0.081-0.169 0.129-0.351 0.143-0.538l0.001-0.025v-5.99c0-0.325-0.078-0.502-0.145-0.602-0.077-0.11-0.181-0.197-0.302-0.254-0.177-0.084-0.368-0.133-0.563-0.144h-11.99c-0.325 0-0.502 0.078-0.602 0.145z"></path>
<path d="M2.966 23.938v-0.756h4.503v0.756h-1.815v5.063h-0.875v-5.063h-1.813zM8.932 23.182l1.619 4.739h0.065l1.619-4.739h0.949l-2.094 5.818h-1.014l-2.094-5.818h0.949z"></path>
</symbol>
<symbol id="icon-icon-van" viewBox="0 0 16 32">
<path d="M6 1h-5v14h5v-14zM15 1h-5v5h5v-5zM15 10v5h-5v-5h5zM0 1c0-0.552 0.448-1 1-1v0h5c0.552 0 1 0.448 1 1v0 14c0 0.552-0.448 1-1 1v0h-5c-0.552 0-1-0.448-1-1v0-14zM9 1c0-0.552 0.448-1 1-1v0h5c0.552 0 1 0.448 1 1v0 5c0 0.552-0.448 1-1 1v0h-5c-0.552 0-1-0.448-1-1v0-5zM10 9c-0.552 0-1 0.448-1 1v0 5c0 0.552 0.448 1 1 1v0h5c0.552 0 1-0.448 1-1v0-5c0-0.552-0.448-1-1-1v0h-5z"></path>
<path d="M1.934 23.182l1.619 4.738h0.066l1.619-4.739h0.949l-2.093 5.818h-1.014l-2.094-5.818h0.949zM7.759 29.097c-0.007 0-0.016 0-0.025 0-0.263 0-0.512-0.057-0.736-0.159l0.011 0.005c-0.22-0.101-0.4-0.255-0.529-0.447l-0.003-0.005c-0.128-0.197-0.193-0.439-0.193-0.724 0-0.246 0.048-0.449 0.142-0.608s0.223-0.285 0.383-0.378c0.156-0.090 0.336-0.163 0.526-0.208l0.014-0.003c0.199-0.047 0.402-0.084 0.608-0.108l0.636-0.074c0.163-0.020 0.281-0.054 0.355-0.099s0.111-0.12 0.111-0.222v-0.020c0-0.248-0.070-0.44-0.21-0.576-0.139-0.137-0.345-0.204-0.62-0.204-0.285 0-0.511 0.064-0.675 0.19-0.163 0.125-0.276 0.265-0.338 0.418l-0.798-0.182c0.095-0.265 0.233-0.479 0.415-0.642 0.183-0.165 0.395-0.284 0.633-0.358 0.239-0.076 0.49-0.113 0.753-0.113 0.175 0 0.359 0.021 0.554 0.063 0.197 0.040 0.381 0.113 0.551 0.221 0.172 0.108 0.313 0.262 0.424 0.463 0.11 0.199 0.165 0.457 0.165 0.776v2.898h-0.83v-0.596h-0.034c-0.055 0.11-0.137 0.218-0.247 0.324s-0.251 0.194-0.424 0.264c-0.172 0.070-0.378 0.105-0.619 0.105zM7.944 28.415c0.234 0 0.435-0.047 0.602-0.14 0.16-0.085 0.29-0.209 0.381-0.359l0.002-0.004c0.089-0.151 0.133-0.314 0.133-0.486v-0.563c-0.030 0.030-0.089 0.059-0.177 0.085-0.085 0.025-0.182 0.047-0.293 0.066-0.11 0.017-0.216 0.034-0.321 0.049-0.104 0.013-0.191 0.025-0.261 0.034-0.165 0.021-0.315 0.056-0.452 0.105-0.135 0.049-0.242 0.12-0.324 0.213-0.080 0.090-0.119 0.212-0.119 0.363 0 0.21 0.077 0.369 0.233 0.477 0.155 0.106 0.353 0.16 0.593 0.16zM11.853 26.409v2.591h-0.85v-4.364h0.816v0.71h0.054c0.1-0.231 0.258-0.416 0.472-0.556 0.216-0.14 0.488-0.21 0.815-0.21 0.298 0 0.558 0.062 0.781 0.187 0.223 0.123 0.397 0.307 0.52 0.551s0.185 0.547 0.185 0.907v2.776h-0.85v-2.674c0-0.316-0.082-0.564-0.247-0.741-0.165-0.18-0.391-0.27-0.679-0.27-0.197 0-0.372 0.043-0.525 0.128-0.152 0.085-0.272 0.21-0.361 0.375-0.088 0.163-0.131 0.36-0.131 0.591z"></path>
</symbol>
<symbol id="icon-icon-fully" viewBox="0 0 29 32">
<path d="M9.455 1.818c0-0.603 0.488-1.091 1.091-1.091v0h2.182c0.603 0 1.091 0.488 1.091 1.091v0 2.182c0 0.603-0.488 1.091-1.091 1.091v0h-2.182c-0.603 0-1.091-0.488-1.091-1.091v0-2.182zM10.545 1.455c-0.201 0-0.364 0.163-0.364 0.364v0 2.182c0 0.201 0.163 0.364 0.364 0.364v0h2.182c0.201 0 0.364-0.163 0.364-0.364v0-2.182c0-0.201-0.163-0.364-0.364-0.364v0h-2.182zM15.273 1.818c0-0.603 0.488-1.091 1.091-1.091v0h2.182c0.602 0 1.091 0.488 1.091 1.091v0 2.182c0 0.603-0.488 1.091-1.091 1.091v0h-2.182c-0.602 0-1.091-0.488-1.091-1.091v0-2.182zM16.364 1.455c-0.201 0-0.364 0.163-0.364 0.364v0 2.182c0 0.201 0.163 0.364 0.364 0.364v0h2.182c0.201 0 0.364-0.163 0.364-0.364v0-2.182c0-0.201-0.163-0.364-0.364-0.364v0h-2.182zM9.455 7.636c0-0.603 0.488-1.091 1.091-1.091v0h2.182c0.603 0 1.091 0.488 1.091 1.091v0 2.182c0 0.602-0.488 1.091-1.091 1.091v0h-2.182c-0.603 0-1.091-0.488-1.091-1.091v0-2.182zM10.545 7.273c-0.201 0-0.364 0.163-0.364 0.364v0 2.182c0 0.201 0.163 0.364 0.364 0.364v0h2.182c0.201 0 0.364-0.163 0.364-0.364v0-2.182c0-0.201-0.163-0.364-0.364-0.364v0h-2.182zM15.273 7.636c0-0.603 0.488-1.091 1.091-1.091v0h2.182c0.602 0 1.091 0.488 1.091 1.091v0 2.182c0 0.602-0.488 1.091-1.091 1.091v0h-2.182c-0.602 0-1.091-0.488-1.091-1.091v0-2.182zM16.364 7.273c-0.201 0-0.364 0.163-0.364 0.364v0 2.182c0 0.201 0.163 0.364 0.364 0.364v0h2.182c0.201 0 0.364-0.163 0.364-0.364v0-2.182c0-0.201-0.163-0.364-0.364-0.364v0h-2.182zM8.651 21.091v-4.231h2.624v0.549h-1.985v1.289h1.797v0.548h-1.797v1.845h-0.639zM13.793 19.775v-1.857h0.62v3.173h-0.607v-0.549h-0.033c-0.073 0.169-0.19 0.311-0.351 0.423-0.16 0.112-0.359 0.167-0.597 0.167-0.204 0-0.384-0.045-0.541-0.134-0.156-0.091-0.278-0.225-0.368-0.403-0.088-0.177-0.132-0.397-0.132-0.659v-2.019h0.618v1.944c0 0.216 0.060 0.389 0.18 0.516s0.275 0.193 0.467 0.193c0.116 0 0.231-0.029 0.345-0.087 0.116-0.058 0.211-0.145 0.287-0.262 0.077-0.117 0.115-0.266 0.113-0.446zM15.832 16.86v4.231h-0.618v-4.231h0.618zM17.251 16.86v4.231h-0.617v-4.231h0.617zM18.444 22.281c-0.092 0-0.176-0.008-0.252-0.023-0.064-0.010-0.121-0.026-0.175-0.047l0.005 0.002 0.149-0.506c0.113 0.031 0.213 0.044 0.302 0.039 0.091-0.004 0.172-0.041 0.234-0.099l-0 0c0.069-0.062 0.129-0.163 0.182-0.304l0.076-0.211-1.161-3.215h0.661l0.804 2.463h0.033l0.804-2.463h0.663l-1.308 3.597c-0.057 0.161-0.135 0.3-0.233 0.422l0.002-0.003c-0.089 0.111-0.201 0.199-0.329 0.258l-0.006 0.002c-0.13 0.058-0.28 0.087-0.451 0.087zM1.336 25.587v4.232h-0.638v-4.231h0.638zM2.805 27.934v1.884h-0.618v-3.173h0.593v0.516h0.039c0.073-0.168 0.188-0.303 0.343-0.405 0.157-0.102 0.355-0.153 0.593-0.153 0.216 0 0.406 0.045 0.568 0.136 0.163 0.089 0.288 0.223 0.378 0.401s0.134 0.397 0.134 0.659v2.019h-0.618v-1.944c0-0.23-0.060-0.41-0.18-0.539-0.12-0.131-0.284-0.196-0.494-0.196-0.143 0-0.271 0.031-0.382 0.093-0.11 0.062-0.198 0.153-0.263 0.273-0.063 0.119-0.095 0.262-0.095 0.43zM7.117 26.645v0.496h-1.733v-0.496h1.733zM5.849 25.884h0.617v3.002c0 0.12 0.018 0.21 0.054 0.271 0.031 0.055 0.079 0.097 0.136 0.121l0.002 0.001c0.058 0.021 0.121 0.031 0.188 0.031 0.049 0 0.093-0.004 0.13-0.010s0.066-0.012 0.087-0.017l0.112 0.511c-0.042 0.016-0.093 0.030-0.146 0.040l-0.007 0.001c-0.066 0.015-0.149 0.023-0.248 0.025-0.008 0-0.018 0-0.028 0-0.154 0-0.301-0.032-0.434-0.090l0.007 0.003c-0.141-0.061-0.257-0.157-0.339-0.278l-0.002-0.003c-0.087-0.127-0.13-0.286-0.13-0.477v-3.13zM9.105 29.882c-0.313 0-0.582-0.067-0.808-0.2-0.224-0.137-0.402-0.33-0.517-0.56l-0.004-0.008c-0.121-0.245-0.182-0.532-0.182-0.861 0-0.325 0.060-0.612 0.182-0.86 0.117-0.241 0.292-0.437 0.507-0.577l0.005-0.003c0.22-0.139 0.478-0.209 0.773-0.209 0.179 0 0.353 0.029 0.52 0.089s0.319 0.152 0.453 0.279c0.133 0.127 0.239 0.292 0.316 0.494 0.077 0.201 0.115 0.446 0.115 0.733v0.219h-2.523v-0.463h1.917c0-0.163-0.033-0.307-0.099-0.432-0.065-0.125-0.16-0.226-0.276-0.297l-0.003-0.002c-0.119-0.073-0.258-0.11-0.417-0.11-0.173 0-0.325 0.043-0.455 0.128-0.126 0.083-0.227 0.194-0.295 0.326l-0.002 0.005c-0.069 0.135-0.103 0.282-0.103 0.44v0.361c0 0.212 0.037 0.393 0.112 0.541 0.076 0.149 0.181 0.263 0.316 0.341 0.135 0.077 0.293 0.116 0.473 0.116 0.117 0 0.224-0.017 0.32-0.050 0.097-0.034 0.18-0.085 0.25-0.153s0.124-0.151 0.161-0.25l0.585 0.105c-0.047 0.172-0.131 0.323-0.252 0.453-0.124 0.129-0.275 0.231-0.444 0.296l-0.008 0.003c-0.18 0.071-0.387 0.105-0.618 0.105zM12.453 31.074c-0.252 0-0.469-0.033-0.651-0.099-0.18-0.066-0.327-0.153-0.442-0.263-0.106-0.099-0.193-0.218-0.254-0.351l-0.003-0.007 0.531-0.219c0.037 0.061 0.087 0.125 0.149 0.192 0.063 0.069 0.149 0.127 0.256 0.176 0.109 0.048 0.249 0.073 0.419 0.073 0.234 0 0.428-0.057 0.581-0.172 0.153-0.113 0.229-0.293 0.229-0.541v-0.624h-0.039c-0.037 0.068-0.091 0.143-0.161 0.225-0.069 0.083-0.164 0.154-0.285 0.215s-0.279 0.091-0.473 0.091c-0.251 0-0.477-0.058-0.678-0.176-0.2-0.118-0.358-0.293-0.475-0.523-0.116-0.231-0.173-0.516-0.173-0.853s0.057-0.627 0.171-0.868c0.116-0.241 0.274-0.425 0.475-0.554 0.188-0.122 0.418-0.194 0.665-0.194 0.007 0 0.013 0 0.019 0h-0.001c0.197 0 0.356 0.033 0.477 0.099 0.121 0.065 0.216 0.14 0.283 0.227 0.069 0.087 0.122 0.163 0.159 0.229h0.045v-0.514h0.605v3.244c0 0.273-0.063 0.497-0.19 0.672s-0.298 0.304-0.515 0.388c-0.215 0.084-0.457 0.126-0.727 0.126zM12.447 29.258c0.178 0 0.328-0.041 0.451-0.124 0.124-0.084 0.218-0.204 0.281-0.36 0.065-0.157 0.097-0.345 0.097-0.564 0-0.214-0.032-0.402-0.095-0.564s-0.156-0.289-0.279-0.38c-0.123-0.092-0.274-0.138-0.455-0.138-0.186 0-0.341 0.048-0.465 0.144-0.124 0.095-0.218 0.224-0.281 0.388-0.062 0.164-0.093 0.347-0.093 0.549 0 0.208 0.032 0.391 0.095 0.548s0.157 0.28 0.281 0.368c0.125 0.088 0.28 0.132 0.463 0.132zM14.685 29.818v-3.173h0.597v0.504h0.033c0.058-0.171 0.16-0.305 0.306-0.403 0.147-0.099 0.314-0.149 0.5-0.149 0.093 0.001 0.184 0.006 0.274 0.016l-0.012-0.001v0.591c-0.036-0.009-0.081-0.017-0.127-0.022l-0.005-0c-0.057-0.009-0.123-0.015-0.19-0.015h-0c-0.146 0-0.276 0.031-0.391 0.093-0.22 0.118-0.367 0.347-0.367 0.61 0 0.004 0 0.008 0 0.012v-0.001 1.938h-0.618zM17.784 29.888c-0.006 0-0.012 0-0.019 0-0.191 0-0.372-0.041-0.535-0.115l0.008 0.003c-0.16-0.073-0.291-0.186-0.384-0.325l-0.002-0.003c-0.094-0.143-0.14-0.319-0.14-0.527 0-0.179 0.034-0.327 0.103-0.442s0.162-0.207 0.279-0.275c0.113-0.066 0.244-0.118 0.383-0.151l0.010-0.002c0.144-0.035 0.292-0.061 0.442-0.079l0.463-0.054c0.119-0.015 0.205-0.039 0.258-0.072s0.081-0.087 0.081-0.161v-0.015c0-0.18-0.051-0.32-0.153-0.419-0.101-0.099-0.251-0.149-0.451-0.149-0.208 0-0.372 0.046-0.492 0.138-0.118 0.091-0.2 0.193-0.246 0.304l-0.58-0.132c0.069-0.193 0.169-0.348 0.302-0.467 0.133-0.12 0.287-0.207 0.46-0.26 0.174-0.055 0.356-0.083 0.548-0.083 0.127 0 0.261 0.015 0.403 0.045 0.143 0.029 0.277 0.083 0.401 0.161 0.125 0.079 0.228 0.191 0.308 0.337 0.080 0.145 0.12 0.333 0.12 0.564v2.108h-0.604v-0.434h-0.025c-0.040 0.080-0.1 0.158-0.18 0.235s-0.183 0.141-0.308 0.192c-0.125 0.051-0.275 0.076-0.45 0.076zM17.918 29.392c0.171 0 0.317-0.033 0.438-0.101 0.117-0.062 0.211-0.152 0.277-0.261l0.002-0.003c0.065-0.11 0.097-0.228 0.097-0.353v-0.409c-0.022 0.022-0.064 0.043-0.128 0.062-0.062 0.018-0.133 0.034-0.213 0.048-0.080 0.012-0.158 0.024-0.233 0.035-0.076 0.009-0.139 0.018-0.19 0.025-0.12 0.015-0.229 0.041-0.328 0.076-0.098 0.036-0.176 0.087-0.236 0.155-0.058 0.066-0.087 0.155-0.087 0.265 0 0.153 0.057 0.269 0.169 0.347s0.257 0.116 0.432 0.116zM21.625 26.645v0.496h-1.733v-0.496h1.733zM20.356 25.884h0.618v3.002c0 0.12 0.017 0.21 0.053 0.271 0.031 0.055 0.079 0.097 0.136 0.121l0.002 0.001c0.058 0.021 0.121 0.031 0.188 0.031 0.049 0 0.093-0.004 0.13-0.010l0.087-0.017 0.112 0.511c-0.042 0.016-0.093 0.030-0.146 0.040l-0.007 0.001c-0.066 0.015-0.149 0.023-0.248 0.025-0.008 0-0.018 0-0.028 0-0.154 0-0.301-0.032-0.434-0.090l0.007 0.003c-0.141-0.061-0.257-0.157-0.339-0.278l-0.002-0.003c-0.087-0.127-0.13-0.286-0.13-0.477v-3.13zM23.613 29.882c-0.313 0-0.582-0.067-0.808-0.2-0.224-0.137-0.402-0.33-0.517-0.56l-0.004-0.008c-0.121-0.245-0.182-0.532-0.182-0.861 0-0.325 0.060-0.612 0.182-0.86 0.117-0.241 0.292-0.437 0.507-0.577l0.006-0.003c0.22-0.139 0.478-0.209 0.773-0.209 0.179 0 0.353 0.029 0.52 0.089s0.319 0.152 0.453 0.279c0.133 0.127 0.239 0.292 0.316 0.494 0.077 0.201 0.116 0.446 0.116 0.733v0.219h-2.523v-0.463h1.917c0-0.163-0.033-0.307-0.099-0.432s-0.16-0.226-0.276-0.297l-0.003-0.002c-0.119-0.073-0.258-0.11-0.417-0.11-0.173 0-0.325 0.043-0.455 0.128-0.126 0.083-0.227 0.194-0.295 0.326l-0.002 0.005c-0.069 0.135-0.103 0.282-0.103 0.44v0.361c0 0.212 0.037 0.393 0.111 0.541 0.076 0.149 0.181 0.263 0.316 0.341 0.135 0.077 0.293 0.116 0.473 0.116 0.117 0 0.224-0.017 0.32-0.050 0.097-0.034 0.18-0.085 0.25-0.153s0.124-0.151 0.161-0.25l0.585 0.105c-0.047 0.172-0.131 0.323-0.252 0.453-0.124 0.129-0.275 0.231-0.444 0.296l-0.008 0.003c-0.18 0.071-0.387 0.105-0.618 0.105zM26.819 29.88c-0.256 0-0.485-0.065-0.686-0.196-0.2-0.132-0.357-0.32-0.471-0.564-0.113-0.245-0.169-0.539-0.169-0.882s0.057-0.636 0.171-0.88c0.116-0.244 0.274-0.431 0.475-0.56 0.188-0.122 0.418-0.194 0.665-0.194 0.006 0 0.013 0 0.019 0h-0.001c0.197 0 0.356 0.033 0.475 0.099 0.121 0.065 0.215 0.14 0.281 0.227 0.068 0.087 0.12 0.163 0.157 0.229h0.037v-1.572h0.618v4.231h-0.604v-0.494h-0.052c-0.037 0.068-0.091 0.145-0.161 0.231-0.069 0.087-0.164 0.163-0.285 0.227s-0.279 0.097-0.471 0.097zM26.955 29.353c0.178 0 0.328-0.047 0.451-0.14 0.124-0.095 0.217-0.227 0.281-0.395 0.065-0.168 0.097-0.364 0.097-0.587 0-0.22-0.032-0.413-0.095-0.578s-0.156-0.295-0.279-0.387c-0.123-0.092-0.274-0.138-0.455-0.138-0.186 0-0.341 0.048-0.465 0.144s-0.218 0.228-0.281 0.395c-0.062 0.167-0.093 0.355-0.093 0.564 0 0.212 0.032 0.403 0.095 0.572s0.157 0.304 0.281 0.403c0.125 0.098 0.279 0.147 0.463 0.147z"></path>
</symbol>
<symbol id="icon-icon-alcove" viewBox="0 0 26 32">
<path d="M9 2v2h-2v-2h2zM10 14v-2c0-0.552-0.448-1-1-1v0h-2c-0.552 0-1 0.448-1 1v0 2c0 0.552 0.448 1 1 1v0h2c0.552 0 1-0.448 1-1v0zM10 9v-2c0-0.552-0.448-1-1-1v0h-2c-0.552 0-1 0.448-1 1v0 2c0 0.552 0.448 1 1 1v0h2c0.552 0 1-0.448 1-1v0zM10 4v-2c0-0.552-0.448-1-1-1v0h-2c-0.552 0-1 0.448-1 1v0 2c0 0.552 0.448 1 1 1v0h2c0.552 0 1-0.448 1-1v0zM15 14v-2c0-0.552-0.448-1-1-1v0h-2c-0.552 0-1 0.448-1 1v0 2c0 0.552 0.448 1 1 1v0h2c0.552 0 1-0.448 1-1v0zM15 9v-2c0-0.552-0.448-1-1-1v0h-2c-0.552 0-1 0.448-1 1v0 2c0 0.552 0.448 1 1 1v0h2c0.552 0 1-0.448 1-1v0zM15 4v-2c0-0.552-0.448-1-1-1v0h-2c-0.552 0-1 0.448-1 1v0 2c0 0.552 0.448 1 1 1v0h2c0.552 0 1-0.448 1-1v0zM14 2v2h-2v-2h2zM19 2v2h-2v-2h2zM9 7v2h-2v-2h2zM14 7v2h-2v-2h2zM19 7h-2v2h2v-2zM9 12v2h-2v-2h2zM14 12v2h-2v-2h2zM19 12v2h-2v-2h2zM17 1c-0.552 0-1 0.448-1 1v0 2c0 0.552 0.448 1 1 1v0h2c0.552 0 1-0.448 1-1v0-2c0-0.552-0.448-1-1-1v0h-2zM16 7c0-0.552 0.448-1 1-1v0h2c0.552 0 1 0.448 1 1v0 2c0 0.552-0.448 1-1 1v0h-2c-0.552 0-1-0.448-1-1v0-2zM17 11c-0.552 0-1 0.448-1 1v0 2c0 0.552 0.448 1 1 1v0h2c0.552 0 1-0.448 1-1v0-2c0-0.552-0.448-1-1-1v0h-2zM1.29 29h-0.932l2.094-5.818h1.014l2.094 5.818h-0.931l-1.645-4.761h-0.046l-1.647 4.761zM1.446 26.721h3.023v0.738h-3.023v-0.738zM7.141 23.181v5.819h-0.849v-5.818h0.85zM10.082 29.088c-0.422 0-0.786-0.096-1.091-0.287-0.303-0.196-0.542-0.466-0.694-0.787l-0.005-0.012c-0.162-0.339-0.244-0.727-0.244-1.165 0-0.443 0.083-0.834 0.25-1.173 0.159-0.332 0.4-0.603 0.697-0.794l0.008-0.005c0.303-0.192 0.66-0.287 1.071-0.287 0.332 0 0.627 0.061 0.886 0.185 0.259 0.121 0.469 0.291 0.627 0.511 0.161 0.22 0.257 0.477 0.287 0.77h-0.826c-0.046-0.205-0.15-0.381-0.313-0.529-0.161-0.148-0.377-0.221-0.648-0.221-0.006-0-0.014-0-0.021-0-0.225 0-0.433 0.070-0.604 0.19l0.003-0.002c-0.176 0.123-0.313 0.299-0.412 0.529-0.098 0.227-0.148 0.496-0.148 0.806 0 0.319 0.048 0.593 0.145 0.824s0.232 0.41 0.409 0.537c0.178 0.127 0.387 0.19 0.627 0.19 0.161 0 0.307-0.029 0.438-0.087 0.133-0.061 0.243-0.147 0.332-0.259 0.091-0.111 0.155-0.246 0.19-0.403h0.827c-0.028 0.285-0.127 0.543-0.279 0.761l0.003-0.005c-0.157 0.223-0.365 0.401-0.607 0.518l-0.009 0.004c-0.255 0.127-0.556 0.191-0.9 0.191zM14.581 29.088c-0.409 0-0.766-0.093-1.071-0.281-0.306-0.191-0.549-0.459-0.705-0.776l-0.005-0.011c-0.169-0.337-0.253-0.731-0.253-1.182 0-0.453 0.084-0.849 0.253-1.188 0.161-0.33 0.403-0.598 0.702-0.785l0.008-0.005c0.305-0.187 0.662-0.281 1.071-0.281s0.766 0.094 1.071 0.282c0.305 0.188 0.542 0.451 0.71 0.79s0.253 0.735 0.253 1.187c0 0.451-0.084 0.845-0.253 1.182-0.162 0.329-0.404 0.596-0.703 0.782l-0.008 0.005c-0.305 0.188-0.662 0.281-1.071 0.281zM14.584 28.375c0.265 0 0.485-0.070 0.659-0.21s0.303-0.327 0.386-0.56c0.085-0.233 0.127-0.489 0.127-0.77 0-0.278-0.043-0.534-0.127-0.767-0.077-0.227-0.211-0.418-0.385-0.563l-0.002-0.002c-0.175-0.142-0.394-0.213-0.659-0.213-0.267 0-0.489 0.071-0.665 0.213-0.176 0.147-0.31 0.338-0.386 0.556l-0.003 0.009c-0.084 0.233-0.125 0.489-0.125 0.767 0 0.28 0.041 0.537 0.125 0.77 0.085 0.233 0.215 0.42 0.389 0.56 0.176 0.14 0.398 0.21 0.665 0.21zM21.107 24.637l-1.582 4.363h-0.909l-1.585-4.364h0.912l1.105 3.358h0.046l1.102-3.358h0.912zM23.598 29.088c-0.43 0-0.8-0.092-1.111-0.276-0.309-0.188-0.554-0.454-0.711-0.771l-0.005-0.011c-0.166-0.337-0.25-0.732-0.25-1.184 0-0.447 0.084-0.841 0.25-1.181 0.16-0.331 0.401-0.602 0.697-0.794l0.008-0.005c0.302-0.192 0.657-0.287 1.062-0.287 0.247 0 0.485 0.041 0.716 0.122s0.439 0.209 0.622 0.384c0.184 0.174 0.329 0.401 0.435 0.679 0.106 0.276 0.159 0.613 0.159 1.009v0.302h-3.469v-0.637h2.636c0-0.224-0.045-0.421-0.137-0.594-0.089-0.172-0.22-0.311-0.379-0.409l-0.005-0.003c-0.163-0.101-0.354-0.151-0.573-0.151-0.239 0-0.447 0.058-0.625 0.176-0.174 0.114-0.313 0.267-0.406 0.448l-0.003 0.007c-0.095 0.186-0.142 0.387-0.142 0.605v0.497c0 0.292 0.052 0.54 0.154 0.744 0.105 0.205 0.249 0.361 0.435 0.469 0.185 0.106 0.402 0.159 0.65 0.159 0.162 0 0.308-0.023 0.441-0.069 0.133-0.047 0.247-0.117 0.344-0.21s0.17-0.207 0.221-0.344l0.804 0.145c-0.064 0.237-0.18 0.444-0.346 0.622-0.17 0.178-0.378 0.318-0.611 0.408l-0.012 0.004c-0.248 0.097-0.531 0.145-0.849 0.145z"></path>
</symbol>
<symbol id="icon-icon-button-microwave" viewBox="0 0 32 32">
<path stroke-width="2" stroke-miterlimit="4" stroke-linecap="round" stroke-linejoin="round" d="M26.667 5.333h-21.334c-1.472 0-2.666 1.195-2.666 2.667v14.667c0 1.472 1.194 2.666 2.666 2.666h21.334c1.472 0 2.666-1.194 2.666-2.666v-14.667c0-1.472-1.194-2.667-2.666-2.667z"></path>
<path stroke-width="2" stroke-miterlimit="4" stroke-linecap="round" stroke-linejoin="round" d="M17.333 10.667h-8c-0.736 0-1.333 0.597-1.333 1.333v0 6.667c0 0.736 0.597 1.333 1.333 1.333h8c0.736 0 1.334-0.597 1.334-1.333v-6.667c0-0.736-0.597-1.333-1.333-1.333-0.001 0-0.001 0-0.002 0h0zM24 10.667v9.333M8 25.333v2.667M24 25.333v2.667"></path>
</symbol>
<symbol id="icon-icon-button-ac" viewBox="0 0 32 32">
<path d="M25 4c-2.761 0-5 2.239-5 5v0c0 0.552-0.448 1-1 1s-1-0.448-1-1v0c0-3.866 3.134-7 7-7s7 3.134 7 7c0 3.866-3.134 7-7 7v0h-24c-0.552 0-1-0.448-1-1s0.448-1 1-1v0h24c2.761 0 5-2.239 5-5s-2.239-5-5-5v0zM11 6c-1.105 0-2 0.895-2 2v0c0 0.552-0.448 1-1 1s-1-0.448-1-1v0c0-2.209 1.791-4 4-4s4 1.791 4 4c0 2.209-1.791 4-4 4v0h-10c-0.552 0-1-0.448-1-1s0.448-1 1-1v0h10c1.105 0 2-0.895 2-2s-0.895-2-2-2v0zM0 19c0-0.552 0.448-1 1-1v0h20.084c3.314 0 6 2.686 6 6s-2.686 6-6 6c-3.314 0-6-2.686-6-6v0c0-0.552 0.448-1 1-1s1 0.448 1 1v0c0 2.209 1.791 4 4 4s4-1.791 4-4c0-2.209-1.791-4-4-4v0h-20.084c-0.552 0-1-0.448-1-1v0z"></path>
</symbol>
<symbol id="icon-icon-button-automatic" viewBox="0 0 32 32">
<path d="M12 7c0-1.657 1.343-3 3-3v0h2c1.657 0 3 1.343 3 3v0 2c0 1.657-1.343 3-3 3v0 2h11c0.552 0 1 0.448 1 1v0 2c0 0.552-0.448 1-1 1s-1-0.448-1-1v0-1h-10v1c0 0.552-0.448 1-1 1s-1-0.448-1-1v0-1h-10v1c0 0.552-0.448 1-1 1s-1-0.448-1-1v0-2c0-0.552 0.448-1 1-1v0h11v-2c-1.657 0-3-1.343-3-3v0-2zM17 10c0.552 0 1-0.448 1-1v0-2c0-0.552-0.448-1-1-1v0h-2c-0.552 0-1 0.448-1 1v0 2c0 0.552 0.448 1 1 1v0h2zM0 23c0-1.657 1.343-3 3-3v0h2c1.657 0 3 1.343 3 3v0 2c0 1.657-1.343 3-3 3v0h-2c-1.657 0-3-1.343-3-3v0-2zM3 22c-0.552 0-1 0.448-1 1v0 2c0 0.552 0.448 1 1 1v0h2c0.552 0 1-0.448 1-1v0-2c0-0.552-0.448-1-1-1v0h-2zM12 23c0-1.657 1.343-3 3-3v0h2c1.657 0 3 1.343 3 3v0 2c0 1.657-1.343 3-3 3v0h-2c-1.657 0-3-1.343-3-3v0-2zM15 22c-0.552 0-1 0.448-1 1v0 2c0 0.552 0.448 1 1 1v0h2c0.552 0 1-0.448 1-1v0-2c0-0.552-0.448-1-1-1v0h-2zM24 23c0-1.657 1.343-3 3-3v0h2c1.657 0 3 1.343 3 3v0 2c0 1.657-1.343 3-3 3v0h-2c-1.657 0-3-1.343-3-3v0-2zM27 22c-0.552 0-1 0.448-1 1v0 2c0 0.552 0.448 1 1 1v0h2c0.552 0 1-0.448 1-1v0-2c0-0.552-0.448-1-1-1v0h-2z"></path>
</symbol>
<symbol id="icon-icon-button-kitchen" viewBox="0 0 32 32">
<path d="M1 12c-0.552 0.001-0.999 0.449-0.999 1.001 0 0.076 0.009 0.15 0.025 0.222l-0.001-0.007 3.304 14.868c0.514 2.257 2.503 3.915 4.88 3.916h11.584c2.377-0.001 4.366-1.659 4.874-3.882l0.006-0.034 0.262-1.18c0.332 0.065 0.713 0.102 1.103 0.102 3.314 0 6-2.686 6-6 0-2.782-1.893-5.121-4.461-5.801l-0.042-0.009 0.442-1.98c0.015-0.065 0.024-0.139 0.024-0.216 0-0.552-0.448-1-1-1h-26zM26 25c-0.212 0-0.423-0.017-0.632-0.050l1.734-7.796c1.682 0.499 2.889 2.030 2.889 3.844 0 2.206-1.785 3.996-3.99 4.002h-0.001zM5.28 27.65l-3.034-13.65h23.508l-3.034 13.65c-0.308 1.354-1.502 2.35-2.928 2.35h-11.584c-1.426-0-2.62-0.996-2.924-2.33l-0.004-0.020z"></path>
<path d="M8.8 1.6l-0.006 0.008-0.028 0.038c-0.146 0.2-0.282 0.407-0.408 0.62-0.097 0.151-0.191 0.326-0.272 0.508l-0.010 0.026c-0.052 0.12-0.068 0.184-0.074 0.206v0.008c0.025 0.187 0.089 0.355 0.185 0.501l-0.003-0.005c0.15 0.266 0.356 0.544 0.616 0.89l0.020 0.024c0.236 0.316 0.52 0.694 0.74 1.086 0.224 0.4 0.44 0.91 0.44 1.49 0 0.376-0.13 0.736-0.238 0.988-0.132 0.303-0.267 0.558-0.419 0.801l0.015-0.025c-0.181 0.301-0.348 0.551-0.525 0.792l0.019-0.028-0.036 0.050-0.010 0.016-0.004 0.004c-0.184 0.245-0.474 0.401-0.801 0.401-0.552 0-1-0.448-1-1 0-0.226 0.075-0.434 0.201-0.602l-0.002 0.003 0.006-0.008 0.028-0.038c0.146-0.2 0.282-0.407 0.408-0.62 0.097-0.151 0.191-0.326 0.272-0.508l0.010-0.026c0.052-0.12 0.068-0.184 0.074-0.206-0.023-0.189-0.087-0.36-0.183-0.509l0.003 0.005c-0.204-0.339-0.408-0.63-0.63-0.905l0.012 0.015-0.020-0.024c-0.249-0.316-0.494-0.67-0.715-1.040l-0.025-0.046c-0.261-0.425-0.423-0.937-0.44-1.485l-0-0.005c0-0.376 0.13-0.736 0.238-0.988 0.118-0.276 0.268-0.548 0.404-0.776 0.159-0.261 0.328-0.516 0.506-0.764l0.050-0.070c0.184-0.245 0.474-0.401 0.801-0.401 0.552 0 1 0.448 1 1 0 0.226-0.075 0.434-0.201 0.602l0.002-0.003zM14.8 1.6l-0.006 0.008-0.028 0.038c-0.146 0.2-0.282 0.407-0.408 0.62-0.107 0.17-0.202 0.35-0.282 0.534-0.052 0.12-0.068 0.184-0.074 0.206v0.008c0.025 0.187 0.089 0.355 0.185 0.501l-0.003-0.005c0.15 0.266 0.356 0.544 0.616 0.89l0.020 0.024c0.236 0.316 0.52 0.694 0.74 1.086 0.224 0.4 0.44 0.91 0.44 1.49 0 0.376-0.13 0.736-0.238 0.988-0.116 0.268-0.25 0.528-0.404 0.776-0.181 0.301-0.348 0.55-0.525 0.791l0.019-0.027-0.036 0.050-0.010 0.016-0.004 0.004c-0.184 0.245-0.474 0.401-0.801 0.401-0.552 0-1-0.448-1-1 0-0.226 0.075-0.434 0.201-0.602l-0.002 0.003 0.006-0.008 0.028-0.038c0.146-0.2 0.282-0.407 0.408-0.62 0.107-0.17 0.202-0.35 0.282-0.534 0.052-0.12 0.068-0.184 0.074-0.206-0.023-0.189-0.087-0.36-0.183-0.509l0.003 0.005c-0.204-0.339-0.408-0.63-0.63-0.905l0.012 0.015-0.020-0.024c-0.27-0.345-0.517-0.708-0.74-1.086-0.261-0.425-0.423-0.937-0.44-1.485l-0-0.005c0-0.376 0.13-0.736 0.238-0.988 0.118-0.276 0.268-0.548 0.404-0.776 0.159-0.261 0.328-0.516 0.506-0.764l0.050-0.070c0.184-0.245 0.474-0.401 0.801-0.401 0.552 0 1 0.448 1 1 0 0.226-0.075 0.434-0.201 0.602l0.002-0.003zM20.8 1.6l-0.006 0.008-0.028 0.038c-0.145 0.2-0.282 0.407-0.408 0.62-0.107 0.17-0.202 0.35-0.282 0.534-0.052 0.12-0.068 0.184-0.074 0.206v0.008c0.025 0.187 0.089 0.355 0.185 0.501l-0.003-0.005c0.15 0.266 0.356 0.544 0.616 0.89l0.020 0.024c0.236 0.316 0.52 0.694 0.74 1.086 0.224 0.4 0.44 0.91 0.44 1.49 0 0.376-0.13 0.736-0.238 0.988-0.116 0.268-0.25 0.528-0.404 0.776-0.156 0.262-0.324 0.517-0.504 0.764l-0.038 0.050-0.010 0.016-0.004 0.004c-0.184 0.245-0.474 0.401-0.801 0.401-0.552 0-1-0.448-1-1 0-0.226 0.075-0.434 0.201-0.602l-0.002 0.003 0.006-0.008 0.028-0.038c0.145-0.2 0.282-0.407 0.408-0.62 0.107-0.17 0.202-0.35 0.282-0.534 0.052-0.12 0.068-0.184 0.074-0.206-0.023-0.189-0.087-0.36-0.183-0.509l0.003 0.005c-0.204-0.339-0.408-0.63-0.63-0.905l0.012 0.015-0.020-0.024c-0.27-0.345-0.517-0.708-0.74-1.086-0.261-0.425-0.423-0.937-0.44-1.485l-0-0.005c0-0.376 0.13-0.736 0.238-0.988 0.118-0.276 0.268-0.548 0.404-0.776 0.159-0.261 0.328-0.516 0.506-0.764l0.050-0.070c0.184-0.245 0.474-0.401 0.801-0.401 0.552 0 1 0.448 1 1 0 0.226-0.075 0.434-0.201 0.602l0.002-0.003z"></path>
</symbol>
<symbol id="icon-icon-button-bathroom" viewBox="0 0 32 32">
<path d="M8 29.5c0 0.828-0.672 1.5-1.5 1.5s-1.5-0.672-1.5-1.5v0c0-0.828 0.672-1.5 1.5-1.5s1.5 0.672 1.5 1.5v0zM10.5 24c-0.828 0-1.5 0.672-1.5 1.5s0.672 1.5 1.5 1.5v0c0.828 0 1.5-0.672 1.5-1.5s-0.672-1.5-1.5-1.5v0zM2.5 24c-0.828 0-1.5 0.672-1.5 1.5s0.672 1.5 1.5 1.5v0c0.828 0 1.5-0.672 1.5-1.5s-0.672-1.5-1.5-1.5v0zM6.5 20c-0.828 0-1.5 0.672-1.5 1.5s0.672 1.5 1.5 1.5v0c0.828 0 1.5-0.672 1.5-1.5s-0.672-1.5-1.5-1.5v0zM32 5c0 0.552-0.448 1-1 1v0h-3.586l-3.482 3.482-2.707 15.85c-0.165 0.952-0.985 1.667-1.972 1.667-0.552 0-1.052-0.224-1.414-0.585l-12.25-12.25c-0.362-0.362-0.587-0.862-0.587-1.415 0-0.989 0.718-1.81 1.661-1.971l0.012-0.002 15.842-2.708 3.776-3.775c0.181-0.181 0.431-0.293 0.707-0.293h4c0.552 0 1 0.448 1 1v0zM21.776 10.224l-14.776 2.526 12.25 12.25 2.526-14.776z"></path>
</symbol>
<symbol id="icon-icon-button-water" viewBox="0 0 32 32">
<path stroke-width="2" stroke-miterlimit="10" stroke-linecap="butt" stroke-linejoin="miter" d="M25 20c0 5.523-3.477 9-9 9s-9-3.477-9-9c0-5.927 6.452-13.928 8.43-16.243 0.138-0.161 0.342-0.263 0.57-0.263s0.432 0.101 0.569 0.262l0.001 0.001c1.978 2.315 8.43 10.316 8.43 16.243z"></path>
<path stroke-width="2" stroke-miterlimit="4" stroke-linecap="round" stroke-linejoin="round" d="M21.5 20.5c0 2.485-2.015 4.5-4.5 4.5v0"></path>
</symbol>
<symbol id="icon-icon-button-tv" viewBox="0 0 32 32">
<path d="M0 8s0-4 4-4h24s4 0 4 4v12s0 4-4 4h-8c0 1.333 0.167 2.333 0.5 3h1.5c0.552 0 1 0.448 1 1s-0.448 1-1 1v0h-12c-0.552 0-1-0.448-1-1s0.448-1 1-1v0h1.5c0.333-0.667 0.5-1.667 0.5-3h-8s-4 0-4-4v-12zM2.796 6.29c-0.218 0.153-0.391 0.357-0.504 0.595l-0.004 0.009c-0.161 0.329-0.264 0.713-0.288 1.118l-0 0.008v11.98c0 0.65 0.156 1.004 0.29 1.204 0.14 0.208 0.341 0.377 0.604 0.508 0.338 0.162 0.703 0.259 1.076 0.286l0.050 0.002h23.98c0.65 0 1.004-0.156 1.204-0.29 0.218-0.153 0.391-0.357 0.504-0.595l0.004-0.009c0.162-0.338 0.259-0.703 0.286-1.076l0.002-0.050v-11.98c0-0.65-0.156-1.004-0.29-1.204-0.153-0.218-0.357-0.391-0.595-0.504l-0.009-0.004c-0.329-0.161-0.713-0.264-1.118-0.288l-0.008-0h-23.98c-0.65 0-1.004 0.156-1.204 0.29z"></path>
</symbol>
<symbol id="icon-icon-button-radio" viewBox="0 0 32 32">
<path d="M14 5c0-0.552 0.448-1 1-1v0h14c0.552 0 1 0.448 1 1v0 2c0 0.552-0.448 1-1 1v0h-14c-0.552 0-1-0.448-1-1v0-2zM0 24c0-3.314 2.686-6 6-6s6 2.686 6 6v0c0 3.314-2.686 6-6 6s-6-2.686-6-6v0zM14 21c0-0.552 0.448-1 1-1v0h14c0 0 0.001 0 0.002 0 0.551 0 0.998 0.447 0.998 0.998 0 0.001 0 0.001 0 0.002v-0 2c0 0 0 0.001 0 0.002 0 0.551-0.447 0.998-0.998 0.998-0.001 0-0.001 0-0.002 0h-14c-0.552 0-1-0.448-1-1v0-2zM14 11c0-0.552 0.448-1 1-1v0h10c0.552 0 1 0.448 1 1s-0.448 1-1 1v0h-10c-0.552 0-1-0.448-1-1v0zM14 27c0-0.552 0.448-1 1-1v0h10c0.552 0 1 0.448 1 1s-0.448 1-1 1v0h-10c-0.552 0-1-0.448-1-1v0zM6 2c-3.314 0-6 2.686-6 6s2.686 6 6 6v0c3.314 0 6-2.686 6-6s-2.686-6-6-6v0zM6 11c-1.657 0-3-1.343-3-3s1.343-3 3-3v0c1.657 0 3 1.343 3 3s-1.343 3-3 3v0z"></path>
</symbol>
<symbol id="icon-icon-button-petrol" viewBox="0 0 32 32">
<path d="M6 5c0-0.552 0.448-1 1-1v0h10c0.552 0 1 0.448 1 1v0 10c0 0.552-0.448 1-1 1v0h-10c-0.552 0-1-0.448-1-1v0-10z"></path>
<path d="M2 4c0-2.209 1.791-4 4-4v0h12c2.209 0 4 1.791 4 4v0 16c2.209 0 4 1.791 4 4v0 1c0 0.552 0.448 1 1 1s1-0.448 1-1v0-9h-1c-0.552 0-1-0.448-1-1v0-6.25c0-0.552 0.448-1 1-1v0h2.99c-0.022-0.952-0.107-1.789-0.403-2.445-0.163-0.386-0.436-0.7-0.779-0.91l-0.008-0.005c-0.368-0.221-0.928-0.39-1.8-0.39-0.552 0-1-0.448-1-1s0.448-1 1-1v0c1.128-0.003 2.069 0.221 2.824 0.672 0.766 0.456 1.269 1.102 1.587 1.814 0.592 1.31 0.589 2.93 0.589 4.162v6.35c0 0 0 0.001 0 0.002 0 0.552-0.448 1-1 1h-1v9c0 1.657-1.343 3-3 3s-3-1.343-3-3v0-1c0-1.105-0.895-2-2-2v0 8h1c0.552 0 1 0.448 1 1s-0.448 1-1 1v0h-22c-0.552 0-1-0.448-1-1s0.448-1 1-1v0h1v-26zM20 4c0-1.105-0.895-2-2-2v0h-12c-1.105 0-2 0.895-2 2v0 26h16v-26z"></path>
</symbol>
<symbol id="icon-icon-button-refrigerator" viewBox="0 0 26 32">
<path d="M12.88 0.711h-0.16c-2.613 0-4.685 0-6.304 0.218-1.667 0.224-3.017 0.697-4.082 1.76-1.063 1.066-1.536 2.415-1.76 4.082-0.219 1.621-0.219 3.691-0.219 6.304v4.427c0 2.613 0 4.685 0.218 6.304 0.225 1.667 0.698 3.018 1.761 4.082 0.654 0.653 1.413 1.083 2.288 1.37v0.964c0 0.589 0.478 1.067 1.067 1.067v0h1.423c0.589 0 1.067-0.478 1.067-1.067v0-0.42c1.29 0.065 2.795 0.065 4.542 0.065h0.16c1.749 0 3.252 0 4.542-0.065v0.42c0 0.589 0.478 1.067 1.067 1.067v0h1.423c0.589 0 1.067-0.478 1.067-1.067v0-0.964c0.875-0.287 1.635-0.717 2.288-1.37 1.063-1.065 1.536-2.415 1.76-4.081 0.219-1.621 0.219-3.691 0.219-6.305v-4.425c0-2.613 0-4.685-0.218-6.304-0.225-1.667-0.698-3.018-1.761-4.082-1.066-1.065-2.415-1.536-4.082-1.761-1.621-0.218-3.691-0.218-6.304-0.218zM3.843 4.198c0.602-0.602 1.426-0.963 2.857-1.155 1.462-0.195 3.388-0.198 6.1-0.198s4.64 0.002 6.101 0.198c1.429 0.192 2.254 0.554 2.855 1.155s0.963 1.426 1.155 2.858c0.196 1.461 0.199 3.388 0.199 6.099v1.067h-20.623v-1.067c0-2.711 0.003-4.638 0.199-6.101 0.192-1.429 0.554-2.254 1.155-2.855zM2.489 16.355h20.623v1.067c0 2.713-0.003 4.64-0.199 6.101-0.192 1.429-0.554 2.255-1.155 2.857s-1.426 0.962-2.857 1.154c-1.462 0.196-3.388 0.199-6.1 0.199s-4.638-0.003-6.101-0.199c-1.429-0.192-2.254-0.553-2.855-1.154s-0.963-1.427-1.155-2.858c-0.196-1.461-0.199-3.388-0.199-6.1v-1.067z"></path>
</symbol>
<symbol id="icon-icon-button-gas" viewBox="0 0 32 32">
<path stroke-width="2.4" stroke-miterlimit="4" stroke-linecap="round" stroke-linejoin="round" d="M8 25.333h5.333M24 25.345v-0.012M2.667 8c0-4.413 0.92-5.333 5.333-5.333h16c4.413 0 5.333 0.92 5.333 5.333v16c0 4.413-0.92 5.333-5.333 5.333h-16c-4.413 0-5.333-0.92-5.333-5.333v-16z"></path>
<path stroke-width="2.4" stroke-miterlimit="4" stroke-linecap="round" stroke-linejoin="round" d="M16 18.667c2.946 0 5.334-2.388 5.334-5.334s-2.388-5.334-5.334-5.334v0c-2.946 0-5.334 2.388-5.334 5.334s2.388 5.334 5.334 5.334v0zM20.667 13.333h2M16 18v2M11.333 13.333h-2M16 8.667v-2"></path>
</symbol>
</defs> 
</svg>
