<svg xmlns="http://www.w3.org/2000/svg" aria-hidden="true" style="position:absolute;width:0;height:0;overflow:hidden">
  <defs>
    <symbol id="icon-icon-heart" viewBox="0 0 37 32">
      <path d="m18.286 11.968-2.043-4.09c-.507-1.012-1.387-2.469-2.633-3.645-1.225-1.158-2.693-1.947-4.466-1.947-3.831 0-6.857 3.031-6.857 6.674 0 2.769 1.266 4.722 4.27 7.703.821.806 1.675 1.621 2.538 2.425l.081.075c2.533 2.377 5.682 5.333 9.111 9.289 3.429-3.954 6.578-6.914 9.111-9.289.945-.878 1.798-1.693 2.64-2.519l-.021.02c3.003-2.981 4.27-4.936 4.27-7.703 0-3.643-3.026-6.674-6.857-6.674-1.777 0-3.241.789-4.466 1.947-1.246 1.176-2.126 2.633-2.633 3.645l-2.043 4.09zm.896 18.953a1.173 1.173 0 0 1-1.791.002l-.001-.002c-3.66-4.347-6.971-7.456-9.699-10.014C2.972 16.477 0 13.689 0 8.96 0 4.011 4.091 0 9.143 0c3.657 0 6.216 2.4 7.781 4.59a17.27 17.27 0 0 1 1.362 2.267c.396-.789.852-1.547 1.362-2.267C21.213 2.397 23.771 0 27.429 0c5.051 0 9.143 4.011 9.143 8.96 0 4.728-2.971 7.515-7.691 11.947-2.728 2.56-6.039 5.672-9.699 10.014z"/>
    </symbol>
    <symbol id="icon-icon-star-icon" viewBox="0 0 32 32">
<path fill="#ffc531" style="fill: var(--color1, #ffc531)" d="M15.116 1.676c0.375-0.711 1.394-0.711 1.769 0l3.777 7.158c0.145 0.274 0.408 0.466 0.714 0.519l7.975 1.38c0.792 0.137 1.107 1.106 0.547 1.682l-5.641 5.804c-0.216 0.222-0.317 0.532-0.273 0.839l1.152 8.010c0.114 0.796-0.71 1.395-1.431 1.040l-7.263-3.571c-0.278-0.137-0.604-0.137-0.882 0l-7.262 3.571c-0.722 0.355-1.546-0.244-1.431-1.040l1.152-8.010c0.044-0.307-0.057-0.617-0.273-0.839l-5.64-5.804c-0.56-0.577-0.246-1.545 0.547-1.682l7.974-1.38c0.306-0.053 0.569-0.244 0.714-0.519l3.776-7.158z"></path>
</symbol>
<symbol id="icon-icon-AC" viewBox="0 0 16 32">
<path d="M12.5 2c-0.663 0-1.299 0.263-1.768 0.732s-0.732 1.105-0.732 1.768c0 0.133-0.053 0.26-0.146 0.354s-0.221 0.146-0.354 0.146c-0.133 0-0.26-0.053-0.354-0.146s-0.146-0.221-0.146-0.354c0-0.692 0.205-1.369 0.59-1.944s0.931-1.024 1.571-1.289c0.64-0.265 1.343-0.334 2.022-0.199s1.303 0.468 1.792 0.958c0.489 0.49 0.823 1.113 0.958 1.792s0.066 1.383-0.199 2.022c-0.265 0.64-0.714 1.186-1.289 1.571s-1.252 0.59-1.944 0.59h-12c-0.133 0-0.26-0.053-0.354-0.146s-0.146-0.221-0.146-0.354c0-0.133 0.053-0.26 0.146-0.354s0.221-0.146 0.354-0.146h12c0.663 0 1.299-0.263 1.768-0.732s0.732-1.105 0.732-1.768-0.263-1.299-0.732-1.768c-0.469-0.469-1.105-0.732-1.768-0.732zM5.5 3c-0.265 0-0.52 0.105-0.707 0.293s-0.293 0.442-0.293 0.707c0 0.133-0.053 0.26-0.146 0.354s-0.221 0.146-0.354 0.146c-0.133 0-0.26-0.053-0.354-0.146s-0.146-0.221-0.146-0.354c0-0.396 0.117-0.782 0.337-1.111s0.532-0.585 0.898-0.737c0.365-0.151 0.768-0.191 1.156-0.114s0.744 0.268 1.024 0.547 0.47 0.636 0.547 1.024c0.077 0.388 0.038 0.79-0.114 1.156s-0.408 0.678-0.737 0.898-0.716 0.337-1.111 0.337h-5c-0.133 0-0.26-0.053-0.354-0.146s-0.146-0.221-0.146-0.354c0-0.133 0.053-0.26 0.146-0.354s0.221-0.146 0.354-0.146h5c0.265 0 0.52-0.105 0.707-0.293s0.293-0.442 0.293-0.707c0-0.265-0.105-0.52-0.293-0.707s-0.442-0.293-0.707-0.293zM0 9.5c0-0.133 0.053-0.26 0.146-0.354s0.221-0.146 0.354-0.146h10.042c0.593 0 1.173 0.176 1.667 0.506s0.878 0.798 1.105 1.346c0.227 0.548 0.286 1.151 0.171 1.733s-0.401 1.117-0.821 1.536c-0.42 0.42-0.954 0.705-1.536 0.821s-1.185 0.056-1.733-0.171-1.017-0.612-1.346-1.105c-0.33-0.493-0.506-1.073-0.506-1.667 0-0.133 0.053-0.26 0.146-0.354s0.221-0.146 0.354-0.146c0.133 0 0.26 0.053 0.354 0.146s0.146 0.221 0.146 0.354c0 0.396 0.117 0.782 0.337 1.111s0.532 0.585 0.898 0.737c0.365 0.151 0.768 0.191 1.156 0.114s0.744-0.268 1.024-0.547 0.47-0.636 0.547-1.024c0.077-0.388 0.038-0.79-0.114-1.156s-0.408-0.678-0.737-0.898-0.716-0.337-1.111-0.337h-10.042c-0.133 0-0.26-0.053-0.354-0.146s-0.146-0.221-0.146-0.354z"></path>
<path d="M3.545 29h-0.932l2.094-5.818h1.014l2.094 5.818h-0.932l-1.645-4.761h-0.045l-1.648 4.761zM3.701 26.722h3.023v0.739h-3.023v-0.739zM13.174 25.074h-0.886c-0.034-0.189-0.098-0.356-0.19-0.5s-0.206-0.266-0.341-0.366c-0.134-0.1-0.285-0.176-0.452-0.227-0.165-0.051-0.34-0.077-0.526-0.077-0.335 0-0.635 0.084-0.901 0.253-0.263 0.169-0.472 0.416-0.625 0.741-0.152 0.326-0.227 0.723-0.227 1.193 0 0.474 0.076 0.873 0.227 1.199 0.153 0.326 0.363 0.572 0.628 0.739s0.563 0.25 0.895 0.25c0.184 0 0.358-0.025 0.523-0.074 0.167-0.051 0.317-0.126 0.452-0.224s0.248-0.219 0.341-0.361c0.095-0.144 0.16-0.309 0.196-0.494l0.886 0.003c-0.047 0.286-0.139 0.549-0.276 0.79-0.134 0.239-0.308 0.445-0.52 0.619-0.21 0.172-0.451 0.306-0.722 0.401s-0.566 0.142-0.886 0.142c-0.504 0-0.953-0.119-1.347-0.358-0.394-0.241-0.705-0.584-0.932-1.031-0.225-0.447-0.338-0.98-0.338-1.599 0-0.621 0.114-1.154 0.341-1.599 0.227-0.447 0.538-0.79 0.932-1.028 0.394-0.241 0.842-0.361 1.344-0.361 0.309 0 0.597 0.045 0.864 0.134 0.269 0.087 0.51 0.216 0.724 0.386 0.214 0.169 0.391 0.375 0.531 0.619 0.14 0.242 0.235 0.52 0.284 0.832z"></path>
</symbol>
<symbol id="icon-icon-Alcove" viewBox="0 0 26 32">
<path d="M9 2v2h-2v-2h2zM10 14v-2c0-0.265-0.105-0.52-0.293-0.707s-0.442-0.293-0.707-0.293h-2c-0.265 0-0.52 0.105-0.707 0.293s-0.293 0.442-0.293 0.707v2c0 0.265 0.105 0.52 0.293 0.707s0.442 0.293 0.707 0.293h2c0.265 0 0.52-0.105 0.707-0.293s0.293-0.442 0.293-0.707zM10 9v-2c0-0.265-0.105-0.52-0.293-0.707s-0.442-0.293-0.707-0.293h-2c-0.265 0-0.52 0.105-0.707 0.293s-0.293 0.442-0.293 0.707v2c0 0.265 0.105 0.52 0.293 0.707s0.442 0.293 0.707 0.293h2c0.265 0 0.52-0.105 0.707-0.293s0.293-0.442 0.293-0.707zM10 4v-2c0-0.265-0.105-0.52-0.293-0.707s-0.442-0.293-0.707-0.293h-2c-0.265 0-0.52 0.105-0.707 0.293s-0.293 0.442-0.293 0.707v2c0 0.265 0.105 0.52 0.293 0.707s0.442 0.293 0.707 0.293h2c0.265 0 0.52-0.105 0.707-0.293s0.293-0.442 0.293-0.707zM15 14v-2c0-0.265-0.105-0.52-0.293-0.707s-0.442-0.293-0.707-0.293h-2c-0.265 0-0.52 0.105-0.707 0.293s-0.293 0.442-0.293 0.707v2c0 0.265 0.105 0.52 0.293 0.707s0.442 0.293 0.707 0.293h2c0.265 0 0.52-0.105 0.707-0.293s0.293-0.442 0.293-0.707zM15 9v-2c0-0.265-0.105-0.52-0.293-0.707s-0.442-0.293-0.707-0.293h-2c-0.265 0-0.52 0.105-0.707 0.293s-0.293 0.442-0.293 0.707v2c0 0.265 0.105 0.52 0.293 0.707s0.442 0.293 0.707 0.293h2c0.265 0 0.52-0.105 0.707-0.293s0.293-0.442 0.293-0.707zM15 4v-2c0-0.265-0.105-0.52-0.293-0.707s-0.442-0.293-0.707-0.293h-2c-0.265 0-0.52 0.105-0.707 0.293s-0.293 0.442-0.293 0.707v2c0 0.265 0.105 0.52 0.293 0.707s0.442 0.293 0.707 0.293h2c0.265 0 0.52-0.105 0.707-0.293s0.293-0.442 0.293-0.707zM14 2v2h-2v-2h2zM19 2v2h-2v-2h2zM9 7v2h-2v-2h2zM14 7v2h-2v-2h2zM19 7h-2v2h2v-2zM9 12v2h-2v-2h2zM14 12v2h-2v-2h2zM19 12v2h-2v-2h2zM17 1c-0.265 0-0.52 0.105-0.707 0.293s-0.293 0.442-0.293 0.707v2c0 0.265 0.105 0.52 0.293 0.707s0.442 0.293 0.707 0.293h2c0.265 0 0.52-0.105 0.707-0.293s0.293-0.442 0.293-0.707v-2c0-0.265-0.105-0.52-0.293-0.707s-0.442-0.293-0.707-0.293h-2zM16 7c0-0.265 0.105-0.52 0.293-0.707s0.442-0.293 0.707-0.293h2c0.265 0 0.52 0.105 0.707 0.293s0.293 0.442 0.293 0.707v2c0 0.265-0.105 0.52-0.293 0.707s-0.442 0.293-0.707 0.293h-2c-0.265 0-0.52-0.105-0.707-0.293s-0.293-0.442-0.293-0.707v-2zM17 11c-0.265 0-0.52 0.105-0.707 0.293s-0.293 0.442-0.293 0.707v2c0 0.265 0.105 0.52 0.293 0.707s0.442 0.293 0.707 0.293h2c0.265 0 0.52-0.105 0.707-0.293s0.293-0.442 0.293-0.707v-2c0-0.265-0.105-0.52-0.293-0.707s-0.442-0.293-0.707-0.293h-2z"></path>
<path d="M1.289 29h-0.932l2.094-5.818h1.014l2.094 5.818h-0.932l-1.645-4.761h-0.045l-1.648 4.761zM1.446 26.722h3.023v0.739h-3.023v-0.739zM7.141 23.182v5.818h-0.849v-5.818h0.849zM10.081 29.088c-0.422 0-0.786-0.096-1.091-0.287-0.303-0.193-0.536-0.459-0.699-0.798s-0.244-0.727-0.244-1.165c0-0.443 0.083-0.834 0.25-1.173 0.167-0.341 0.402-0.607 0.705-0.798s0.66-0.287 1.071-0.287c0.331 0 0.627 0.062 0.886 0.185 0.259 0.121 0.469 0.292 0.628 0.511 0.161 0.22 0.257 0.476 0.287 0.77h-0.827c-0.045-0.205-0.15-0.381-0.313-0.528-0.161-0.148-0.377-0.222-0.648-0.222-0.237 0-0.444 0.063-0.622 0.188-0.176 0.123-0.313 0.299-0.412 0.528-0.098 0.227-0.148 0.496-0.148 0.807 0 0.318 0.048 0.593 0.145 0.824s0.233 0.41 0.409 0.537c0.178 0.127 0.387 0.19 0.628 0.19 0.161 0 0.307-0.029 0.438-0.088 0.133-0.061 0.243-0.147 0.332-0.259 0.091-0.112 0.154-0.246 0.19-0.403h0.827c-0.030 0.282-0.122 0.534-0.276 0.756s-0.359 0.396-0.617 0.523c-0.256 0.127-0.556 0.19-0.901 0.19zM14.581 29.088c-0.409 0-0.766-0.094-1.071-0.281s-0.542-0.45-0.71-0.787c-0.169-0.337-0.253-0.731-0.253-1.182 0-0.453 0.084-0.848 0.253-1.188s0.405-0.602 0.71-0.79c0.305-0.188 0.662-0.281 1.071-0.281s0.766 0.094 1.071 0.281c0.305 0.188 0.542 0.451 0.71 0.79s0.253 0.735 0.253 1.188c0 0.451-0.084 0.845-0.253 1.182s-0.405 0.599-0.71 0.787c-0.305 0.188-0.662 0.281-1.071 0.281zM14.583 28.375c0.265 0 0.485-0.070 0.659-0.21s0.303-0.327 0.386-0.56c0.085-0.233 0.128-0.49 0.128-0.77 0-0.278-0.043-0.534-0.128-0.767-0.083-0.235-0.212-0.423-0.386-0.565s-0.394-0.213-0.659-0.213c-0.267 0-0.489 0.071-0.665 0.213-0.174 0.142-0.304 0.331-0.389 0.565-0.083 0.233-0.125 0.489-0.125 0.767 0 0.28 0.042 0.537 0.125 0.77 0.085 0.233 0.215 0.419 0.389 0.56 0.176 0.14 0.398 0.21 0.665 0.21zM21.107 24.636l-1.582 4.364h-0.909l-1.585-4.364h0.912l1.105 3.358h0.045l1.102-3.358h0.912zM23.598 29.088c-0.43 0-0.8-0.092-1.111-0.276-0.309-0.186-0.547-0.446-0.716-0.781-0.167-0.337-0.25-0.732-0.25-1.185 0-0.447 0.083-0.841 0.25-1.182 0.169-0.341 0.403-0.607 0.705-0.798 0.303-0.191 0.657-0.287 1.063-0.287 0.246 0 0.485 0.041 0.716 0.122s0.438 0.209 0.622 0.384c0.184 0.174 0.329 0.401 0.435 0.679 0.106 0.276 0.159 0.613 0.159 1.009v0.301h-3.469v-0.636h2.636c0-0.224-0.045-0.421-0.136-0.594-0.091-0.174-0.219-0.312-0.384-0.412-0.163-0.1-0.354-0.151-0.574-0.151-0.239 0-0.447 0.059-0.625 0.176-0.176 0.116-0.313 0.267-0.409 0.455-0.095 0.186-0.142 0.387-0.142 0.605v0.497c0 0.292 0.051 0.54 0.153 0.744 0.104 0.205 0.249 0.361 0.435 0.469 0.186 0.106 0.402 0.159 0.651 0.159 0.161 0 0.308-0.023 0.44-0.068 0.133-0.047 0.247-0.117 0.344-0.21s0.17-0.207 0.222-0.344l0.804 0.145c-0.064 0.237-0.18 0.444-0.347 0.622-0.165 0.176-0.372 0.313-0.622 0.412-0.248 0.097-0.531 0.145-0.849 0.145z"></path>
</symbol>
<symbol id="icon-icon-automatic" viewBox="0 0 39 32">
<path d="M17.5 3.5c0-0.398 0.158-0.779 0.439-1.061s0.663-0.439 1.061-0.439h1c0.398 0 0.779 0.158 1.061 0.439s0.439 0.663 0.439 1.061v1c0 0.398-0.158 0.779-0.439 1.061s-0.663 0.439-1.061 0.439v1h5.5c0.133 0 0.26 0.053 0.354 0.146s0.146 0.221 0.146 0.354v1c0 0.133-0.053 0.26-0.146 0.354s-0.221 0.146-0.354 0.146c-0.133 0-0.26-0.053-0.354-0.146s-0.146-0.221-0.146-0.354v-0.5h-5v0.5c0 0.133-0.053 0.26-0.146 0.354s-0.221 0.146-0.354 0.146c-0.133 0-0.26-0.053-0.354-0.146s-0.146-0.221-0.146-0.354v-0.5h-5v0.5c0 0.133-0.053 0.26-0.146 0.354s-0.221 0.146-0.354 0.146c-0.133 0-0.26-0.053-0.354-0.146s-0.146-0.221-0.146-0.354v-1c0-0.133 0.053-0.26 0.146-0.354s0.221-0.146 0.354-0.146h5.5v-1c-0.398 0-0.779-0.158-1.061-0.439s-0.439-0.663-0.439-1.061v-1zM20 5c0.133 0 0.26-0.053 0.354-0.146s0.146-0.221 0.146-0.354v-1c0-0.133-0.053-0.26-0.146-0.354s-0.221-0.146-0.354-0.146h-1c-0.133 0-0.26 0.053-0.354 0.146s-0.146 0.221-0.146 0.354v1c0 0.133 0.053 0.26 0.146 0.354s0.221 0.146 0.354 0.146h1zM11.5 11.5c0-0.398 0.158-0.779 0.439-1.061s0.663-0.439 1.061-0.439h1c0.398 0 0.779 0.158 1.061 0.439s0.439 0.663 0.439 1.061v1c0 0.398-0.158 0.779-0.439 1.061s-0.663 0.439-1.061 0.439h-1c-0.398 0-0.779-0.158-1.061-0.439s-0.439-0.663-0.439-1.061v-1zM13 11c-0.133 0-0.26 0.053-0.354 0.146s-0.146 0.221-0.146 0.354v1c0 0.133 0.053 0.26 0.146 0.354s0.221 0.146 0.354 0.146h1c0.133 0 0.26-0.053 0.354-0.146s0.146-0.221 0.146-0.354v-1c0-0.133-0.053-0.26-0.146-0.354s-0.221-0.146-0.354-0.146h-1zM17.5 11.5c0-0.398 0.158-0.779 0.439-1.061s0.663-0.439 1.061-0.439h1c0.398 0 0.779 0.158 1.061 0.439s0.439 0.663 0.439 1.061v1c0 0.398-0.158 0.779-0.439 1.061s-0.663 0.439-1.061 0.439h-1c-0.398 0-0.779-0.158-1.061-0.439s-0.439-0.663-0.439-1.061v-1zM19 11c-0.133 0-0.26 0.053-0.354 0.146s-0.146 0.221-0.146 0.354v1c0 0.133 0.053 0.26 0.146 0.354s0.221 0.146 0.354 0.146h1c0.133 0 0.26-0.053 0.354-0.146s0.146-0.221 0.146-0.354v-1c0-0.133-0.053-0.26-0.146-0.354s-0.221-0.146-0.354-0.146h-1zM23.5 11.5c0-0.398 0.158-0.779 0.439-1.061s0.663-0.439 1.061-0.439h1c0.398 0 0.779 0.158 1.061 0.439s0.439 0.663 0.439 1.061v1c0 0.398-0.158 0.779-0.439 1.061s-0.663 0.439-1.061 0.439h-1c-0.398 0-0.779-0.158-1.061-0.439s-0.439-0.663-0.439-1.061v-1zM25 11c-0.133 0-0.26 0.053-0.354 0.146s-0.146 0.221-0.146 0.354v1c0 0.133 0.053 0.26 0.146 0.354s0.221 0.146 0.354 0.146h1c0.133 0 0.26-0.053 0.354-0.146s0.146-0.221 0.146-0.354v-1c0-0.133-0.053-0.26-0.146-0.354s-0.221-0.146-0.354-0.146h-1z"></path>
<path d="M1.17 29h-0.932l2.094-5.818h1.014l2.094 5.818h-0.932l-1.645-4.761h-0.045l-1.648 4.761zM1.326 26.722h3.023v0.739h-3.023v-0.739zM8.936 27.19v-2.554h0.852v4.364h-0.835v-0.756h-0.045c-0.1 0.233-0.261 0.427-0.483 0.582-0.22 0.153-0.493 0.23-0.821 0.23-0.28 0-0.528-0.062-0.744-0.185-0.214-0.125-0.383-0.31-0.506-0.554-0.121-0.244-0.182-0.546-0.182-0.906v-2.776h0.849v2.673c0 0.297 0.082 0.534 0.247 0.71s0.379 0.264 0.642 0.264c0.159 0 0.317-0.040 0.474-0.119 0.159-0.079 0.291-0.2 0.395-0.361 0.106-0.161 0.158-0.366 0.156-0.614zM12.926 24.636v0.682h-2.384v-0.682h2.384zM11.182 23.591h0.849v4.128c0 0.165 0.025 0.289 0.074 0.372 0.049 0.081 0.113 0.137 0.19 0.168 0.080 0.028 0.166 0.043 0.259 0.043 0.068 0 0.128-0.005 0.179-0.014s0.091-0.017 0.119-0.023l0.153 0.702c-0.049 0.019-0.119 0.038-0.21 0.057-0.091 0.021-0.205 0.032-0.341 0.034-0.223 0.004-0.432-0.036-0.625-0.119s-0.349-0.212-0.469-0.386c-0.119-0.174-0.179-0.393-0.179-0.656v-4.304zM15.617 29.088c-0.409 0-0.766-0.094-1.071-0.281s-0.542-0.45-0.71-0.787c-0.169-0.337-0.253-0.731-0.253-1.182 0-0.453 0.084-0.848 0.253-1.188s0.405-0.602 0.71-0.79c0.305-0.188 0.662-0.281 1.071-0.281s0.766 0.094 1.071 0.281c0.305 0.188 0.542 0.451 0.71 0.79s0.253 0.735 0.253 1.188c0 0.451-0.084 0.845-0.253 1.182s-0.405 0.599-0.71 0.787c-0.305 0.188-0.662 0.281-1.071 0.281zM15.62 28.375c0.265 0 0.485-0.070 0.659-0.21s0.303-0.327 0.386-0.56c0.085-0.233 0.128-0.49 0.128-0.77 0-0.278-0.043-0.534-0.128-0.767-0.083-0.235-0.212-0.423-0.386-0.565s-0.394-0.213-0.659-0.213c-0.267 0-0.489 0.071-0.665 0.213-0.174 0.142-0.304 0.331-0.389 0.565-0.083 0.233-0.125 0.489-0.125 0.767 0 0.28 0.042 0.537 0.125 0.77 0.085 0.233 0.215 0.419 0.389 0.56 0.176 0.14 0.398 0.21 0.665 0.21zM18.559 29v-4.364h0.815v0.71h0.054c0.091-0.241 0.24-0.428 0.446-0.563 0.206-0.136 0.454-0.205 0.741-0.205 0.292 0 0.536 0.068 0.733 0.205 0.199 0.136 0.346 0.324 0.44 0.563h0.045c0.104-0.233 0.27-0.419 0.497-0.557 0.227-0.14 0.498-0.21 0.813-0.21 0.396 0 0.719 0.124 0.969 0.372 0.252 0.248 0.378 0.622 0.378 1.122v2.926h-0.849v-2.847c0-0.295-0.081-0.509-0.241-0.642s-0.353-0.199-0.577-0.199c-0.276 0-0.491 0.085-0.645 0.256-0.153 0.169-0.23 0.385-0.23 0.651v2.781h-0.847v-2.901c0-0.237-0.074-0.427-0.222-0.571s-0.34-0.216-0.577-0.216c-0.161 0-0.31 0.043-0.446 0.128-0.134 0.083-0.243 0.2-0.327 0.349-0.081 0.15-0.122 0.323-0.122 0.52v2.69h-0.849zM26.86 29.097c-0.276 0-0.526-0.051-0.75-0.153-0.224-0.104-0.401-0.255-0.531-0.452-0.129-0.197-0.193-0.438-0.193-0.724 0-0.246 0.047-0.449 0.142-0.608s0.223-0.285 0.384-0.378c0.161-0.093 0.341-0.163 0.54-0.21s0.402-0.083 0.608-0.108c0.261-0.030 0.474-0.055 0.636-0.074 0.163-0.021 0.281-0.054 0.355-0.099s0.111-0.119 0.111-0.222v-0.020c0-0.248-0.070-0.44-0.21-0.577-0.138-0.136-0.345-0.205-0.619-0.205-0.286 0-0.511 0.063-0.676 0.19-0.163 0.125-0.276 0.264-0.338 0.418l-0.798-0.182c0.095-0.265 0.233-0.479 0.415-0.642 0.184-0.165 0.395-0.284 0.634-0.358 0.239-0.076 0.49-0.114 0.753-0.114 0.174 0 0.359 0.021 0.554 0.063 0.197 0.040 0.381 0.114 0.551 0.222 0.172 0.108 0.313 0.262 0.423 0.463 0.11 0.199 0.165 0.457 0.165 0.776v2.898h-0.83v-0.597h-0.034c-0.055 0.11-0.137 0.218-0.247 0.324s-0.251 0.194-0.423 0.264c-0.172 0.070-0.379 0.105-0.619 0.105zM27.044 28.415c0.235 0 0.436-0.046 0.602-0.139 0.169-0.093 0.296-0.214 0.384-0.364 0.089-0.152 0.134-0.313 0.134-0.486v-0.563c-0.030 0.030-0.089 0.059-0.176 0.085-0.085 0.025-0.183 0.046-0.293 0.065-0.11 0.017-0.217 0.033-0.321 0.048-0.104 0.013-0.191 0.025-0.261 0.034-0.165 0.021-0.315 0.056-0.452 0.105-0.134 0.049-0.242 0.12-0.324 0.213-0.079 0.091-0.119 0.212-0.119 0.364 0 0.21 0.078 0.369 0.233 0.477 0.155 0.106 0.353 0.159 0.594 0.159zM32.141 24.636v0.682h-2.384v-0.682h2.384zM30.397 23.591h0.849v4.128c0 0.165 0.025 0.289 0.074 0.372 0.049 0.081 0.113 0.137 0.19 0.168 0.080 0.028 0.166 0.043 0.259 0.043 0.068 0 0.128-0.005 0.179-0.014s0.091-0.017 0.119-0.023l0.153 0.702c-0.049 0.019-0.119 0.038-0.21 0.057-0.091 0.021-0.205 0.032-0.341 0.034-0.224 0.004-0.432-0.036-0.625-0.119s-0.349-0.212-0.469-0.386c-0.119-0.174-0.179-0.393-0.179-0.656v-4.304zM33.041 29v-4.364h0.849v4.364h-0.849zM33.47 23.963c-0.148 0-0.275-0.049-0.381-0.148-0.104-0.1-0.156-0.22-0.156-0.358 0-0.14 0.052-0.259 0.156-0.358 0.106-0.1 0.233-0.151 0.381-0.151s0.274 0.050 0.378 0.151c0.106 0.098 0.159 0.218 0.159 0.358 0 0.138-0.053 0.258-0.159 0.358-0.104 0.099-0.23 0.148-0.378 0.148zM36.831 29.088c-0.422 0-0.786-0.096-1.091-0.287-0.303-0.193-0.536-0.459-0.699-0.798s-0.244-0.727-0.244-1.165c0-0.443 0.083-0.834 0.25-1.173 0.167-0.341 0.401-0.607 0.705-0.798s0.66-0.287 1.071-0.287c0.331 0 0.627 0.062 0.886 0.185 0.26 0.121 0.469 0.292 0.628 0.511 0.161 0.22 0.257 0.476 0.287 0.77h-0.827c-0.045-0.205-0.15-0.381-0.313-0.528-0.161-0.148-0.377-0.222-0.648-0.222-0.237 0-0.444 0.063-0.622 0.188-0.176 0.123-0.313 0.299-0.412 0.528-0.098 0.227-0.148 0.496-0.148 0.807 0 0.318 0.048 0.593 0.145 0.824s0.233 0.41 0.409 0.537c0.178 0.127 0.387 0.19 0.628 0.19 0.161 0 0.307-0.029 0.438-0.088 0.133-0.061 0.243-0.147 0.332-0.259 0.091-0.112 0.154-0.246 0.19-0.403h0.827c-0.030 0.282-0.122 0.534-0.276 0.756s-0.359 0.396-0.616 0.523c-0.256 0.127-0.556 0.19-0.901 0.19z"></path>
</symbol>
<symbol id="icon-icon-bathroom" viewBox="0 0 38 32">
<path d="M15 14.75c0 0.148-0.044 0.293-0.126 0.417s-0.2 0.219-0.337 0.276-0.288 0.072-0.433 0.043c-0.146-0.029-0.279-0.1-0.384-0.205s-0.176-0.239-0.205-0.384c-0.029-0.145-0.014-0.296 0.043-0.433s0.153-0.254 0.276-0.337c0.123-0.082 0.268-0.126 0.417-0.126 0.199 0 0.39 0.079 0.53 0.22s0.22 0.331 0.22 0.53zM16.25 12c-0.148 0-0.293 0.044-0.417 0.126s-0.219 0.2-0.276 0.337-0.072 0.288-0.043 0.433c0.029 0.146 0.1 0.279 0.205 0.384s0.239 0.176 0.384 0.205c0.145 0.029 0.296 0.014 0.433-0.043s0.254-0.153 0.337-0.276c0.082-0.123 0.126-0.268 0.126-0.417 0-0.199-0.079-0.39-0.22-0.53s-0.331-0.22-0.53-0.22zM12.25 12c-0.148 0-0.293 0.044-0.417 0.126s-0.219 0.2-0.276 0.337c-0.057 0.137-0.072 0.288-0.043 0.433s0.1 0.279 0.205 0.384c0.105 0.105 0.239 0.176 0.384 0.205s0.296 0.014 0.433-0.043 0.254-0.153 0.337-0.276c0.082-0.123 0.126-0.268 0.126-0.417 0-0.199-0.079-0.39-0.22-0.53s-0.331-0.22-0.53-0.22zM14.25 10c-0.148 0-0.293 0.044-0.417 0.126s-0.219 0.2-0.276 0.337c-0.057 0.137-0.072 0.288-0.043 0.433s0.1 0.279 0.205 0.384c0.105 0.105 0.239 0.176 0.384 0.205s0.296 0.014 0.433-0.043 0.254-0.153 0.337-0.276c0.082-0.123 0.126-0.268 0.126-0.417 0-0.199-0.079-0.39-0.22-0.53s-0.331-0.22-0.53-0.22zM27 2.5c0 0.133-0.053 0.26-0.146 0.354s-0.221 0.146-0.354 0.146h-1.793l-1.741 1.741-1.354 7.924c-0.030 0.181-0.11 0.35-0.23 0.489s-0.276 0.242-0.451 0.298c-0.175 0.056-0.362 0.063-0.54 0.019s-0.341-0.135-0.471-0.265l-6.125-6.125c-0.13-0.13-0.222-0.293-0.265-0.472s-0.037-0.366 0.020-0.541c0.056-0.175 0.159-0.331 0.299-0.451s0.309-0.2 0.49-0.23l7.921-1.354 1.887-1.888c0.046-0.046 0.102-0.083 0.162-0.108s0.126-0.038 0.191-0.038h2c0.133 0 0.26 0.053 0.354 0.146s0.146 0.221 0.146 0.354zM21.888 5.112l-7.388 1.263 6.125 6.125 1.263-7.388z"></path>
<path d="M1.131 29v-5.818h2.131c0.413 0 0.755 0.068 1.026 0.205 0.271 0.134 0.473 0.317 0.608 0.548 0.134 0.229 0.202 0.488 0.202 0.776 0 0.242-0.045 0.447-0.134 0.614-0.089 0.165-0.208 0.297-0.358 0.398-0.148 0.099-0.311 0.17-0.489 0.216v0.057c0.193 0.009 0.382 0.072 0.565 0.188 0.186 0.114 0.339 0.276 0.46 0.486s0.182 0.466 0.182 0.767c0 0.297-0.070 0.564-0.21 0.801-0.138 0.235-0.352 0.421-0.642 0.56-0.29 0.136-0.66 0.205-1.111 0.205h-2.23zM2.009 28.247h1.267c0.42 0 0.722-0.081 0.903-0.244s0.273-0.366 0.273-0.611c0-0.184-0.046-0.352-0.139-0.506s-0.225-0.276-0.398-0.366c-0.17-0.091-0.373-0.136-0.608-0.136h-1.298v1.864zM2.009 25.699h1.176c0.197 0 0.374-0.038 0.531-0.114 0.159-0.076 0.285-0.182 0.378-0.318 0.095-0.138 0.142-0.301 0.142-0.489 0-0.241-0.084-0.442-0.253-0.605s-0.427-0.244-0.776-0.244h-1.199v1.77zM7.527 29.097c-0.277 0-0.526-0.051-0.75-0.153-0.223-0.104-0.401-0.255-0.531-0.452-0.129-0.197-0.193-0.438-0.193-0.724 0-0.246 0.047-0.449 0.142-0.608s0.223-0.285 0.384-0.378c0.161-0.093 0.341-0.163 0.54-0.21s0.402-0.083 0.608-0.108c0.261-0.030 0.473-0.055 0.636-0.074 0.163-0.021 0.281-0.054 0.355-0.099s0.111-0.119 0.111-0.222v-0.020c0-0.248-0.070-0.44-0.21-0.577-0.138-0.136-0.345-0.205-0.619-0.205-0.286 0-0.511 0.063-0.676 0.19-0.163 0.125-0.276 0.264-0.338 0.418l-0.798-0.182c0.095-0.265 0.233-0.479 0.415-0.642 0.184-0.165 0.395-0.284 0.634-0.358 0.239-0.076 0.49-0.114 0.753-0.114 0.174 0 0.359 0.021 0.554 0.063 0.197 0.040 0.381 0.114 0.551 0.222 0.172 0.108 0.313 0.262 0.423 0.463 0.11 0.199 0.165 0.457 0.165 0.776v2.898h-0.83v-0.597h-0.034c-0.055 0.11-0.137 0.218-0.247 0.324s-0.251 0.194-0.423 0.264c-0.172 0.070-0.379 0.105-0.619 0.105zM7.712 28.415c0.235 0 0.436-0.046 0.602-0.139 0.169-0.093 0.296-0.214 0.383-0.364 0.089-0.152 0.133-0.313 0.133-0.486v-0.563c-0.030 0.030-0.089 0.059-0.176 0.085-0.085 0.025-0.183 0.046-0.293 0.065-0.11 0.017-0.217 0.033-0.321 0.048-0.104 0.013-0.191 0.025-0.261 0.034-0.165 0.021-0.315 0.056-0.452 0.105-0.135 0.049-0.242 0.12-0.324 0.213-0.080 0.091-0.119 0.212-0.119 0.364 0 0.21 0.078 0.369 0.233 0.477 0.155 0.106 0.353 0.159 0.594 0.159zM12.809 24.636v0.682h-2.384v-0.682h2.384zM11.064 23.591h0.849v4.128c0 0.165 0.025 0.289 0.074 0.372 0.049 0.081 0.113 0.137 0.19 0.168 0.080 0.028 0.166 0.043 0.258 0.043 0.068 0 0.128-0.005 0.179-0.014s0.091-0.017 0.119-0.023l0.153 0.702c-0.049 0.019-0.119 0.038-0.21 0.057-0.091 0.021-0.205 0.032-0.341 0.034-0.223 0.004-0.432-0.036-0.625-0.119s-0.349-0.212-0.469-0.386c-0.119-0.174-0.179-0.393-0.179-0.656v-4.304zM14.651 26.409v2.591h-0.849v-5.818h0.838v2.165h0.054c0.102-0.235 0.259-0.421 0.469-0.56s0.485-0.207 0.824-0.207c0.299 0 0.561 0.062 0.784 0.185 0.225 0.123 0.4 0.307 0.523 0.551 0.125 0.242 0.188 0.545 0.188 0.909v2.776h-0.849v-2.673c0-0.32-0.082-0.568-0.247-0.744-0.165-0.178-0.394-0.267-0.688-0.267-0.201 0-0.381 0.043-0.54 0.128-0.157 0.085-0.281 0.21-0.372 0.375-0.089 0.163-0.133 0.36-0.133 0.591zM18.574 29v-4.364h0.821v0.693h0.045c0.080-0.235 0.22-0.419 0.42-0.554 0.203-0.136 0.432-0.205 0.688-0.205 0.053 0 0.116 0.002 0.188 0.006 0.074 0.004 0.132 0.009 0.173 0.014v0.813c-0.034-0.009-0.095-0.020-0.182-0.031-0.087-0.013-0.174-0.020-0.261-0.020-0.201 0-0.38 0.043-0.537 0.128-0.155 0.083-0.278 0.2-0.369 0.349-0.091 0.148-0.136 0.316-0.136 0.506v2.665h-0.849zM23.287 29.088c-0.409 0-0.766-0.094-1.071-0.281s-0.542-0.45-0.71-0.787c-0.169-0.337-0.253-0.731-0.253-1.182 0-0.453 0.084-0.848 0.253-1.188s0.405-0.602 0.71-0.79c0.305-0.188 0.662-0.281 1.071-0.281s0.766 0.094 1.071 0.281c0.305 0.188 0.542 0.451 0.71 0.79s0.253 0.735 0.253 1.188c0 0.451-0.084 0.845-0.253 1.182s-0.405 0.599-0.71 0.787c-0.305 0.188-0.662 0.281-1.071 0.281zM23.289 28.375c0.265 0 0.485-0.070 0.659-0.21s0.303-0.327 0.386-0.56c0.085-0.233 0.128-0.49 0.128-0.77 0-0.278-0.043-0.534-0.128-0.767-0.083-0.235-0.212-0.423-0.386-0.565s-0.394-0.213-0.659-0.213c-0.267 0-0.489 0.071-0.665 0.213-0.174 0.142-0.304 0.331-0.389 0.565-0.083 0.233-0.125 0.489-0.125 0.767 0 0.28 0.042 0.537 0.125 0.77 0.085 0.233 0.215 0.419 0.389 0.56 0.176 0.14 0.398 0.21 0.665 0.21zM28.067 29.088c-0.409 0-0.766-0.094-1.071-0.281s-0.542-0.45-0.71-0.787c-0.169-0.337-0.253-0.731-0.253-1.182 0-0.453 0.084-0.848 0.253-1.188s0.405-0.602 0.71-0.79c0.305-0.188 0.662-0.281 1.071-0.281s0.766 0.094 1.071 0.281c0.305 0.188 0.542 0.451 0.71 0.79s0.253 0.735 0.253 1.188c0 0.451-0.084 0.845-0.253 1.182s-0.405 0.599-0.71 0.787c-0.305 0.188-0.662 0.281-1.071 0.281zM28.070 28.375c0.265 0 0.485-0.070 0.659-0.21s0.303-0.327 0.386-0.56c0.085-0.233 0.128-0.49 0.128-0.77 0-0.278-0.043-0.534-0.128-0.767-0.083-0.235-0.212-0.423-0.386-0.565s-0.394-0.213-0.659-0.213c-0.267 0-0.489 0.071-0.665 0.213-0.174 0.142-0.304 0.331-0.389 0.565-0.083 0.233-0.125 0.489-0.125 0.767 0 0.28 0.042 0.537 0.125 0.77 0.085 0.233 0.215 0.419 0.389 0.56 0.176 0.14 0.398 0.21 0.665 0.21zM31.009 29v-4.364h0.815v0.71h0.054c0.091-0.241 0.24-0.428 0.446-0.563 0.206-0.136 0.454-0.205 0.741-0.205 0.292 0 0.536 0.068 0.733 0.205 0.199 0.136 0.346 0.324 0.44 0.563h0.045c0.104-0.233 0.27-0.419 0.497-0.557 0.227-0.14 0.498-0.21 0.813-0.21 0.396 0 0.719 0.124 0.969 0.372 0.252 0.248 0.378 0.622 0.378 1.122v2.926h-0.849v-2.847c0-0.295-0.081-0.509-0.242-0.642s-0.353-0.199-0.577-0.199c-0.276 0-0.492 0.085-0.645 0.256-0.153 0.169-0.23 0.385-0.23 0.651v2.781h-0.847v-2.901c0-0.237-0.074-0.427-0.222-0.571s-0.34-0.216-0.577-0.216c-0.161 0-0.31 0.043-0.446 0.128-0.135 0.083-0.243 0.2-0.327 0.349-0.081 0.15-0.122 0.323-0.122 0.52v2.69h-0.849z"></path>
</symbol>
<symbol id="icon-icon-fully" viewBox="0 0 29 32">
<path d="M9.455 1.818c0-0.289 0.115-0.567 0.32-0.771s0.482-0.32 0.771-0.32h2.182c0.289 0 0.567 0.115 0.771 0.32s0.32 0.482 0.32 0.771v2.182c0 0.289-0.115 0.567-0.32 0.771s-0.482 0.32-0.771 0.32h-2.182c-0.289 0-0.567-0.115-0.771-0.32s-0.32-0.482-0.32-0.771v-2.182zM10.545 1.455c-0.096 0-0.189 0.038-0.257 0.107s-0.107 0.161-0.107 0.257v2.182c0 0.096 0.038 0.189 0.107 0.257s0.161 0.106 0.257 0.106h2.182c0.096 0 0.189-0.038 0.257-0.106s0.107-0.161 0.107-0.257v-2.182c0-0.096-0.038-0.189-0.107-0.257s-0.161-0.107-0.257-0.107h-2.182zM15.273 1.818c0-0.289 0.115-0.567 0.32-0.771s0.482-0.32 0.771-0.32h2.182c0.289 0 0.567 0.115 0.771 0.32s0.32 0.482 0.32 0.771v2.182c0 0.289-0.115 0.567-0.32 0.771s-0.482 0.32-0.771 0.32h-2.182c-0.289 0-0.567-0.115-0.771-0.32s-0.32-0.482-0.32-0.771v-2.182zM16.364 1.455c-0.096 0-0.189 0.038-0.257 0.107s-0.107 0.161-0.107 0.257v2.182c0 0.096 0.038 0.189 0.107 0.257s0.161 0.106 0.257 0.106h2.182c0.096 0 0.189-0.038 0.257-0.106s0.107-0.161 0.107-0.257v-2.182c0-0.096-0.038-0.189-0.107-0.257s-0.161-0.107-0.257-0.107h-2.182zM9.455 7.636c0-0.289 0.115-0.567 0.32-0.771s0.482-0.32 0.771-0.32h2.182c0.289 0 0.567 0.115 0.771 0.32s0.32 0.482 0.32 0.771v2.182c0 0.289-0.115 0.567-0.32 0.771s-0.482 0.32-0.771 0.32h-2.182c-0.289 0-0.567-0.115-0.771-0.32s-0.32-0.482-0.32-0.771v-2.182zM10.545 7.273c-0.096 0-0.189 0.038-0.257 0.106s-0.107 0.161-0.107 0.257v2.182c0 0.096 0.038 0.189 0.107 0.257s0.161 0.107 0.257 0.107h2.182c0.096 0 0.189-0.038 0.257-0.107s0.107-0.161 0.107-0.257v-2.182c0-0.096-0.038-0.189-0.107-0.257s-0.161-0.106-0.257-0.106h-2.182zM15.273 7.636c0-0.289 0.115-0.567 0.32-0.771s0.482-0.32 0.771-0.32h2.182c0.289 0 0.567 0.115 0.771 0.32s0.32 0.482 0.32 0.771v2.182c0 0.289-0.115 0.567-0.32 0.771s-0.482 0.32-0.771 0.32h-2.182c-0.289 0-0.567-0.115-0.771-0.32s-0.32-0.482-0.32-0.771v-2.182zM16.364 7.273c-0.096 0-0.189 0.038-0.257 0.106s-0.107 0.161-0.107 0.257v2.182c0 0.096 0.038 0.189 0.107 0.257s0.161 0.107 0.257 0.107h2.182c0.096 0 0.189-0.038 0.257-0.107s0.107-0.161 0.107-0.257v-2.182c0-0.096-0.038-0.189-0.107-0.257s-0.161-0.106-0.257-0.106h-2.182z"></path>
<path d="M8.651 21.091v-4.231h2.624v0.55h-1.986v1.289h1.798v0.547h-1.798v1.845h-0.638zM13.793 19.775v-1.857h0.62v3.174h-0.607v-0.55h-0.033c-0.073 0.169-0.19 0.311-0.351 0.424-0.16 0.112-0.359 0.167-0.597 0.167-0.204 0-0.384-0.045-0.541-0.134-0.156-0.091-0.278-0.225-0.368-0.403-0.088-0.178-0.132-0.397-0.132-0.659v-2.019h0.618v1.944c0 0.216 0.060 0.388 0.18 0.517s0.275 0.192 0.467 0.192c0.116 0 0.231-0.029 0.345-0.087 0.116-0.058 0.211-0.145 0.287-0.262 0.077-0.117 0.115-0.266 0.114-0.446zM15.832 16.86v4.231h-0.618v-4.231h0.618zM17.251 16.86v4.231h-0.618v-4.231h0.618zM18.444 22.281c-0.092 0-0.176-0.008-0.252-0.023-0.076-0.014-0.132-0.029-0.169-0.045l0.149-0.506c0.113 0.030 0.213 0.043 0.302 0.039s0.166-0.037 0.233-0.099c0.069-0.062 0.13-0.163 0.182-0.304l0.076-0.211-1.161-3.215h0.661l0.804 2.463h0.033l0.804-2.463h0.663l-1.308 3.597c-0.061 0.165-0.138 0.305-0.231 0.419-0.094 0.116-0.205 0.202-0.335 0.26s-0.28 0.087-0.45 0.087zM1.337 25.587v4.231h-0.638v-4.231h0.638zM2.805 27.934v1.884h-0.618v-3.174h0.593v0.517h0.039c0.073-0.168 0.187-0.303 0.343-0.405 0.157-0.102 0.355-0.153 0.593-0.153 0.216 0 0.406 0.045 0.568 0.136 0.163 0.090 0.289 0.223 0.378 0.401s0.134 0.397 0.134 0.659v2.019h-0.618v-1.944c0-0.23-0.060-0.41-0.18-0.539-0.12-0.131-0.284-0.196-0.494-0.196-0.143 0-0.271 0.031-0.382 0.093-0.11 0.062-0.198 0.153-0.262 0.273-0.063 0.118-0.095 0.262-0.095 0.43zM7.117 26.645v0.496h-1.734v-0.496h1.734zM5.849 25.884h0.618v3.002c0 0.12 0.018 0.21 0.054 0.271 0.036 0.059 0.082 0.1 0.138 0.122 0.058 0.021 0.12 0.031 0.188 0.031 0.050 0 0.093-0.003 0.13-0.010s0.066-0.012 0.087-0.017l0.112 0.51c-0.036 0.014-0.087 0.028-0.153 0.041-0.066 0.015-0.149 0.023-0.248 0.025-0.163 0.003-0.314-0.026-0.455-0.087s-0.254-0.154-0.341-0.281c-0.087-0.127-0.13-0.286-0.13-0.477v-3.13zM9.105 29.882c-0.313 0-0.582-0.067-0.808-0.2-0.225-0.135-0.398-0.324-0.521-0.568-0.121-0.245-0.182-0.532-0.182-0.862 0-0.325 0.061-0.612 0.182-0.86 0.123-0.248 0.293-0.441 0.512-0.581 0.22-0.139 0.478-0.209 0.773-0.209 0.179 0 0.353 0.030 0.521 0.089s0.319 0.152 0.453 0.279c0.134 0.127 0.239 0.291 0.316 0.494 0.077 0.201 0.116 0.446 0.116 0.733v0.219h-2.523v-0.463h1.917c0-0.163-0.033-0.306-0.099-0.432-0.066-0.127-0.159-0.227-0.279-0.3-0.118-0.073-0.258-0.11-0.417-0.11-0.174 0-0.325 0.043-0.455 0.128-0.128 0.084-0.227 0.194-0.298 0.331-0.069 0.135-0.103 0.282-0.103 0.44v0.362c0 0.212 0.037 0.393 0.112 0.541 0.076 0.149 0.181 0.262 0.316 0.341 0.135 0.077 0.293 0.116 0.473 0.116 0.117 0 0.224-0.017 0.32-0.050 0.096-0.034 0.18-0.085 0.25-0.153s0.124-0.151 0.161-0.25l0.585 0.105c-0.047 0.172-0.131 0.323-0.252 0.452-0.12 0.128-0.271 0.228-0.452 0.3-0.18 0.070-0.386 0.105-0.618 0.105zM12.454 31.074c-0.252 0-0.469-0.033-0.651-0.099-0.18-0.066-0.328-0.154-0.442-0.262s-0.2-0.228-0.256-0.357l0.531-0.219c0.037 0.061 0.087 0.125 0.149 0.192 0.063 0.069 0.149 0.127 0.256 0.176 0.109 0.048 0.249 0.072 0.419 0.072 0.234 0 0.428-0.057 0.581-0.172 0.153-0.113 0.229-0.293 0.229-0.541v-0.624h-0.039c-0.037 0.067-0.091 0.143-0.161 0.225-0.069 0.083-0.164 0.154-0.285 0.215s-0.279 0.091-0.473 0.091c-0.251 0-0.477-0.059-0.678-0.176-0.2-0.118-0.358-0.293-0.475-0.523-0.116-0.231-0.174-0.516-0.174-0.853s0.057-0.627 0.171-0.868c0.116-0.241 0.274-0.426 0.475-0.554 0.201-0.13 0.429-0.194 0.684-0.194 0.197 0 0.356 0.033 0.477 0.099 0.121 0.065 0.216 0.14 0.283 0.227 0.069 0.087 0.122 0.163 0.159 0.229h0.045v-0.514h0.605v3.244c0 0.273-0.063 0.497-0.19 0.672s-0.298 0.304-0.514 0.388c-0.215 0.084-0.457 0.126-0.727 0.126zM12.447 29.258c0.178 0 0.328-0.041 0.45-0.124 0.124-0.084 0.218-0.204 0.281-0.36 0.065-0.157 0.097-0.345 0.097-0.564 0-0.213-0.032-0.401-0.095-0.564s-0.156-0.289-0.279-0.38c-0.123-0.092-0.274-0.138-0.455-0.138-0.186 0-0.341 0.048-0.465 0.145-0.124 0.095-0.218 0.224-0.281 0.388-0.062 0.164-0.093 0.347-0.093 0.55 0 0.208 0.032 0.39 0.095 0.548s0.157 0.28 0.281 0.368c0.125 0.088 0.28 0.132 0.463 0.132zM14.685 29.818v-3.174h0.597v0.504h0.033c0.058-0.171 0.16-0.305 0.306-0.403 0.147-0.099 0.314-0.149 0.5-0.149 0.039 0 0.084 0.001 0.136 0.004 0.054 0.003 0.096 0.006 0.126 0.010v0.591c-0.025-0.007-0.069-0.014-0.132-0.023-0.063-0.010-0.127-0.014-0.19-0.014-0.146 0-0.276 0.031-0.39 0.093-0.113 0.061-0.202 0.145-0.269 0.254-0.066 0.107-0.099 0.23-0.099 0.368v1.938h-0.618zM17.784 29.888c-0.201 0-0.383-0.037-0.545-0.112-0.163-0.076-0.291-0.185-0.386-0.328-0.094-0.143-0.14-0.319-0.14-0.527 0-0.179 0.034-0.326 0.103-0.442s0.162-0.207 0.279-0.275c0.117-0.067 0.248-0.118 0.393-0.153s0.292-0.061 0.442-0.078c0.19-0.022 0.344-0.040 0.463-0.054 0.118-0.015 0.205-0.039 0.258-0.072s0.081-0.087 0.081-0.161v-0.014c0-0.18-0.051-0.32-0.153-0.419-0.101-0.099-0.251-0.149-0.45-0.149-0.208 0-0.372 0.046-0.492 0.138-0.118 0.091-0.2 0.192-0.246 0.304l-0.581-0.132c0.069-0.193 0.169-0.349 0.302-0.467 0.134-0.12 0.287-0.207 0.461-0.26 0.174-0.055 0.356-0.083 0.548-0.083 0.127 0 0.261 0.015 0.403 0.045 0.143 0.029 0.277 0.083 0.401 0.161 0.125 0.078 0.228 0.191 0.308 0.337 0.080 0.145 0.12 0.333 0.12 0.564v2.107h-0.603v-0.434h-0.025c-0.040 0.080-0.1 0.158-0.18 0.236s-0.183 0.141-0.308 0.192c-0.125 0.051-0.276 0.076-0.45 0.076zM17.918 29.393c0.171 0 0.317-0.034 0.438-0.101 0.123-0.067 0.216-0.156 0.279-0.264 0.065-0.11 0.097-0.228 0.097-0.353v-0.409c-0.022 0.022-0.065 0.043-0.128 0.062-0.062 0.018-0.133 0.034-0.213 0.048-0.080 0.012-0.158 0.024-0.233 0.035-0.076 0.010-0.139 0.018-0.19 0.025-0.12 0.015-0.229 0.041-0.329 0.076-0.098 0.036-0.176 0.087-0.236 0.155-0.058 0.066-0.087 0.154-0.087 0.264 0 0.153 0.056 0.269 0.169 0.347 0.113 0.077 0.257 0.116 0.432 0.116zM21.625 26.645v0.496h-1.733v-0.496h1.733zM20.357 25.884h0.618v3.002c0 0.12 0.018 0.21 0.054 0.271 0.036 0.059 0.082 0.1 0.138 0.122 0.058 0.021 0.12 0.031 0.188 0.031 0.050 0 0.093-0.003 0.13-0.010s0.066-0.012 0.087-0.017l0.112 0.51c-0.036 0.014-0.087 0.028-0.153 0.041-0.066 0.015-0.149 0.023-0.248 0.025-0.163 0.003-0.314-0.026-0.455-0.087s-0.254-0.154-0.341-0.281c-0.087-0.127-0.13-0.286-0.13-0.477v-3.13zM23.613 29.882c-0.313 0-0.582-0.067-0.808-0.2-0.224-0.135-0.398-0.324-0.521-0.568-0.121-0.245-0.182-0.532-0.182-0.862 0-0.325 0.061-0.612 0.182-0.86 0.123-0.248 0.293-0.441 0.512-0.581 0.22-0.139 0.478-0.209 0.773-0.209 0.179 0 0.353 0.030 0.521 0.089s0.319 0.152 0.452 0.279c0.134 0.127 0.239 0.291 0.316 0.494 0.077 0.201 0.116 0.446 0.116 0.733v0.219h-2.523v-0.463h1.917c0-0.163-0.033-0.306-0.099-0.432-0.066-0.127-0.159-0.227-0.279-0.3-0.118-0.073-0.258-0.11-0.417-0.11-0.174 0-0.325 0.043-0.455 0.128-0.128 0.084-0.227 0.194-0.298 0.331-0.069 0.135-0.103 0.282-0.103 0.44v0.362c0 0.212 0.037 0.393 0.112 0.541 0.076 0.149 0.181 0.262 0.316 0.341 0.135 0.077 0.293 0.116 0.473 0.116 0.117 0 0.224-0.017 0.32-0.050 0.096-0.034 0.18-0.085 0.25-0.153s0.124-0.151 0.161-0.25l0.585 0.105c-0.047 0.172-0.131 0.323-0.252 0.452-0.12 0.128-0.271 0.228-0.452 0.3-0.18 0.070-0.386 0.105-0.618 0.105zM26.819 29.88c-0.256 0-0.485-0.065-0.686-0.196-0.2-0.132-0.357-0.32-0.471-0.564-0.113-0.245-0.169-0.539-0.169-0.882s0.057-0.636 0.172-0.88c0.116-0.244 0.274-0.43 0.475-0.56s0.429-0.194 0.684-0.194c0.197 0 0.355 0.033 0.475 0.099 0.121 0.065 0.215 0.14 0.281 0.227 0.067 0.087 0.12 0.163 0.157 0.229h0.037v-1.572h0.618v4.231h-0.603v-0.494h-0.052c-0.037 0.068-0.091 0.145-0.161 0.231-0.069 0.087-0.164 0.163-0.285 0.227s-0.278 0.097-0.471 0.097zM26.955 29.353c0.178 0 0.328-0.047 0.45-0.14 0.124-0.095 0.218-0.227 0.281-0.395 0.065-0.168 0.097-0.364 0.097-0.587 0-0.22-0.032-0.413-0.095-0.579s-0.156-0.294-0.279-0.386c-0.123-0.092-0.274-0.138-0.455-0.138-0.186 0-0.341 0.048-0.465 0.145s-0.218 0.228-0.281 0.395c-0.062 0.167-0.093 0.355-0.093 0.564 0 0.212 0.032 0.403 0.095 0.572s0.157 0.304 0.281 0.403c0.125 0.098 0.28 0.147 0.463 0.147z"></path>
</symbol>
<symbol id="icon-icon-kitchen" viewBox="0 0 30 32">
<path d="M7.25 6c-0.075 0-0.149 0.017-0.216 0.049s-0.127 0.080-0.174 0.138c-0.047 0.058-0.080 0.126-0.097 0.199s-0.017 0.149-0.001 0.222l1.652 7.434c0.123 0.555 0.432 1.052 0.876 1.408s0.995 0.55 1.564 0.55h5.792c0.569-0 1.12-0.194 1.564-0.55s0.753-0.853 0.876-1.408l0.131-0.59c0.765 0.143 1.555-0.017 2.205-0.446s1.107-1.093 1.275-1.853c0.169-0.76 0.036-1.555-0.371-2.219s-1.055-1.143-1.809-1.337l0.221-0.99c0.016-0.073 0.016-0.149-0.001-0.222s-0.050-0.141-0.097-0.199c-0.047-0.058-0.106-0.105-0.174-0.138s-0.141-0.049-0.216-0.049h-13zM19.75 12.5c-0.106 0-0.212-0.008-0.316-0.025l0.867-3.898c0.462 0.134 0.861 0.43 1.123 0.834s0.369 0.889 0.302 1.366c-0.067 0.477-0.304 0.914-0.667 1.23s-0.828 0.491-1.309 0.493zM9.39 13.825l-1.517-6.825h11.754l-1.517 6.825c-0.074 0.333-0.259 0.631-0.526 0.845s-0.597 0.33-0.939 0.33h-5.792c-0.341-0-0.672-0.117-0.939-0.33s-0.451-0.512-0.525-0.845z"></path>
<path d="M11.15 0.8l-0.003 0.004-0.014 0.019c-0.073 0.1-0.141 0.204-0.204 0.31-0.054 0.085-0.101 0.175-0.141 0.267-0.026 0.060-0.034 0.092-0.037 0.103v0.004c0.012 0.088 0.043 0.173 0.091 0.248 0.075 0.133 0.178 0.272 0.308 0.445l0.010 0.012c0.118 0.158 0.26 0.347 0.37 0.543 0.112 0.2 0.22 0.455 0.22 0.745 0 0.188-0.065 0.368-0.119 0.494-0.058 0.134-0.125 0.264-0.202 0.388-0.078 0.131-0.163 0.259-0.253 0.382l-0.018 0.025-0.005 0.008-0.002 0.002c-0.079 0.106-0.198 0.177-0.329 0.195s-0.265-0.015-0.371-0.094-0.177-0.198-0.195-0.329c-0.019-0.131 0.015-0.265 0.094-0.371l0.003-0.004 0.014-0.019c0.073-0.1 0.141-0.204 0.204-0.31 0.054-0.085 0.101-0.175 0.141-0.267 0.026-0.060 0.034-0.092 0.037-0.103-0.011-0.090-0.041-0.176-0.090-0.252-0.093-0.155-0.196-0.304-0.309-0.445l-0.010-0.012c-0.135-0.173-0.259-0.354-0.37-0.543-0.136-0.225-0.212-0.482-0.22-0.745 0-0.188 0.065-0.368 0.119-0.494 0.059-0.138 0.134-0.274 0.202-0.388 0.079-0.131 0.164-0.258 0.253-0.382l0.025-0.035c0.079-0.106 0.198-0.177 0.329-0.195s0.265 0.015 0.371 0.094 0.177 0.198 0.195 0.329c0.019 0.131-0.015 0.265-0.094 0.371zM14.15 0.8l-0.003 0.004-0.014 0.019c-0.073 0.1-0.141 0.204-0.204 0.31-0.054 0.085-0.101 0.175-0.141 0.267-0.026 0.060-0.034 0.092-0.037 0.103v0.004c0.012 0.088 0.043 0.173 0.091 0.248 0.075 0.133 0.178 0.272 0.308 0.445l0.010 0.012c0.118 0.158 0.26 0.347 0.37 0.543 0.112 0.2 0.22 0.455 0.22 0.745 0 0.188-0.065 0.368-0.119 0.494-0.058 0.134-0.125 0.264-0.202 0.388-0.078 0.131-0.163 0.259-0.253 0.382l-0.018 0.025-0.005 0.008-0.002 0.002c-0.079 0.106-0.198 0.177-0.329 0.195s-0.265-0.015-0.371-0.094-0.177-0.198-0.195-0.329c-0.019-0.131 0.015-0.265 0.094-0.371l0.003-0.004 0.014-0.019c0.073-0.1 0.141-0.204 0.204-0.31 0.054-0.085 0.101-0.175 0.141-0.267 0.026-0.060 0.034-0.092 0.037-0.103-0.011-0.090-0.041-0.176-0.090-0.252-0.093-0.155-0.196-0.304-0.309-0.445l-0.010-0.012c-0.135-0.173-0.259-0.354-0.37-0.543-0.136-0.225-0.212-0.482-0.22-0.745 0-0.188 0.065-0.368 0.119-0.494 0.059-0.138 0.134-0.274 0.202-0.388 0.079-0.131 0.164-0.258 0.253-0.382l0.025-0.035c0.079-0.106 0.198-0.177 0.329-0.195s0.265 0.015 0.371 0.094 0.177 0.198 0.195 0.329c0.019 0.131-0.015 0.265-0.094 0.371zM17.15 0.8l-0.003 0.004-0.014 0.019c-0.073 0.1-0.141 0.204-0.204 0.31-0.054 0.085-0.101 0.175-0.141 0.267-0.026 0.060-0.034 0.092-0.037 0.103v0.004c0.012 0.088 0.043 0.173 0.091 0.248 0.075 0.133 0.178 0.272 0.308 0.445l0.010 0.012c0.118 0.158 0.26 0.347 0.37 0.543 0.112 0.2 0.22 0.455 0.22 0.745 0 0.188-0.065 0.368-0.119 0.494-0.058 0.134-0.125 0.264-0.202 0.388-0.078 0.131-0.162 0.259-0.252 0.382l-0.019 0.025-0.005 0.008-0.002 0.002c-0.079 0.106-0.198 0.177-0.329 0.195s-0.265-0.015-0.371-0.094-0.177-0.198-0.195-0.329c-0.019-0.131 0.015-0.265 0.094-0.371l0.003-0.004 0.014-0.019c0.073-0.1 0.141-0.204 0.204-0.31 0.054-0.085 0.101-0.175 0.141-0.267 0.026-0.060 0.034-0.092 0.037-0.103-0.011-0.090-0.041-0.176-0.090-0.252-0.093-0.155-0.196-0.304-0.309-0.445l-0.010-0.012c-0.135-0.173-0.259-0.354-0.37-0.543-0.136-0.225-0.212-0.482-0.22-0.745 0-0.188 0.065-0.368 0.119-0.494 0.059-0.138 0.134-0.274 0.202-0.388 0.079-0.131 0.164-0.258 0.253-0.382l0.025-0.035c0.079-0.106 0.198-0.177 0.329-0.195s0.265 0.015 0.371 0.094 0.177 0.198 0.195 0.329c0.019 0.131-0.015 0.265-0.094 0.371z"></path>
<path d="M0.841 29v-5.818h0.878v2.778h0.071l2.44-2.778h1.105l-2.347 2.619 2.355 3.199h-1.057l-1.881-2.599-0.688 0.79v1.81h-0.878zM6.319 29v-4.364h0.849v4.364h-0.849zM6.748 23.963c-0.148 0-0.275-0.049-0.381-0.148-0.104-0.1-0.156-0.22-0.156-0.358 0-0.14 0.052-0.259 0.156-0.358 0.106-0.1 0.233-0.151 0.381-0.151s0.274 0.050 0.378 0.151c0.106 0.098 0.159 0.218 0.159 0.358 0 0.138-0.053 0.258-0.159 0.358-0.104 0.099-0.23 0.148-0.378 0.148zM10.308 24.636v0.682h-2.383v-0.682h2.383zM8.564 23.591h0.849v4.128c0 0.165 0.025 0.289 0.074 0.372 0.049 0.081 0.113 0.137 0.19 0.168 0.079 0.028 0.166 0.043 0.258 0.043 0.068 0 0.128-0.005 0.179-0.014s0.091-0.017 0.119-0.023l0.153 0.702c-0.049 0.019-0.119 0.038-0.21 0.057-0.091 0.021-0.205 0.032-0.341 0.034-0.223 0.004-0.432-0.036-0.625-0.119s-0.349-0.212-0.469-0.386c-0.119-0.174-0.179-0.393-0.179-0.656v-4.304zM12.999 29.088c-0.422 0-0.786-0.096-1.091-0.287-0.303-0.193-0.536-0.459-0.699-0.798s-0.244-0.727-0.244-1.165c0-0.443 0.083-0.834 0.25-1.173 0.167-0.341 0.402-0.607 0.705-0.798s0.66-0.287 1.071-0.287c0.331 0 0.627 0.062 0.886 0.185 0.259 0.121 0.469 0.292 0.628 0.511 0.161 0.22 0.257 0.476 0.287 0.77h-0.827c-0.045-0.205-0.15-0.381-0.313-0.528-0.161-0.148-0.377-0.222-0.648-0.222-0.237 0-0.444 0.063-0.622 0.188-0.176 0.123-0.313 0.299-0.412 0.528-0.098 0.227-0.148 0.496-0.148 0.807 0 0.318 0.048 0.593 0.145 0.824s0.233 0.41 0.409 0.537c0.178 0.127 0.387 0.19 0.628 0.19 0.161 0 0.307-0.029 0.438-0.088 0.133-0.061 0.243-0.147 0.332-0.259 0.091-0.112 0.154-0.246 0.19-0.403h0.827c-0.030 0.282-0.122 0.534-0.276 0.756s-0.359 0.396-0.617 0.523c-0.256 0.127-0.556 0.19-0.901 0.19zM16.509 26.409v2.591h-0.849v-5.818h0.838v2.165h0.054c0.102-0.235 0.259-0.421 0.469-0.56s0.485-0.207 0.824-0.207c0.299 0 0.561 0.062 0.784 0.185 0.225 0.123 0.4 0.307 0.523 0.551 0.125 0.242 0.188 0.545 0.188 0.909v2.776h-0.849v-2.673c0-0.32-0.082-0.568-0.247-0.744-0.165-0.178-0.394-0.267-0.688-0.267-0.201 0-0.381 0.043-0.54 0.128-0.157 0.085-0.281 0.21-0.372 0.375-0.089 0.163-0.134 0.36-0.134 0.591zM22.313 29.088c-0.43 0-0.8-0.092-1.111-0.276-0.309-0.186-0.547-0.446-0.716-0.781-0.167-0.337-0.25-0.732-0.25-1.185 0-0.447 0.083-0.841 0.25-1.182 0.169-0.341 0.403-0.607 0.705-0.798 0.303-0.191 0.657-0.287 1.063-0.287 0.246 0 0.485 0.041 0.716 0.122s0.438 0.209 0.622 0.384c0.184 0.174 0.329 0.401 0.435 0.679 0.106 0.276 0.159 0.613 0.159 1.009v0.301h-3.469v-0.636h2.636c0-0.224-0.045-0.421-0.136-0.594-0.091-0.174-0.219-0.312-0.384-0.412-0.163-0.1-0.354-0.151-0.574-0.151-0.239 0-0.447 0.059-0.625 0.176-0.176 0.116-0.313 0.267-0.409 0.455-0.095 0.186-0.142 0.387-0.142 0.605v0.497c0 0.292 0.051 0.54 0.153 0.744 0.104 0.205 0.249 0.361 0.435 0.469 0.186 0.106 0.402 0.159 0.651 0.159 0.161 0 0.308-0.023 0.44-0.068 0.133-0.047 0.247-0.117 0.344-0.21s0.171-0.207 0.222-0.344l0.804 0.145c-0.064 0.237-0.18 0.444-0.347 0.622-0.165 0.176-0.372 0.313-0.622 0.412-0.248 0.097-0.531 0.145-0.849 0.145zM25.937 26.409v2.591h-0.849v-4.364h0.815v0.71h0.054c0.1-0.231 0.258-0.417 0.472-0.557 0.216-0.14 0.488-0.21 0.815-0.21 0.297 0 0.558 0.063 0.781 0.188 0.224 0.123 0.397 0.307 0.52 0.551s0.185 0.546 0.185 0.906v2.776h-0.849v-2.673c0-0.316-0.082-0.563-0.247-0.741-0.165-0.18-0.391-0.27-0.679-0.27-0.197 0-0.372 0.043-0.526 0.128-0.151 0.085-0.272 0.21-0.361 0.375-0.087 0.163-0.131 0.36-0.131 0.591z"></path>
</symbol>
<symbol id="icon-icon-TV" viewBox="0 0 16 32">
<path d="M0 4c0 0 0-2 2-2h12c0 0 2 0 2 2v6c0 0 0 2-2 2h-4c0 0.667 0.083 1.167 0.25 1.5h0.75c0.133 0 0.26 0.053 0.354 0.146s0.146 0.221 0.146 0.354c0 0.133-0.053 0.26-0.146 0.354s-0.221 0.146-0.354 0.146h-6c-0.133 0-0.26-0.053-0.354-0.146s-0.146-0.221-0.146-0.354c0-0.133 0.053-0.26 0.146-0.354s0.221-0.146 0.354-0.146h0.75c0.167-0.333 0.25-0.833 0.25-1.5h-4c0 0-2 0-2-2v-6zM1.398 3.145c-0.11 0.077-0.197 0.181-0.254 0.302-0.084 0.176-0.133 0.368-0.144 0.563v5.99c0 0.325 0.078 0.502 0.145 0.602 0.070 0.104 0.171 0.189 0.302 0.254 0.169 0.081 0.351 0.129 0.538 0.143l0.025 0.001h11.99c0.325 0 0.502-0.078 0.602-0.145 0.11-0.077 0.197-0.181 0.254-0.302 0.081-0.169 0.129-0.351 0.143-0.538l0.001-0.025v-5.99c0-0.325-0.078-0.502-0.145-0.602-0.077-0.11-0.181-0.197-0.302-0.254-0.177-0.084-0.368-0.133-0.563-0.144h-11.99c-0.325 0-0.502 0.078-0.602 0.145z"></path>
<path d="M2.966 23.938v-0.756h4.503v0.756h-1.815v5.063h-0.875v-5.063h-1.813zM8.932 23.182l1.619 4.739h0.065l1.619-4.739h0.949l-2.094 5.818h-1.014l-2.094-5.818h0.949z"></path>
</symbol>
<symbol id="icon-icon-Van" viewBox="0 0 16 32">
<path d="M6 1h-5v14h5v-14zM15 1h-5v5h5v-5zM15 10v5h-5v-5h5zM0 1c0-0.265 0.105-0.52 0.293-0.707s0.442-0.293 0.707-0.293h5c0.265 0 0.52 0.105 0.707 0.293s0.293 0.442 0.293 0.707v14c0 0.265-0.105 0.52-0.293 0.707s-0.442 0.293-0.707 0.293h-5c-0.265 0-0.52-0.105-0.707-0.293s-0.293-0.442-0.293-0.707v-14zM9 1c0-0.265 0.105-0.52 0.293-0.707s0.442-0.293 0.707-0.293h5c0.265 0 0.52 0.105 0.707 0.293s0.293 0.442 0.293 0.707v5c0 0.265-0.105 0.52-0.293 0.707s-0.442 0.293-0.707 0.293h-5c-0.265 0-0.52-0.105-0.707-0.293s-0.293-0.442-0.293-0.707v-5zM10 9c-0.265 0-0.52 0.105-0.707 0.293s-0.293 0.442-0.293 0.707v5c0 0.265 0.105 0.52 0.293 0.707s0.442 0.293 0.707 0.293h5c0.265 0 0.52-0.105 0.707-0.293s0.293-0.442 0.293-0.707v-5c0-0.265-0.105-0.52-0.293-0.707s-0.442-0.293-0.707-0.293h-5z"></path>
<path d="M1.934 23.182l1.619 4.739h0.065l1.619-4.739h0.949l-2.094 5.818h-1.014l-2.094-5.818h0.949zM7.759 29.097c-0.277 0-0.527-0.051-0.75-0.153-0.223-0.104-0.401-0.255-0.531-0.452-0.129-0.197-0.193-0.438-0.193-0.724 0-0.246 0.047-0.449 0.142-0.608s0.223-0.285 0.383-0.378c0.161-0.093 0.341-0.163 0.54-0.21s0.402-0.083 0.608-0.108c0.261-0.030 0.473-0.055 0.636-0.074 0.163-0.021 0.281-0.054 0.355-0.099s0.111-0.119 0.111-0.222v-0.020c0-0.248-0.070-0.44-0.21-0.577-0.138-0.136-0.345-0.205-0.619-0.205-0.286 0-0.511 0.063-0.676 0.19-0.163 0.125-0.276 0.264-0.338 0.418l-0.798-0.182c0.095-0.265 0.233-0.479 0.415-0.642 0.184-0.165 0.395-0.284 0.633-0.358 0.239-0.076 0.49-0.114 0.753-0.114 0.174 0 0.359 0.021 0.554 0.063 0.197 0.040 0.381 0.114 0.551 0.222 0.172 0.108 0.313 0.262 0.423 0.463 0.11 0.199 0.165 0.457 0.165 0.776v2.898h-0.83v-0.597h-0.034c-0.055 0.11-0.137 0.218-0.247 0.324s-0.251 0.194-0.423 0.264c-0.172 0.070-0.379 0.105-0.619 0.105zM7.944 28.415c0.235 0 0.436-0.046 0.602-0.139 0.169-0.093 0.296-0.214 0.384-0.364 0.089-0.152 0.133-0.313 0.133-0.486v-0.563c-0.030 0.030-0.089 0.059-0.176 0.085-0.085 0.025-0.183 0.046-0.293 0.065-0.11 0.017-0.217 0.033-0.321 0.048-0.104 0.013-0.191 0.025-0.261 0.034-0.165 0.021-0.315 0.056-0.452 0.105-0.134 0.049-0.242 0.12-0.324 0.213-0.080 0.091-0.119 0.212-0.119 0.364 0 0.21 0.078 0.369 0.233 0.477 0.155 0.106 0.353 0.159 0.594 0.159zM11.853 26.409v2.591h-0.849v-4.364h0.815v0.71h0.054c0.1-0.231 0.258-0.417 0.472-0.557 0.216-0.14 0.488-0.21 0.815-0.21 0.297 0 0.558 0.063 0.781 0.188 0.223 0.123 0.397 0.307 0.52 0.551s0.185 0.546 0.185 0.906v2.776h-0.849v-2.673c0-0.316-0.082-0.563-0.247-0.741-0.165-0.18-0.391-0.27-0.679-0.27-0.197 0-0.372 0.043-0.526 0.128-0.152 0.085-0.272 0.21-0.361 0.375-0.087 0.163-0.131 0.36-0.131 0.591z"></path>
</symbol>
<symbol id="icon-map" viewBox="0 0 32 32">
<path d="M31.634 0.226c0.115 0.094 0.207 0.212 0.27 0.346s0.096 0.28 0.096 0.428v28c-0 0.231-0.080 0.455-0.227 0.634s-0.351 0.301-0.577 0.346l-10 2c-0.129 0.026-0.263 0.026-0.392 0l-9.804-1.96-9.804 1.96c-0.145 0.029-0.295 0.025-0.438-0.010s-0.277-0.103-0.392-0.197c-0.114-0.094-0.207-0.212-0.27-0.345s-0.096-0.28-0.096-0.428v-28c0-0.231 0.080-0.455 0.227-0.634s0.351-0.301 0.577-0.346l10-2c0.129-0.026 0.263-0.026 0.392 0l9.804 1.96 9.804-1.96c0.145-0.029 0.295-0.026 0.438 0.010s0.277 0.103 0.392 0.196zM20 3.82l-8-1.6v25.96l8 1.6v-25.96zM22 29.78l8-1.6v-25.96l-8 1.6v25.96zM10 28.18v-25.96l-8 1.6v25.96l8-1.6z"></path>
</symbol>
<symbol id="icon-icon-Button-Kitchen" viewBox="0 0 89 32">
<path fill="#f2f4f7" style="fill: var(--color1, #f2f4f7)" d="M16 0h57.455c8.837 0 16 7.163 16 16s-7.163 16-16 16h-57.455c-8.837 0-16-7.163-16-16s7.163-16 16-16z"></path>
<path fill="#101828" style="fill: var(--color2, #101828)" d="M13.545 14.182c-0.068 0-0.135 0.015-0.197 0.045s-0.115 0.072-0.158 0.125c-0.043 0.053-0.073 0.115-0.088 0.181s-0.016 0.135-0.001 0.202l1.502 6.758c0.112 0.505 0.393 0.956 0.796 1.28s0.905 0.5 1.422 0.5h5.265c0.517-0 1.019-0.177 1.422-0.5s0.684-0.775 0.796-1.28l0.119-0.536c0.695 0.13 1.414-0.015 2.004-0.405s1.006-0.994 1.159-1.684 0.032-1.414-0.337-2.017c-0.37-0.603-0.959-1.039-1.645-1.215l0.201-0.9c0.015-0.066 0.014-0.135-0.001-0.202s-0.046-0.128-0.088-0.181c-0.043-0.053-0.096-0.096-0.158-0.125s-0.128-0.045-0.197-0.045h-11.818zM24.909 20.091c-0.096 0-0.192-0.008-0.287-0.023l0.788-3.544c0.421 0.122 0.783 0.391 1.021 0.759s0.335 0.808 0.274 1.242c-0.061 0.433-0.276 0.83-0.606 1.118s-0.753 0.447-1.19 0.448zM15.491 21.295l-1.379-6.204h10.685l-1.379 6.204c-0.067 0.303-0.236 0.574-0.478 0.768s-0.543 0.3-0.853 0.3h-5.265c-0.31-0-0.611-0.106-0.853-0.3s-0.41-0.465-0.478-0.768z"></path>
<path fill="#101828" style="fill: var(--color2, #101828)" d="M17.091 9.455l-0.003 0.004-0.013 0.017c-0.066 0.091-0.128 0.185-0.185 0.282-0.049 0.078-0.092 0.159-0.128 0.243-0.024 0.055-0.031 0.084-0.034 0.094v0.004c0.011 0.080 0.039 0.157 0.083 0.225 0.068 0.121 0.162 0.247 0.28 0.405l0.009 0.011c0.107 0.144 0.236 0.315 0.336 0.494 0.102 0.182 0.2 0.414 0.2 0.677 0 0.171-0.059 0.335-0.108 0.449-0.053 0.122-0.114 0.24-0.184 0.353-0.071 0.119-0.148 0.235-0.23 0.347l-0.016 0.023-0.005 0.007-0.002 0.002c-0.072 0.097-0.18 0.161-0.299 0.178s-0.241-0.014-0.337-0.086c-0.096-0.072-0.16-0.18-0.178-0.299s0.014-0.241 0.086-0.337l0.015-0.021c0.066-0.091 0.128-0.185 0.185-0.282 0.049-0.078 0.092-0.159 0.128-0.243 0.024-0.055 0.031-0.084 0.034-0.094-0.010-0.082-0.038-0.16-0.082-0.229-0.084-0.141-0.178-0.276-0.281-0.405l-0.009-0.011c-0.123-0.157-0.235-0.322-0.336-0.494-0.124-0.205-0.193-0.438-0.2-0.677 0-0.171 0.059-0.335 0.108-0.449 0.054-0.125 0.122-0.249 0.184-0.353 0.072-0.119 0.149-0.235 0.23-0.347l0.023-0.032c0.072-0.097 0.18-0.161 0.299-0.178s0.241 0.014 0.337 0.086c0.097 0.072 0.16 0.18 0.178 0.299s-0.014 0.241-0.086 0.337zM19.818 9.455l-0.003 0.004-0.013 0.017c-0.066 0.091-0.128 0.185-0.185 0.282-0.049 0.078-0.092 0.159-0.128 0.243-0.024 0.055-0.031 0.084-0.034 0.094v0.004c0.011 0.080 0.039 0.157 0.083 0.225 0.068 0.121 0.162 0.247 0.28 0.405l0.009 0.011c0.107 0.144 0.236 0.315 0.336 0.494 0.102 0.182 0.2 0.414 0.2 0.677 0 0.171-0.059 0.335-0.108 0.449-0.053 0.122-0.114 0.24-0.184 0.353-0.071 0.119-0.148 0.235-0.23 0.347l-0.016 0.023-0.005 0.007-0.002 0.002c-0.072 0.097-0.18 0.161-0.299 0.178s-0.241-0.014-0.337-0.086c-0.097-0.072-0.16-0.18-0.178-0.299s0.014-0.241 0.086-0.337l0.003-0.004 0.013-0.017c0.066-0.091 0.128-0.185 0.185-0.282 0.049-0.078 0.092-0.159 0.128-0.243 0.024-0.055 0.031-0.084 0.034-0.094-0.010-0.082-0.038-0.16-0.082-0.229-0.084-0.141-0.178-0.276-0.281-0.405l-0.009-0.011c-0.123-0.157-0.235-0.322-0.336-0.494-0.124-0.205-0.193-0.438-0.2-0.677 0-0.171 0.059-0.335 0.108-0.449 0.054-0.125 0.122-0.249 0.184-0.353 0.072-0.119 0.149-0.235 0.23-0.347l0.023-0.032c0.072-0.097 0.18-0.161 0.299-0.178s0.241 0.014 0.337 0.086c0.097 0.072 0.16 0.18 0.178 0.299s-0.014 0.241-0.086 0.337zM22.545 9.455l-0.003 0.004-0.013 0.017c-0.066 0.091-0.128 0.185-0.185 0.282-0.049 0.078-0.092 0.159-0.128 0.243-0.024 0.055-0.031 0.084-0.034 0.094v0.004c0.010 0.080 0.039 0.157 0.083 0.225 0.068 0.121 0.162 0.247 0.28 0.405l0.009 0.011c0.107 0.144 0.236 0.315 0.336 0.494 0.102 0.182 0.2 0.414 0.2 0.677 0 0.171-0.059 0.335-0.108 0.449-0.052 0.122-0.114 0.24-0.184 0.353-0.071 0.119-0.148 0.235-0.229 0.347l-0.017 0.023-0.005 0.007-0.002 0.002c-0.072 0.097-0.18 0.161-0.299 0.178s-0.241-0.014-0.337-0.086c-0.097-0.072-0.16-0.18-0.178-0.299s0.014-0.241 0.086-0.337l0.003-0.004 0.013-0.017c0.066-0.091 0.128-0.185 0.185-0.282 0.049-0.078 0.092-0.159 0.128-0.243 0.024-0.055 0.031-0.084 0.034-0.094-0.010-0.082-0.038-0.16-0.082-0.229-0.084-0.141-0.178-0.276-0.281-0.405l-0.009-0.011c-0.123-0.157-0.235-0.322-0.336-0.494-0.124-0.205-0.193-0.438-0.2-0.677 0-0.171 0.059-0.335 0.108-0.449 0.054-0.125 0.122-0.249 0.184-0.353 0.072-0.119 0.149-0.235 0.23-0.347l0.023-0.032c0.072-0.097 0.18-0.161 0.299-0.178s0.241 0.014 0.337 0.086c0.097 0.072 0.16 0.18 0.178 0.299s-0.014 0.241-0.086 0.337z"></path>
<path fill="#101828" style="fill: var(--color2, #101828)" d="M34.504 20.364v-8.463h1.277v4.041h0.103l3.55-4.041h1.607l-3.413 3.81 3.426 4.653h-1.537l-2.736-3.781-1 1.149v2.632h-1.277zM42.529 20.364v-6.347h1.236v6.347h-1.236zM43.153 13.037c-0.215 0-0.399-0.072-0.554-0.215-0.152-0.146-0.227-0.32-0.227-0.521 0-0.204 0.076-0.377 0.227-0.521 0.154-0.146 0.339-0.219 0.554-0.219s0.398 0.073 0.55 0.219c0.154 0.143 0.231 0.317 0.231 0.521 0 0.201-0.077 0.375-0.231 0.521-0.151 0.143-0.335 0.215-0.55 0.215zM48.39 14.017v0.992h-3.467v-0.992h3.467zM45.853 12.496h1.236v6.004c0 0.24 0.036 0.42 0.108 0.541 0.072 0.118 0.164 0.2 0.277 0.244 0.116 0.041 0.241 0.062 0.376 0.062 0.099 0 0.186-0.007 0.26-0.021s0.132-0.025 0.174-0.033l0.223 1.021c-0.072 0.028-0.174 0.055-0.306 0.083-0.132 0.030-0.298 0.047-0.496 0.050-0.325 0.006-0.628-0.052-0.909-0.174s-0.508-0.308-0.682-0.562c-0.174-0.253-0.26-0.572-0.26-0.955v-6.26zM52.362 20.492c-0.614 0-1.143-0.139-1.587-0.417-0.441-0.281-0.78-0.668-1.017-1.161s-0.355-1.058-0.355-1.694c0-0.645 0.121-1.213 0.364-1.707 0.242-0.496 0.584-0.883 1.025-1.161s0.96-0.417 1.558-0.417c0.482 0 0.912 0.090 1.289 0.269 0.377 0.176 0.682 0.424 0.913 0.744 0.234 0.32 0.373 0.693 0.417 1.12h-1.202c-0.066-0.298-0.218-0.554-0.455-0.769-0.234-0.215-0.548-0.322-0.942-0.322-0.344 0-0.646 0.091-0.905 0.273-0.256 0.179-0.456 0.435-0.599 0.769-0.143 0.331-0.215 0.722-0.215 1.174 0 0.463 0.070 0.862 0.211 1.198s0.339 0.596 0.595 0.781c0.259 0.184 0.563 0.277 0.913 0.277 0.234 0 0.446-0.043 0.636-0.128 0.193-0.088 0.354-0.214 0.483-0.376 0.132-0.163 0.224-0.358 0.277-0.587h1.202c-0.044 0.41-0.178 0.777-0.401 1.099s-0.522 0.576-0.897 0.76c-0.372 0.184-0.809 0.277-1.31 0.277zM57.526 16.595v3.769h-1.236v-8.463h1.219v3.149h0.078c0.149-0.342 0.376-0.613 0.682-0.814s0.705-0.302 1.198-0.302c0.435 0 0.815 0.090 1.141 0.269 0.328 0.179 0.581 0.446 0.76 0.802 0.182 0.353 0.273 0.793 0.273 1.322v4.037h-1.236v-3.888c0-0.466-0.12-0.826-0.359-1.083-0.24-0.259-0.573-0.388-1-0.388-0.292 0-0.554 0.062-0.785 0.186-0.229 0.124-0.409 0.306-0.541 0.545-0.13 0.237-0.194 0.523-0.194 0.86zM66.026 20.492c-0.625 0-1.164-0.134-1.616-0.401-0.449-0.27-0.796-0.649-1.041-1.136-0.242-0.49-0.364-1.065-0.364-1.723 0-0.65 0.121-1.223 0.364-1.719 0.245-0.496 0.587-0.883 1.025-1.161 0.441-0.278 0.956-0.417 1.545-0.417 0.358 0 0.705 0.059 1.041 0.178s0.638 0.304 0.905 0.558c0.267 0.253 0.478 0.583 0.632 0.988 0.154 0.402 0.231 0.891 0.231 1.467v0.438h-5.045v-0.926h3.835c0-0.325-0.066-0.613-0.198-0.864-0.132-0.253-0.318-0.453-0.558-0.599-0.237-0.146-0.515-0.219-0.835-0.219-0.347 0-0.65 0.085-0.909 0.256-0.256 0.168-0.455 0.388-0.595 0.661-0.138 0.27-0.207 0.563-0.207 0.88v0.723c0 0.424 0.074 0.785 0.223 1.083 0.151 0.298 0.362 0.525 0.632 0.682 0.27 0.154 0.585 0.231 0.946 0.231 0.234 0 0.448-0.033 0.64-0.099 0.193-0.069 0.36-0.171 0.5-0.306s0.248-0.302 0.322-0.5l1.169 0.211c-0.094 0.344-0.262 0.646-0.504 0.905-0.24 0.256-0.541 0.456-0.905 0.599-0.361 0.14-0.773 0.211-1.236 0.211zM71.356 16.595v3.769h-1.236v-6.347h1.186v1.033h0.078c0.146-0.336 0.375-0.606 0.686-0.81 0.314-0.204 0.71-0.306 1.186-0.306 0.433 0 0.812 0.091 1.136 0.273 0.325 0.179 0.577 0.446 0.756 0.802s0.269 0.795 0.269 1.318v4.037h-1.236v-3.888c0-0.46-0.12-0.82-0.36-1.078-0.239-0.262-0.569-0.393-0.988-0.393-0.286 0-0.541 0.062-0.764 0.186-0.22 0.124-0.395 0.306-0.525 0.545-0.127 0.237-0.19 0.523-0.19 0.86z"></path>
</symbol>
<symbol id="icon-icon-Button-Petrol" viewBox="0 0 79 32">
<path fill="#f2f4f7" style="fill: var(--color1, #f2f4f7)" d="M16 0h47.273c8.837 0 16 7.163 16 16s-7.163 16-16 16h-47.273c-8.837 0-16-7.163-16-16s7.163-16 16-16z"></path>
<path fill="#101828" style="fill: var(--color2, #101828)" d="M15.818 11c0-0.121 0.048-0.236 0.133-0.321s0.201-0.133 0.321-0.133h4.545c0.121 0 0.236 0.048 0.321 0.133s0.133 0.201 0.133 0.321v4.545c0 0.121-0.048 0.236-0.133 0.321s-0.201 0.133-0.321 0.133h-4.545c-0.121 0-0.236-0.048-0.321-0.133s-0.133-0.201-0.133-0.321v-4.545z"></path>
<path fill="#101828" style="fill: var(--color2, #101828)" d="M14 10.545c0-0.482 0.192-0.945 0.533-1.286s0.803-0.533 1.286-0.533h5.455c0.482 0 0.945 0.192 1.286 0.533s0.532 0.803 0.532 1.286v7.273c0.482 0 0.945 0.192 1.286 0.532s0.532 0.803 0.532 1.286v0.455c0 0.121 0.048 0.236 0.133 0.321s0.201 0.133 0.321 0.133 0.236-0.048 0.321-0.133c0.085-0.085 0.133-0.201 0.133-0.321v-4.091h-0.455c-0.121 0-0.236-0.048-0.321-0.133s-0.133-0.201-0.133-0.321v-2.841c0-0.121 0.048-0.236 0.133-0.321s0.201-0.133 0.321-0.133h1.359c-0.010-0.433-0.048-0.813-0.183-1.111-0.072-0.173-0.198-0.319-0.358-0.416-0.167-0.1-0.422-0.177-0.818-0.177-0.121 0-0.236-0.048-0.321-0.133s-0.133-0.201-0.133-0.321 0.048-0.236 0.133-0.321c0.085-0.085 0.201-0.133 0.321-0.133 0.513-0.001 0.941 0.101 1.284 0.305 0.348 0.207 0.576 0.501 0.722 0.825 0.268 0.595 0.267 1.332 0.267 1.892v2.886c0 0.060-0.012 0.119-0.034 0.174s-0.056 0.105-0.098 0.148c-0.042 0.042-0.092 0.076-0.148 0.099s-0.114 0.035-0.174 0.035h-0.455v4.091c0 0.362-0.144 0.709-0.399 0.964s-0.603 0.399-0.964 0.399-0.709-0.144-0.964-0.399c-0.256-0.256-0.399-0.603-0.399-0.964v-0.455c0-0.241-0.096-0.472-0.266-0.643s-0.402-0.266-0.643-0.266v3.636h0.455c0.121 0 0.236 0.048 0.321 0.133s0.133 0.201 0.133 0.321-0.048 0.236-0.133 0.321c-0.085 0.085-0.201 0.133-0.321 0.133h-10c-0.121 0-0.236-0.048-0.321-0.133s-0.133-0.201-0.133-0.321 0.048-0.236 0.133-0.321c0.085-0.085 0.201-0.133 0.321-0.133h0.455v-11.818zM22.182 10.545c0-0.241-0.096-0.472-0.266-0.643s-0.402-0.266-0.643-0.266h-5.455c-0.241 0-0.472 0.096-0.643 0.266s-0.266 0.402-0.266 0.643v11.818h7.273v-11.818z"></path>
<path fill="#101828" style="fill: var(--color2, #101828)" d="M34.413 20.364v-8.463h3.017c0.658 0 1.204 0.12 1.636 0.36s0.756 0.568 0.971 0.983c0.215 0.413 0.322 0.879 0.322 1.397 0 0.521-0.109 0.989-0.326 1.405-0.215 0.413-0.54 0.741-0.975 0.983-0.432 0.24-0.977 0.36-1.632 0.36h-2.074v-1.083h1.959c0.416 0 0.753-0.072 1.012-0.215 0.259-0.146 0.449-0.344 0.57-0.595s0.182-0.536 0.182-0.855-0.061-0.603-0.182-0.851c-0.121-0.248-0.313-0.442-0.574-0.583-0.259-0.14-0.601-0.211-1.025-0.211h-1.603v7.368h-1.277zM44.413 20.492c-0.625 0-1.164-0.134-1.616-0.401-0.449-0.27-0.796-0.649-1.041-1.136-0.242-0.49-0.364-1.065-0.364-1.723 0-0.65 0.121-1.223 0.364-1.719 0.245-0.496 0.587-0.883 1.025-1.161 0.441-0.278 0.956-0.417 1.545-0.417 0.358 0 0.705 0.059 1.041 0.178s0.638 0.304 0.905 0.558c0.267 0.253 0.478 0.583 0.632 0.988 0.154 0.402 0.231 0.891 0.231 1.467v0.438h-5.045v-0.926h3.835c0-0.325-0.066-0.613-0.198-0.864-0.132-0.253-0.318-0.453-0.558-0.599-0.237-0.146-0.515-0.219-0.835-0.219-0.347 0-0.65 0.085-0.909 0.256-0.256 0.168-0.455 0.388-0.595 0.661-0.138 0.27-0.207 0.563-0.207 0.88v0.723c0 0.424 0.074 0.785 0.223 1.083 0.151 0.298 0.362 0.525 0.632 0.682 0.27 0.154 0.585 0.231 0.946 0.231 0.234 0 0.448-0.033 0.641-0.099 0.193-0.069 0.359-0.171 0.5-0.306s0.248-0.302 0.322-0.5l1.169 0.211c-0.094 0.344-0.262 0.646-0.504 0.905-0.24 0.256-0.541 0.456-0.905 0.599-0.361 0.14-0.773 0.211-1.236 0.211zM51.47 14.017v0.992h-3.467v-0.992h3.467zM48.932 12.496h1.236v6.004c0 0.24 0.036 0.42 0.108 0.541 0.072 0.118 0.164 0.2 0.277 0.244 0.116 0.041 0.241 0.062 0.376 0.062 0.099 0 0.186-0.007 0.26-0.021s0.132-0.025 0.174-0.033l0.223 1.021c-0.072 0.028-0.174 0.055-0.306 0.083-0.132 0.030-0.298 0.047-0.496 0.050-0.325 0.006-0.628-0.052-0.909-0.174s-0.508-0.308-0.682-0.562c-0.174-0.253-0.26-0.572-0.26-0.955v-6.26zM52.836 20.364v-6.347h1.194v1.008h0.066c0.116-0.342 0.32-0.61 0.612-0.806 0.295-0.198 0.628-0.298 1-0.298 0.077 0 0.168 0.003 0.273 0.008 0.107 0.006 0.191 0.012 0.252 0.021v1.182c-0.050-0.014-0.138-0.029-0.264-0.045-0.127-0.019-0.253-0.029-0.38-0.029-0.292 0-0.552 0.062-0.781 0.186-0.226 0.121-0.405 0.291-0.537 0.508-0.132 0.215-0.198 0.46-0.198 0.736v3.876h-1.236zM59.748 20.492c-0.595 0-1.114-0.136-1.558-0.409s-0.788-0.654-1.033-1.145c-0.245-0.49-0.368-1.063-0.368-1.719 0-0.658 0.123-1.234 0.368-1.727s0.59-0.876 1.033-1.149c0.444-0.273 0.963-0.409 1.558-0.409s1.114 0.136 1.558 0.409c0.444 0.273 0.788 0.656 1.033 1.149s0.368 1.069 0.368 1.727c0 0.656-0.123 1.229-0.368 1.719s-0.59 0.872-1.033 1.145c-0.444 0.273-0.963 0.409-1.558 0.409zM59.753 19.455c0.386 0 0.705-0.102 0.959-0.306s0.441-0.475 0.562-0.814c0.124-0.339 0.186-0.712 0.186-1.12 0-0.405-0.062-0.777-0.186-1.116-0.121-0.342-0.309-0.616-0.562-0.822s-0.573-0.31-0.959-0.31c-0.388 0-0.711 0.103-0.967 0.31-0.253 0.207-0.442 0.481-0.566 0.822-0.121 0.339-0.182 0.711-0.182 1.116 0 0.408 0.061 0.781 0.182 1.12 0.124 0.339 0.313 0.61 0.566 0.814 0.256 0.204 0.578 0.306 0.967 0.306zM65.322 11.901v8.463h-1.236v-8.463h1.236z"></path>
</symbol>
<symbol id="icon-icon-Button-AC" viewBox="0 0 63 32">
<path fill="#f2f4f7" style="fill: var(--color1, #f2f4f7)" d="M16 0h31.273c8.837 0 16 7.163 16 16s-7.163 16-16 16h-31.273c-8.837 0-16-7.163-16-16s7.163-16 16-16z"></path>
<path fill="#101828" style="fill: var(--color2, #101828)" d="M24.455 10.545c-0.603 0-1.181 0.239-1.607 0.666s-0.666 1.004-0.666 1.607c0 0.121-0.048 0.236-0.133 0.321s-0.201 0.133-0.321 0.133-0.236-0.048-0.321-0.133c-0.085-0.085-0.133-0.201-0.133-0.321 0-0.629 0.187-1.245 0.536-1.768s0.847-0.931 1.428-1.172c0.581-0.241 1.221-0.304 1.838-0.181s1.184 0.426 1.629 0.871c0.445 0.445 0.748 1.012 0.871 1.629s0.060 1.257-0.181 1.838c-0.241 0.581-0.649 1.078-1.172 1.428s-1.138 0.536-1.768 0.536h-10.909c-0.121 0-0.236-0.048-0.321-0.133s-0.133-0.201-0.133-0.321 0.048-0.236 0.133-0.321c0.085-0.085 0.201-0.133 0.321-0.133h10.909c0.603 0 1.181-0.239 1.607-0.666s0.666-1.004 0.666-1.607-0.239-1.181-0.666-1.607c-0.426-0.426-1.004-0.666-1.607-0.666zM18.091 11.455c-0.241 0-0.472 0.096-0.643 0.266s-0.266 0.402-0.266 0.643c0 0.121-0.048 0.236-0.133 0.321s-0.201 0.133-0.321 0.133-0.236-0.048-0.321-0.133c-0.085-0.085-0.133-0.201-0.133-0.321 0-0.36 0.107-0.711 0.306-1.010s0.484-0.532 0.816-0.67c0.332-0.138 0.698-0.174 1.050-0.104s0.677 0.243 0.931 0.498c0.254 0.254 0.427 0.578 0.498 0.931s0.034 0.718-0.104 1.050-0.371 0.616-0.67 0.816c-0.299 0.2-0.65 0.306-1.010 0.306h-4.545c-0.121 0-0.236-0.048-0.321-0.133s-0.133-0.201-0.133-0.321 0.048-0.236 0.133-0.321c0.085-0.085 0.201-0.133 0.321-0.133h4.545c0.241 0 0.472-0.096 0.643-0.266s0.266-0.402 0.266-0.643c0-0.241-0.096-0.472-0.266-0.643s-0.402-0.266-0.643-0.266zM13.091 17.364c0-0.121 0.048-0.236 0.133-0.321s0.201-0.133 0.321-0.133h9.129c0.539 0 1.067 0.16 1.515 0.46s0.798 0.726 1.004 1.224c0.206 0.498 0.26 1.047 0.155 1.576s-0.365 1.015-0.746 1.396c-0.381 0.381-0.867 0.641-1.396 0.746s-1.077 0.051-1.576-0.155c-0.498-0.206-0.924-0.556-1.224-1.005s-0.46-0.976-0.46-1.515c0-0.121 0.048-0.236 0.133-0.321s0.201-0.133 0.321-0.133 0.236 0.048 0.321 0.133c0.085 0.085 0.133 0.201 0.133 0.321 0 0.36 0.107 0.711 0.306 1.010s0.484 0.532 0.816 0.67 0.698 0.174 1.050 0.104c0.353-0.070 0.677-0.243 0.931-0.498s0.427-0.578 0.498-0.931c0.070-0.353 0.034-0.718-0.104-1.050s-0.371-0.616-0.67-0.816c-0.299-0.2-0.65-0.306-1.010-0.306h-9.129c-0.121 0-0.236-0.048-0.321-0.133s-0.133-0.201-0.133-0.321z"></path>
<path fill="#101828" style="fill: var(--color2, #101828)" d="M35.309 20.364h-1.355l3.045-8.463h1.475l3.045 8.463h-1.355l-2.393-6.926h-0.066l-2.397 6.926zM35.537 17.050h4.397v1.074h-4.397v-1.074zM49.373 14.653h-1.289c-0.050-0.275-0.142-0.518-0.277-0.727s-0.3-0.387-0.496-0.533c-0.196-0.146-0.415-0.256-0.657-0.331-0.24-0.074-0.495-0.112-0.764-0.112-0.488 0-0.924 0.123-1.31 0.368-0.383 0.245-0.686 0.605-0.909 1.079-0.22 0.474-0.331 1.052-0.331 1.736 0 0.689 0.11 1.27 0.331 1.744 0.223 0.474 0.528 0.832 0.913 1.074s0.82 0.364 1.302 0.364c0.267 0 0.521-0.036 0.76-0.107 0.242-0.074 0.461-0.183 0.657-0.326s0.361-0.318 0.496-0.525c0.138-0.209 0.233-0.449 0.285-0.719l1.289 0.004c-0.069 0.416-0.202 0.799-0.401 1.149-0.196 0.347-0.448 0.647-0.756 0.901-0.306 0.251-0.656 0.445-1.050 0.583s-0.824 0.207-1.289 0.207c-0.733 0-1.386-0.174-1.959-0.521-0.573-0.35-1.025-0.85-1.355-1.5-0.328-0.65-0.492-1.426-0.492-2.326 0-0.904 0.165-1.679 0.496-2.326 0.331-0.65 0.782-1.149 1.355-1.496 0.573-0.35 1.224-0.525 1.955-0.525 0.449 0 0.868 0.065 1.256 0.194 0.391 0.127 0.742 0.314 1.054 0.562 0.311 0.245 0.569 0.545 0.773 0.901 0.204 0.353 0.342 0.756 0.413 1.211z"></path>
</symbol>
<symbol id="icon-icon-Button-Automatic" viewBox="0 0 104 32">
<path fill="#f2f4f7" style="fill: var(--color1, #f2f4f7)" d="M16 0h72c8.837 0 16 7.163 16 16s-7.163 16-16 16h-72c-8.837 0-16-7.163-16-16s7.163-16 16-16z"></path>
<path fill="#101828" style="fill: var(--color2, #101828)" d="M18.545 11.909c0-0.362 0.144-0.709 0.399-0.964s0.603-0.399 0.964-0.399h0.909c0.362 0 0.709 0.144 0.964 0.399s0.399 0.603 0.399 0.964v0.909c0 0.362-0.144 0.709-0.399 0.964s-0.603 0.399-0.964 0.399v0.909h5c0.121 0 0.236 0.048 0.321 0.133s0.133 0.201 0.133 0.321v0.909c0 0.121-0.048 0.236-0.133 0.321s-0.201 0.133-0.321 0.133-0.236-0.048-0.321-0.133c-0.085-0.085-0.133-0.201-0.133-0.321v-0.455h-4.545v0.455c0 0.121-0.048 0.236-0.133 0.321s-0.201 0.133-0.321 0.133-0.236-0.048-0.321-0.133c-0.085-0.085-0.133-0.201-0.133-0.321v-0.455h-4.545v0.455c0 0.121-0.048 0.236-0.133 0.321s-0.201 0.133-0.321 0.133-0.236-0.048-0.321-0.133c-0.085-0.085-0.133-0.201-0.133-0.321v-0.909c0-0.121 0.048-0.236 0.133-0.321s0.201-0.133 0.321-0.133h5v-0.909c-0.362 0-0.709-0.144-0.964-0.399s-0.399-0.603-0.399-0.964v-0.909zM20.818 13.273c0.121 0 0.236-0.048 0.321-0.133s0.133-0.201 0.133-0.321v-0.909c0-0.121-0.048-0.236-0.133-0.321s-0.201-0.133-0.321-0.133h-0.909c-0.121 0-0.236 0.048-0.321 0.133s-0.133 0.201-0.133 0.321v0.909c0 0.121 0.048 0.236 0.133 0.321s0.201 0.133 0.321 0.133h0.909zM13.091 19.182c0-0.362 0.144-0.709 0.399-0.964s0.603-0.399 0.964-0.399h0.909c0.362 0 0.708 0.144 0.964 0.399s0.399 0.603 0.399 0.964v0.909c0 0.362-0.144 0.709-0.399 0.964s-0.603 0.399-0.964 0.399h-0.909c-0.362 0-0.709-0.144-0.964-0.399s-0.399-0.603-0.399-0.964v-0.909zM14.455 18.727c-0.121 0-0.236 0.048-0.321 0.133s-0.133 0.201-0.133 0.321v0.909c0 0.121 0.048 0.236 0.133 0.321s0.201 0.133 0.321 0.133h0.909c0.121 0 0.236-0.048 0.321-0.133s0.133-0.201 0.133-0.321v-0.909c0-0.121-0.048-0.236-0.133-0.321s-0.201-0.133-0.321-0.133h-0.909zM18.545 19.182c0-0.362 0.144-0.709 0.399-0.964s0.603-0.399 0.964-0.399h0.909c0.362 0 0.709 0.144 0.964 0.399s0.399 0.603 0.399 0.964v0.909c0 0.362-0.144 0.709-0.399 0.964s-0.603 0.399-0.964 0.399h-0.909c-0.362 0-0.709-0.144-0.964-0.399s-0.399-0.603-0.399-0.964v-0.909zM19.909 18.727c-0.121 0-0.236 0.048-0.321 0.133s-0.133 0.201-0.133 0.321v0.909c0 0.121 0.048 0.236 0.133 0.321s0.201 0.133 0.321 0.133h0.909c0.121 0 0.236-0.048 0.321-0.133s0.133-0.201 0.133-0.321v-0.909c0-0.121-0.048-0.236-0.133-0.321s-0.201-0.133-0.321-0.133h-0.909zM24 19.182c0-0.362 0.144-0.709 0.399-0.964s0.603-0.399 0.964-0.399h0.909c0.362 0 0.709 0.144 0.964 0.399s0.399 0.603 0.399 0.964v0.909c0 0.362-0.144 0.709-0.399 0.964s-0.603 0.399-0.964 0.399h-0.909c-0.362 0-0.709-0.144-0.964-0.399s-0.399-0.603-0.399-0.964v-0.909zM25.364 18.727c-0.121 0-0.236 0.048-0.321 0.133s-0.133 0.201-0.133 0.321v0.909c0 0.121 0.048 0.236 0.133 0.321s0.201 0.133 0.321 0.133h0.909c0.121 0 0.236-0.048 0.321-0.133s0.133-0.201 0.133-0.321v-0.909c0-0.121-0.048-0.236-0.133-0.321s-0.201-0.133-0.321-0.133h-0.909z"></path>
<path fill="#101828" style="fill: var(--color2, #101828)" d="M35.287 20.364h-1.355l3.045-8.463h1.475l3.045 8.463h-1.355l-2.393-6.926h-0.066l-2.397 6.926zM35.514 17.050h4.397v1.074h-4.397v-1.074zM46.641 17.731v-3.715h1.24v6.347h-1.215v-1.099h-0.066c-0.146 0.339-0.38 0.621-0.702 0.847-0.32 0.223-0.718 0.335-1.194 0.335-0.408 0-0.769-0.090-1.083-0.269-0.311-0.182-0.556-0.45-0.736-0.806-0.176-0.355-0.264-0.795-0.264-1.318v-4.037h1.236v3.888c0 0.433 0.12 0.777 0.36 1.033s0.551 0.384 0.934 0.384c0.231 0 0.461-0.058 0.69-0.174 0.231-0.116 0.423-0.291 0.574-0.525 0.154-0.234 0.23-0.532 0.227-0.893zM52.504 14.017v0.992h-3.467v-0.992h3.467zM49.966 12.496h1.236v6.004c0 0.24 0.036 0.42 0.107 0.541 0.072 0.118 0.164 0.2 0.277 0.244 0.116 0.041 0.241 0.062 0.376 0.062 0.099 0 0.186-0.007 0.26-0.021s0.132-0.025 0.174-0.033l0.223 1.021c-0.072 0.028-0.174 0.055-0.306 0.083-0.132 0.030-0.298 0.047-0.496 0.050-0.325 0.006-0.628-0.052-0.909-0.174s-0.508-0.308-0.682-0.562c-0.174-0.253-0.26-0.572-0.26-0.955v-6.26zM56.476 20.492c-0.595 0-1.114-0.136-1.558-0.409s-0.788-0.654-1.033-1.145c-0.245-0.49-0.368-1.063-0.368-1.719 0-0.658 0.123-1.234 0.368-1.727s0.59-0.876 1.033-1.149c0.444-0.273 0.963-0.409 1.558-0.409s1.114 0.136 1.558 0.409c0.444 0.273 0.788 0.656 1.033 1.149s0.368 1.069 0.368 1.727c0 0.656-0.123 1.229-0.368 1.719s-0.59 0.872-1.033 1.145c-0.444 0.273-0.963 0.409-1.558 0.409zM56.48 19.455c0.386 0 0.705-0.102 0.959-0.306s0.441-0.475 0.562-0.814c0.124-0.339 0.186-0.712 0.186-1.12 0-0.405-0.062-0.777-0.186-1.116-0.121-0.342-0.309-0.616-0.562-0.822s-0.573-0.31-0.959-0.31c-0.388 0-0.711 0.103-0.967 0.31-0.253 0.207-0.442 0.481-0.566 0.822-0.121 0.339-0.182 0.711-0.182 1.116 0 0.408 0.061 0.781 0.182 1.12 0.124 0.339 0.313 0.61 0.566 0.814 0.256 0.204 0.578 0.306 0.967 0.306zM60.814 20.364v-6.347h1.186v1.033h0.078c0.132-0.35 0.349-0.623 0.649-0.818 0.3-0.198 0.66-0.298 1.078-0.298 0.424 0 0.78 0.099 1.066 0.298 0.289 0.198 0.503 0.471 0.64 0.818h0.066c0.152-0.339 0.393-0.609 0.723-0.81 0.331-0.204 0.725-0.306 1.182-0.306 0.576 0 1.045 0.18 1.409 0.541 0.366 0.361 0.55 0.905 0.55 1.632v4.256h-1.236v-4.14c0-0.43-0.117-0.741-0.351-0.934s-0.514-0.289-0.839-0.289c-0.402 0-0.715 0.124-0.938 0.372-0.223 0.245-0.335 0.561-0.335 0.946v4.045h-1.231v-4.219c0-0.344-0.107-0.621-0.322-0.831s-0.495-0.314-0.839-0.314c-0.234 0-0.45 0.062-0.649 0.186-0.196 0.121-0.354 0.291-0.475 0.508-0.118 0.218-0.178 0.47-0.178 0.756v3.913h-1.236zM72.945 20.504c-0.402 0-0.766-0.074-1.091-0.223-0.325-0.152-0.583-0.371-0.773-0.657-0.187-0.287-0.281-0.638-0.281-1.054 0-0.358 0.069-0.653 0.207-0.884s0.324-0.415 0.558-0.55c0.234-0.135 0.496-0.237 0.785-0.306s0.584-0.121 0.885-0.157c0.38-0.044 0.689-0.080 0.925-0.107 0.237-0.030 0.409-0.078 0.517-0.145s0.161-0.174 0.161-0.322v-0.029c0-0.361-0.102-0.64-0.305-0.839-0.201-0.198-0.502-0.298-0.901-0.298-0.416 0-0.744 0.092-0.983 0.277-0.237 0.182-0.401 0.384-0.492 0.607l-1.161-0.264c0.138-0.386 0.339-0.697 0.603-0.934 0.267-0.24 0.574-0.413 0.922-0.521 0.347-0.11 0.712-0.165 1.095-0.165 0.254 0 0.522 0.030 0.806 0.091 0.287 0.058 0.554 0.165 0.802 0.322 0.25 0.157 0.456 0.382 0.615 0.674 0.16 0.289 0.24 0.665 0.24 1.128v4.215h-1.207v-0.868h-0.049c-0.080 0.16-0.2 0.317-0.36 0.471s-0.365 0.282-0.615 0.384c-0.251 0.102-0.551 0.153-0.901 0.153zM73.213 19.512c0.342 0 0.634-0.067 0.876-0.202 0.245-0.135 0.431-0.311 0.558-0.529 0.129-0.22 0.194-0.456 0.194-0.707v-0.818c-0.044 0.044-0.129 0.085-0.256 0.124-0.124 0.036-0.266 0.067-0.426 0.095-0.159 0.025-0.315 0.048-0.467 0.070-0.151 0.019-0.278 0.036-0.38 0.050-0.24 0.030-0.459 0.081-0.657 0.153-0.196 0.072-0.353 0.175-0.471 0.31-0.116 0.132-0.174 0.309-0.174 0.529 0 0.306 0.113 0.537 0.339 0.694 0.226 0.154 0.514 0.231 0.863 0.231zM80.685 14.017v0.992h-3.467v-0.992h3.467zM78.148 12.496h1.236v6.004c0 0.24 0.036 0.42 0.107 0.541 0.072 0.118 0.164 0.2 0.277 0.244 0.116 0.041 0.241 0.062 0.376 0.062 0.1 0 0.186-0.007 0.26-0.021s0.132-0.025 0.174-0.033l0.223 1.021c-0.072 0.028-0.174 0.055-0.306 0.083-0.132 0.030-0.297 0.047-0.496 0.050-0.325 0.006-0.628-0.052-0.909-0.174s-0.508-0.308-0.681-0.562c-0.174-0.253-0.26-0.572-0.26-0.955v-6.26zM82.052 20.364v-6.347h1.236v6.347h-1.236zM82.676 13.037c-0.215 0-0.4-0.072-0.554-0.215-0.151-0.146-0.227-0.32-0.227-0.521 0-0.204 0.076-0.377 0.227-0.521 0.154-0.146 0.339-0.219 0.554-0.219s0.398 0.073 0.549 0.219c0.154 0.143 0.232 0.317 0.232 0.521 0 0.201-0.078 0.375-0.232 0.521-0.151 0.143-0.335 0.215-0.549 0.215zM87.623 20.492c-0.614 0-1.143-0.139-1.587-0.417-0.441-0.281-0.78-0.668-1.016-1.161s-0.356-1.058-0.356-1.694c0-0.645 0.121-1.213 0.364-1.707 0.242-0.496 0.584-0.883 1.025-1.161s0.96-0.417 1.558-0.417c0.482 0 0.912 0.090 1.289 0.269 0.377 0.176 0.681 0.424 0.913 0.744 0.234 0.32 0.373 0.693 0.417 1.12h-1.202c-0.066-0.298-0.217-0.554-0.455-0.769-0.234-0.215-0.548-0.322-0.942-0.322-0.345 0-0.647 0.091-0.905 0.273-0.256 0.179-0.456 0.435-0.599 0.769-0.143 0.331-0.215 0.722-0.215 1.174 0 0.463 0.071 0.862 0.211 1.198s0.339 0.596 0.595 0.781c0.259 0.184 0.564 0.277 0.913 0.277 0.234 0 0.446-0.043 0.636-0.128 0.193-0.088 0.353-0.214 0.483-0.376 0.132-0.163 0.225-0.358 0.277-0.587h1.202c-0.044 0.41-0.177 0.777-0.401 1.099s-0.521 0.576-0.897 0.76c-0.372 0.184-0.808 0.277-1.31 0.277z"></path>
</symbol>
<symbol id="icon-icon-Batton-Radio" viewBox="0 0 79 32">
<path fill="#f2f4f7" style="fill: var(--color1, #f2f4f7)" d="M16 0h46.545c8.837 0 16 7.163 16 16s-7.163 16-16 16h-46.545c-8.837 0-16-7.163-16-16s7.163-16 16-16z"></path>
<path fill="#101828" style="fill: var(--color2, #101828)" d="M19.455 11c0-0.121 0.048-0.236 0.133-0.321s0.201-0.133 0.321-0.133h6.364c0.121 0 0.236 0.048 0.321 0.133s0.133 0.201 0.133 0.321v0.909c0 0.121-0.048 0.236-0.133 0.321s-0.201 0.133-0.321 0.133h-6.364c-0.121 0-0.236-0.048-0.321-0.133s-0.133-0.201-0.133-0.321v-0.909zM13.091 19.636c0-0.723 0.287-1.417 0.799-1.928s1.205-0.799 1.928-0.799 1.417 0.287 1.929 0.799c0.511 0.512 0.799 1.205 0.799 1.928s-0.287 1.417-0.799 1.928c-0.512 0.511-1.205 0.799-1.928 0.799s-1.417-0.287-1.928-0.799c-0.511-0.512-0.799-1.205-0.799-1.928zM19.455 18.273c0-0.121 0.048-0.236 0.133-0.321s0.201-0.133 0.321-0.133h6.364c0.121 0 0.236 0.048 0.321 0.133s0.133 0.201 0.133 0.321v0.909c0 0.121-0.048 0.236-0.133 0.321s-0.201 0.133-0.321 0.133h-6.364c-0.121 0-0.236-0.048-0.321-0.133s-0.133-0.201-0.133-0.321v-0.909zM19.455 13.727c0-0.121 0.048-0.236 0.133-0.321s0.201-0.133 0.321-0.133h4.545c0.121 0 0.236 0.048 0.321 0.133s0.133 0.201 0.133 0.321-0.048 0.236-0.133 0.321c-0.085 0.085-0.201 0.133-0.321 0.133h-4.545c-0.121 0-0.236-0.048-0.321-0.133s-0.133-0.201-0.133-0.321zM19.455 21c0-0.121 0.048-0.236 0.133-0.321s0.201-0.133 0.321-0.133h4.545c0.121 0 0.236 0.048 0.321 0.133s0.133 0.201 0.133 0.321-0.048 0.236-0.133 0.321c-0.085 0.085-0.201 0.133-0.321 0.133h-4.545c-0.121 0-0.236-0.048-0.321-0.133s-0.133-0.201-0.133-0.321zM15.818 9.636c-0.358 0-0.713 0.071-1.044 0.208s-0.631 0.338-0.885 0.591c-0.253 0.253-0.454 0.554-0.591 0.885s-0.208 0.686-0.208 1.044 0.071 0.713 0.208 1.044c0.137 0.331 0.338 0.632 0.591 0.885s0.554 0.454 0.885 0.591c0.331 0.137 0.686 0.208 1.044 0.208 0.723 0 1.417-0.287 1.928-0.799s0.799-1.205 0.799-1.928-0.287-1.417-0.799-1.928c-0.512-0.511-1.205-0.799-1.928-0.799zM15.818 13.727c-0.362 0-0.709-0.144-0.964-0.399s-0.399-0.603-0.399-0.964 0.144-0.709 0.399-0.964c0.256-0.256 0.603-0.399 0.964-0.399s0.709 0.144 0.964 0.399c0.256 0.256 0.399 0.603 0.399 0.964s-0.144 0.709-0.399 0.964c-0.256 0.256-0.603 0.399-0.964 0.399z"></path>
<path fill="#101828" style="fill: var(--color2, #101828)" d="M34.725 20.364v-8.463h3.017c0.656 0 1.2 0.113 1.632 0.339 0.435 0.226 0.76 0.539 0.975 0.938 0.215 0.397 0.322 0.855 0.322 1.376 0 0.518-0.109 0.974-0.326 1.368-0.215 0.391-0.54 0.696-0.975 0.913-0.432 0.218-0.977 0.326-1.632 0.326h-2.285v-1.099h2.169c0.413 0 0.749-0.059 1.008-0.178 0.262-0.118 0.453-0.291 0.574-0.517s0.182-0.497 0.182-0.814c0-0.32-0.062-0.596-0.186-0.831-0.121-0.234-0.313-0.413-0.574-0.537-0.259-0.127-0.599-0.19-1.021-0.19h-1.603v7.368h-1.277zM38.903 16.545l2.091 3.818h-1.455l-2.050-3.818h1.413zM43.973 20.504c-0.402 0-0.766-0.074-1.091-0.223-0.325-0.152-0.583-0.371-0.773-0.657-0.187-0.287-0.281-0.638-0.281-1.054 0-0.358 0.069-0.653 0.207-0.884s0.324-0.415 0.558-0.55c0.234-0.135 0.496-0.237 0.785-0.306s0.584-0.121 0.884-0.157c0.38-0.044 0.689-0.080 0.926-0.107 0.237-0.030 0.409-0.078 0.517-0.145s0.161-0.174 0.161-0.322v-0.029c0-0.361-0.102-0.64-0.306-0.839-0.201-0.198-0.501-0.298-0.901-0.298-0.416 0-0.744 0.092-0.983 0.277-0.237 0.182-0.401 0.384-0.492 0.607l-1.161-0.264c0.138-0.386 0.339-0.697 0.603-0.934 0.267-0.24 0.574-0.413 0.921-0.521 0.347-0.11 0.712-0.165 1.095-0.165 0.253 0 0.522 0.030 0.806 0.091 0.286 0.058 0.554 0.165 0.802 0.322 0.251 0.157 0.456 0.382 0.616 0.674 0.16 0.289 0.24 0.665 0.24 1.128v4.215h-1.207v-0.868h-0.050c-0.080 0.16-0.2 0.317-0.359 0.471s-0.365 0.282-0.616 0.384c-0.251 0.102-0.551 0.153-0.901 0.153zM44.242 19.512c0.342 0 0.634-0.067 0.876-0.202 0.245-0.135 0.431-0.311 0.558-0.529 0.129-0.22 0.194-0.456 0.194-0.707v-0.818c-0.044 0.044-0.129 0.085-0.256 0.124-0.124 0.036-0.266 0.067-0.426 0.095-0.16 0.025-0.315 0.048-0.467 0.070-0.152 0.019-0.278 0.036-0.38 0.050-0.24 0.030-0.459 0.081-0.657 0.153-0.196 0.072-0.353 0.175-0.471 0.31-0.116 0.132-0.174 0.309-0.174 0.529 0 0.306 0.113 0.537 0.339 0.694 0.226 0.154 0.514 0.231 0.864 0.231zM51.127 20.488c-0.512 0-0.97-0.131-1.372-0.393-0.4-0.265-0.714-0.64-0.942-1.128-0.226-0.49-0.339-1.078-0.339-1.764s0.114-1.273 0.343-1.76c0.231-0.488 0.548-0.861 0.95-1.12s0.858-0.388 1.368-0.388c0.394 0 0.711 0.066 0.95 0.198 0.242 0.129 0.43 0.281 0.562 0.455 0.135 0.174 0.24 0.326 0.314 0.459h0.074v-3.145h1.236v8.463h-1.207v-0.988h-0.103c-0.074 0.135-0.182 0.289-0.322 0.463-0.138 0.174-0.328 0.325-0.57 0.455s-0.556 0.194-0.942 0.194zM51.4 19.434c0.355 0 0.656-0.094 0.901-0.281 0.248-0.19 0.435-0.453 0.562-0.789 0.129-0.336 0.194-0.727 0.194-1.174 0-0.441-0.063-0.826-0.19-1.157s-0.313-0.588-0.558-0.773c-0.245-0.185-0.548-0.277-0.909-0.277-0.372 0-0.682 0.096-0.93 0.289s-0.435 0.456-0.562 0.789c-0.124 0.333-0.186 0.709-0.186 1.128 0 0.424 0.063 0.806 0.19 1.145s0.314 0.608 0.562 0.806c0.251 0.196 0.559 0.293 0.926 0.293zM56.035 20.364v-6.347h1.236v6.347h-1.236zM56.659 13.037c-0.215 0-0.399-0.072-0.554-0.215-0.151-0.146-0.227-0.32-0.227-0.521 0-0.204 0.076-0.377 0.227-0.521 0.154-0.146 0.339-0.219 0.554-0.219s0.398 0.073 0.55 0.219c0.154 0.143 0.231 0.317 0.231 0.521 0 0.201-0.077 0.375-0.231 0.521-0.151 0.143-0.335 0.215-0.55 0.215zM61.606 20.492c-0.595 0-1.114-0.136-1.558-0.409s-0.788-0.654-1.033-1.145c-0.245-0.49-0.368-1.063-0.368-1.719 0-0.658 0.123-1.234 0.368-1.727s0.59-0.876 1.033-1.149c0.444-0.273 0.963-0.409 1.558-0.409s1.114 0.136 1.558 0.409c0.444 0.273 0.788 0.656 1.033 1.149s0.368 1.069 0.368 1.727c0 0.656-0.123 1.229-0.368 1.719s-0.59 0.872-1.033 1.145c-0.444 0.273-0.963 0.409-1.558 0.409zM61.611 19.455c0.386 0 0.705-0.102 0.959-0.306s0.441-0.475 0.562-0.814c0.124-0.339 0.186-0.712 0.186-1.12 0-0.405-0.062-0.777-0.186-1.116-0.121-0.342-0.309-0.616-0.562-0.822s-0.573-0.31-0.959-0.31c-0.388 0-0.711 0.103-0.967 0.31-0.253 0.207-0.442 0.481-0.566 0.822-0.121 0.339-0.182 0.711-0.182 1.116 0 0.408 0.061 0.781 0.182 1.12 0.124 0.339 0.313 0.61 0.566 0.814 0.256 0.204 0.579 0.306 0.967 0.306z"></path>
</symbol>
<symbol id="icon-User" viewBox="0 0 32 32">
<path fill="#f2f4f7" style="fill: var(--color1, #f2f4f7)" d="M16 0c8.837 0 16 7.163 16 16s-7.163 16-16 16c-8.837 0-16-7.163-16-16s7.163-16 16-16z"></path>
</symbol>

  </defs>
</svg>
